STARTFONT 2.1
FONT -FontForge-Roboto-Bold-R-Normal--75-720-75-75-P-429-ISO10646-1
SIZE 72 75 75
FONTBOUNDINGBOX 144 97 -55 -20
COMMENT "Generated by fontforge, http://fontforge.sourceforge.net"
COMMENT "Copyright 2011 Google Inc. All Rights Reserved."
STARTPROPERTIES 41
FOUNDRY "FontForge"
FAMILY_NAME "Roboto"
WEIGHT_NAME "Bold"
SLANT "R"
SETWIDTH_NAME "Normal"
ADD_STYLE_NAME ""
PIXEL_SIZE 75
POINT_SIZE 720
RESOLUTION_X 75
RESOLUTION_Y 75
SPACING "P"
AVERAGE_WIDTH 429
CHARSET_REGISTRY "ISO10646"
CHARSET_ENCODING "1"
FONTNAME_REGISTRY ""
CHARSET_COLLECTIONS "ISO8859-2 ISO8859-5 ISO8859-7 ISO8859-9 ISO8859-4 ISO10646-1"
FONT_NAME "Roboto-Bold"
FACE_NAME "Roboto Bold"
COPYRIGHT "Copyright 2011 Google Inc. All Rights Reserved."
FONT_VERSION "2.137; 2017"
FONT_ASCENT 56
FONT_DESCENT 19
UNDERLINE_POSITION -7
UNDERLINE_THICKNESS 4
X_HEIGHT 39
CAP_HEIGHT 52
DEFAULT_CHAR 1
RAW_ASCENT 750
RAW_DESCENT 250
NORM_SPACE 19
RELATIVE_WEIGHT 70
RELATIVE_SETWIDTH 50
SUPERSCRIPT_X 0
SUPERSCRIPT_Y 35
SUPERSCRIPT_SIZE 48
SUBSCRIPT_X 0
SUBSCRIPT_Y 10
SUBSCRIPT_SIZE 48
FIGURE_WIDTH 43
AVG_LOWERCASE_WIDTH 419
AVG_UPPERCASE_WIDTH 502
ENDPROPERTIES
CHARS 1296
STARTCHAR uni0000
ENCODING 0
SWIDTH 0 0
DWIDTH 0 0
BBX 1 1 0 0
BITMAP
00
ENDCHAR
STARTCHAR uni0002
ENCODING 2
SWIDTH 0 0
DWIDTH 0 0
BBX 1 1 0 0
BITMAP
00
ENDCHAR
STARTCHAR uni000D
ENCODING 13
SWIDTH 249 0
DWIDTH 19 0
BBX 1 1 0 0
BITMAP
00
ENDCHAR
STARTCHAR space
ENCODING 32
SWIDTH 249 0
DWIDTH 19 0
BBX 1 1 0 0
BITMAP
00
ENDCHAR
STARTCHAR exclam
ENCODING 33
SWIDTH 271 0
DWIDTH 20 0
BBX 12 54 4 -1
BITMAP
7FF0
7FF0
7FF0
7FF0
7FF0
7FF0
7FF0
7FF0
7FF0
7FF0
7FF0
7FF0
7FE0
7FE0
7FE0
7FE0
7FE0
7FE0
7FE0
7FE0
7FE0
7FE0
7FE0
7FE0
7FE0
7FE0
7FE0
3FE0
3FE0
3FE0
3FE0
3FE0
3FE0
3FE0
3FE0
3FE0
3FE0
0000
0000
0000
0000
0000
0000
0F80
3FC0
7FE0
7FF0
FFF0
FFF0
FFF0
7FF0
7FE0
3FC0
0F80
ENDCHAR
STARTCHAR quotedbl
ENCODING 34
SWIDTH 320 0
DWIDTH 24 0
BBX 20 20 2 36
BITMAP
FF0FF0
FF0FF0
FF0FF0
FF0FF0
FF0FF0
FF0FF0
FF0FE0
FE0FE0
FE0FE0
FE0FE0
FE0FE0
FE0FE0
FE0FE0
FE0FE0
FE0FE0
FE0FE0
FE0FE0
FE0FC0
FC0FC0
FC0FC0
ENDCHAR
STARTCHAR numbersign
ENCODING 35
SWIDTH 595 0
DWIDTH 45 0
BBX 41 53 2 0
BITMAP
0001FC07F000
0001FC07F000
0001FC07F000
0001FC07E000
0001F80FE000
0003F80FE000
0003F80FE000
0003F80FE000
0003F80FC000
0003F01FC000
0003F01FC000
0007F01FC000
0007F01FC000
0007F01F8000
1FFFFFFFFF80
1FFFFFFFFF80
1FFFFFFFFF80
1FFFFFFFFF80
1FFFFFFFFF80
1FFFFFFFFF80
000FC07F0000
001FC07F0000
001FC07F0000
001FC07F0000
001FC07E0000
001FC07E0000
001F80FE0000
003F80FE0000
003F80FE0000
003F80FE0000
003F80FC0000
FFFFFFFFFE00
FFFFFFFFFE00
FFFFFFFFFE00
FFFFFFFFFE00
FFFFFFFFFE00
FFFFFFFFFE00
007E03F80000
007E03F80000
00FE03F80000
00FE03F80000
00FE03F80000
00FE03F00000
00FC07F00000
00FC07F00000
01FC07F00000
01FC07F00000
01FC07F00000
01FC07E00000
01F80FE00000
01F80FE00000
03F80FE00000
03F80FE00000
ENDCHAR
STARTCHAR dollar
ENCODING 36
SWIDTH 573 0
DWIDTH 43 0
BBX 37 70 3 -8
BITMAP
00007E0000
00007E0000
00007E0000
00007E0000
00007E0000
00007E0000
00007E0000
00007E0000
0003FF8000
001FFFF000
007FFFF800
00FFFFFE00
03FFFFFF00
03FFFFFF80
07FFFFFFC0
0FFFFFFFC0
0FFFFFFFE0
1FFF03FFE0
1FFE00FFE0
1FFC00FFF0
1FF8007FF0
3FF8007FF0
3FF8003FF0
3FF8003FF0
3FF8003FF0
1FF8000008
1FFC000000
1FFC000000
1FFF000000
0FFF800000
0FFFE00000
07FFFC0000
03FFFF0000
01FFFFC000
00FFFFF000
007FFFFC00
001FFFFE00
000FFFFF00
0001FFFF80
00007FFFC0
00001FFFE0
000003FFE0
000001FFF0
000000FFF0
0000007FF0
0000003FF0
FFE0003FF0
FFE0003FF0
7FE0003FF8
7FF0003FF0
7FF0007FF0
7FF8007FF0
7FFC00FFF0
3FFF03FFF0
3FFFFFFFE0
1FFFFFFFE0
0FFFFFFFC0
0FFFFFFF80
07FFFFFF80
03FFFFFE00
00FFFFFC00
003FFFF000
0007FF8000
0000FC0000
0000FC0000
0000FC0000
0000FC0000
0000FC0000
0000FC0000
0000FC0000
ENDCHAR
STARTCHAR percent
ENCODING 37
SWIDTH 738 0
DWIDTH 55 0
BBX 49 55 3 -1
BITMAP
00FF0000000000
03FFC000000000
0FFFF000000000
1FFFF800000000
3FFFF800000000
3FFFFC00000000
7FC3FE00300000
7F01FE003C0000
FF00FE007E0000
FE00FE007F0000
FE00FE00FE0000
FE00FE01FC0000
FE00FE01FC0000
FE00FE03F80000
FE00FE07F00000
FE00FE07F00000
FF00FE0FE00000
7F01FE0FC00000
7FC3FE1FC00000
3FFFFC3F800000
3FFFF83F800000
1FFFF87F000000
0FFFF0FE000000
07FFC0FE000000
00FF01FC000000
000003F8000000
000003F8000000
000007F0000000
000007F0000000
00000FE0000000
00001FC07F8000
00001FC1FFF000
00003F83FFF800
00007F0FFFFC00
00007F0FFFFE00
0000FE1FFFFF00
0000FC1FE1FF00
0001FC3FC07F00
0003F83F807F80
0003F83F803F80
0007F03F803F80
000FE03F803F80
000FE03F803F80
001FC03F803F80
003F803F803F80
003F803F803F80
007F003F807F80
007F003FC07F00
001E001FE0FF00
0004001FFFFF00
0000000FFFFE00
0000000FFFFC00
00000003FFF800
00000001FFF000
000000007F8000
ENDCHAR
STARTCHAR ampersand
ENCODING 38
SWIDTH 656 0
DWIDTH 49 0
BBX 46 55 2 -1
BITMAP
0001FF000000
000FFFC00000
001FFFF00000
007FFFF80000
00FFFFFC0000
00FFFFFE0000
01FFFFFF0000
03FFFFFF0000
03FFFFFF8000
03FF83FF8000
07FF01FF8000
07FE00FF8000
07FE00FF8000
07FE00FF8000
07FE00FF8000
07FE00FF8000
07FE01FF0000
07FF01FF0000
03FF07FF0000
03FF8FFE0000
01FFFFFC0000
01FFFFF80000
00FFFFF00000
00FFFFE00000
007FFFC00000
003FFF000000
007FFE000000
00FFFE000000
01FFFF003FE0
03FFFF803FE0
07FFFFC03FE0
0FFFFFE03FE0
1FFCFFF03FE0
3FF8FFF87FE0
3FF87FF87FC0
7FF03FFC7FC0
7FF01FFEFFC0
7FE00FFFFFC0
7FE007FFFFC0
FFE003FFFF80
FFE001FFFF80
7FF000FFFF00
7FF000FFFF00
7FF8007FFE00
7FFC007FFC00
7FFE03FFFE00
3FFFFFFFFF00
3FFFFFFFFF80
1FFFFFFFFF80
0FFFFFFFFFC0
07FFFFFFFFE0
03FFFFFCFFF0
00FFFFF87FF8
003FFFC03FFC
0007FE000000
ENDCHAR
STARTCHAR quotesingle
ENCODING 39
SWIDTH 161 0
DWIDTH 12 0
BBX 8 20 2 36
BITMAP
FF
FF
FF
FF
FF
FF
FF
FF
FF
FF
FF
FF
FE
FE
FE
FE
FE
FE
FE
FE
ENDCHAR
STARTCHAR parenleft
ENCODING 40
SWIDTH 351 0
DWIDTH 26 0
BBX 21 76 4 -17
BITMAP
000020
0000E0
0001F0
0007F0
000FF0
001FF8
003FF0
003FE0
007FC0
00FF80
00FF00
01FE00
03FE00
03FC00
07FC00
07F800
0FF800
0FF800
0FF000
1FF000
1FF000
1FE000
3FE000
3FE000
3FE000
3FC000
7FC000
7FC000
7FC000
7FC000
7FC000
7FC000
7FC000
FF8000
FF8000
FF8000
FF8000
FF8000
FF8000
FF8000
FF8000
FF8000
FF8000
7F8000
7FC000
7FC000
7FC000
7FC000
7FC000
7FC000
3FC000
3FE000
3FE000
3FE000
1FE000
1FF000
1FF000
0FF000
0FF800
0FF800
07F800
07FC00
03FC00
03FE00
01FE00
00FF00
00FF80
007FC0
003FE0
003FF0
001FF8
000FF0
0007F0
0001F0
0000E0
000020
ENDCHAR
STARTCHAR parenright
ENCODING 41
SWIDTH 352 0
DWIDTH 26 0
BBX 21 76 1 -17
BITMAP
200000
380000
7C0000
7F0000
7F8000
FFC000
7FE000
3FE000
1FF000
0FF800
07FC00
07FC00
03FE00
01FE00
01FF00
01FF00
00FF80
00FF80
007FC0
007FC0
007FC0
003FE0
003FE0
003FE0
003FE0
001FF0
001FF0
001FF0
001FF0
001FF0
001FF8
001FF8
001FF8
001FF8
000FF8
000FF8
000FF8
000FF8
000FF8
000FF8
000FF8
001FF8
001FF8
001FF8
001FF8
001FF8
001FF8
001FF0
001FF0
001FF0
001FF0
003FF0
003FE0
003FE0
003FE0
007FC0
007FC0
007FC0
00FF80
00FF80
00FF00
01FF00
01FE00
03FE00
07FC00
07FC00
0FF800
1FF000
3FE000
7FE000
FFC000
7F8000
7F0000
7C0000
380000
200000
ENDCHAR
STARTCHAR asterisk
ENCODING 42
SWIDTH 453 0
DWIDTH 34 0
BBX 33 32 1 21
BITMAP
0007F00000
0007F00000
0007F00000
0007F00000
0007F00000
0007F00000
0007F00000
0007F00000
4007F00000
3807E00E00
7E07E07E00
7FC7E1FE00
7FF7E7FF00
7FFFFFFF00
FFFFFFFF00
7FFFFFFF80
07FFFFF000
00FFFF0000
001FF80000
001FFC0000
003FFC0000
007FFE0000
00FE7F0000
01FE7F8000
01FC3FC000
03FC3FC000
07F81FE000
0FF00FF000
0FF00FF000
03E007E000
01C0078000
0040030000
ENDCHAR
STARTCHAR plus
ENCODING 43
SWIDTH 545 0
DWIDTH 41 0
BBX 37 38 2 6
BITMAP
0007FE0000
0007FE0000
0007FE0000
0007FE0000
0007FE0000
0007FE0000
0007FE0000
0007FE0000
0007FE0000
0007FE0000
0007FE0000
0007FE0000
0007FE0000
0007FE0000
FFFFFFFFF8
FFFFFFFFF8
FFFFFFFFF8
FFFFFFFFF8
FFFFFFFFF8
FFFFFFFFF8
FFFFFFFFF8
FFFFFFFFF8
FFFFFFFFF8
0007FE0000
0007FE0000
0007FE0000
0007FE0000
0007FE0000
0007FE0000
0007FE0000
0007FE0000
0007FE0000
0007FE0000
0007FE0000
0007FE0000
0007FE0000
0007FE0000
0007FE0000
ENDCHAR
STARTCHAR comma
ENCODING 44
SWIDTH 244 0
DWIDTH 18 0
BBX 13 22 1 -13
BITMAP
0FF8
0FF8
0FF8
0FF8
0FF8
0FF8
0FF8
0FF8
0FF8
0FF8
0FF0
1FF0
1FF0
1FF0
1FE0
3FE0
3FC0
7FC0
FF80
7F00
1E00
0400
ENDCHAR
STARTCHAR hyphen
ENCODING 45
SWIDTH 387 0
DWIDTH 29 0
BBX 21 9 4 18
BITMAP
FFFFF8
FFFFF8
FFFFF8
FFFFF8
FFFFF8
FFFFF8
FFFFF8
FFFFF8
FFFFF8
ENDCHAR
STARTCHAR period
ENCODING 46
SWIDTH 290 0
DWIDTH 22 0
BBX 12 11 5 0
BITMAP
1F00
7FC0
7FE0
FFE0
FFF0
FFF0
FFF0
FFE0
7FE0
7FC0
1F00
ENDCHAR
STARTCHAR slash
ENCODING 47
SWIDTH 373 0
DWIDTH 28 0
BBX 27 58 0 -5
BITMAP
00001FE0
00001FE0
00003FC0
00003FC0
00003FC0
00007F80
00007F80
00007F80
0000FF00
0000FF00
0000FE00
0001FE00
0001FE00
0001FC00
0003FC00
0003FC00
0003F800
0007F800
0007F800
0007F000
000FF000
000FF000
000FE000
001FE000
001FE000
001FC000
003FC000
003FC000
003F8000
007F8000
007F8000
00FF0000
00FF0000
00FF0000
01FE0000
01FE0000
01FE0000
03FC0000
03FC0000
03FC0000
07F80000
07F80000
07F80000
0FF00000
0FF00000
0FF00000
1FE00000
1FE00000
1FE00000
3FC00000
3FC00000
3FC00000
7F800000
7F800000
7F800000
FF000000
FF000000
FF000000
ENDCHAR
STARTCHAR zero
ENCODING 48
SWIDTH 573 0
DWIDTH 43 0
BBX 37 55 3 -1
BITMAP
0003FE0000
001FFFC000
007FFFF000
01FFFFFC00
03FFFFFE00
07FFFFFF00
07FFFFFF00
0FFFFFFF80
1FFFFFFFC0
1FFF07FFC0
3FFC01FFC0
3FF800FFE0
3FF800FFE0
7FF0007FE0
7FF0007FF0
7FF0007FF0
7FE0003FF0
7FE0003FF0
7FE0003FF0
7FE0003FF0
FFE0003FF0
FFE0003FF0
FFE0003FF8
FFE0003FF8
FFE0003FF8
FFE0003FF8
FFE0003FF8
FFE0003FF8
FFE0003FF8
FFE0003FF8
FFE0003FF8
FFE0003FF8
FFE0003FF0
FFE0003FF0
FFE0003FF0
7FE0003FF0
7FE0003FF0
7FE0003FF0
7FE0003FF0
7FF0007FF0
7FF0007FF0
7FF0007FE0
3FF800FFE0
3FF800FFE0
3FFC01FFC0
1FFF07FFC0
1FFFFFFFC0
0FFFFFFF80
07FFFFFF00
07FFFFFF00
03FFFFFE00
01FFFFFC00
007FFFF000
001FFFC000
0003FE0000
ENDCHAR
STARTCHAR one
ENCODING 49
SWIDTH 573 0
DWIDTH 43 0
BBX 23 53 6 0
BITMAP
000006
00003E
0001FE
0007FE
003FFE
01FFFE
0FFFFE
7FFFFE
FFFFFE
FFFFFE
FFFFFE
FFFFFE
FFFFFE
FFE7FE
FF07FE
F807FE
C007FE
0007FE
0007FE
0007FE
0007FE
0007FE
0007FE
0007FE
0007FE
0007FE
0007FE
0007FE
0007FE
0007FE
0007FE
0007FE
0007FE
0007FE
0007FE
0007FE
0007FE
0007FE
0007FE
0007FE
0007FE
0007FE
0007FE
0007FE
0007FE
0007FE
0007FE
0007FE
0007FE
0007FE
0007FE
0007FE
0007FE
ENDCHAR
STARTCHAR two
ENCODING 50
SWIDTH 573 0
DWIDTH 43 0
BBX 37 54 3 0
BITMAP
0007FE0000
003FFFE000
00FFFFF800
03FFFFFC00
07FFFFFE00
0FFFFFFF00
1FFFFFFF80
1FFFFFFFC0
3FFFFFFFC0
7FFE07FFE0
7FF803FFE0
7FF001FFE0
FFE000FFE0
FFE000FFE0
FFE0007FE0
FFC0007FE0
FFC0007FE0
0000007FE0
0000007FE0
000000FFE0
000000FFC0
000001FFC0
000001FFC0
000003FF80
000007FF80
00000FFF00
00000FFE00
00001FFE00
00003FFC00
00007FF800
0000FFF000
0001FFE000
0003FFC000
0007FF8000
000FFF0000
001FFF0000
003FFE0000
007FFC0000
00FFF80000
01FFF00000
03FFE00000
07FFC00000
0FFF800000
1FFF000000
3FFE000000
7FFFFFFFF8
7FFFFFFFF8
7FFFFFFFF8
7FFFFFFFF8
7FFFFFFFF8
7FFFFFFFF8
7FFFFFFFF8
7FFFFFFFF8
7FFFFFFFF8
ENDCHAR
STARTCHAR three
ENCODING 51
SWIDTH 573 0
DWIDTH 43 0
BBX 37 55 2 -1
BITMAP
0003FF0000
003FFFE000
00FFFFF800
01FFFFFE00
07FFFFFF00
0FFFFFFF80
0FFFFFFFC0
1FFFFFFFE0
3FFFFFFFE0
3FFF03FFE0
3FFC00FFF0
7FF8007FF0
7FF0007FF0
7FF0003FF0
7FF0003FF0
0000003FF8
0000003FF0
0000003FF0
0000007FF0
0000007FF0
000000FFE0
000001FFE0
000003FFC0
000FFFFF80
000FFFFF00
000FFFFE00
000FFFFC00
000FFFF800
000FFFFE00
000FFFFF80
000FFFFFC0
000FFFFFE0
000003FFE0
000000FFF0
0000007FF0
0000003FF8
0000003FF8
0000001FF8
0000001FF8
0000001FF8
FFE0001FF8
FFE0003FF8
7FF0003FF8
7FF0007FF8
7FFC00FFF8
7FFF03FFF0
3FFFFFFFF0
3FFFFFFFE0
1FFFFFFFC0
0FFFFFFFC0
07FFFFFF00
03FFFFFE00
00FFFFFC00
003FFFE000
0007FF0000
ENDCHAR
STARTCHAR four
ENCODING 52
SWIDTH 573 0
DWIDTH 43 0
BBX 39 53 2 0
BITMAP
000003FF80
000007FF80
000007FF80
00000FFF80
00001FFF80
00001FFF80
00003FFF80
00007FFF80
00007FFF80
0000FFFF80
0000FFFF80
0001FFFF80
0003FFFF80
0003FFFF80
0007FFFF80
000FFFFF80
000FFBFF80
001FF3FF80
003FF3FF80
003FE3FF80
007FE3FF80
007FC3FF80
00FF83FF80
01FF83FF80
01FF03FF80
03FE03FF80
07FE03FF80
07FC03FF80
0FF803FF80
1FF803FF80
1FF003FF80
3FF003FF80
3FE003FF80
7FFFFFFFFE
FFFFFFFFFE
FFFFFFFFFE
FFFFFFFFFE
FFFFFFFFFE
FFFFFFFFFE
FFFFFFFFFE
FFFFFFFFFE
FFFFFFFFFE
000003FF80
000003FF80
000003FF80
000003FF80
000003FF80
000003FF80
000003FF80
000003FF80
000003FF80
000003FF80
000003FF80
ENDCHAR
STARTCHAR five
ENCODING 53
SWIDTH 573 0
DWIDTH 43 0
BBX 36 54 4 -1
BITMAP
0FFFFFFFC0
0FFFFFFFC0
0FFFFFFFC0
0FFFFFFFC0
0FFFFFFFC0
0FFFFFFFC0
0FFFFFFFC0
1FFFFFFFC0
1FFFFFFFC0
1FF8000000
1FF8000000
1FF8000000
1FF8000000
1FF0000000
1FF0000000
1FF0000000
3FF0000000
3FF0000000
3FF0FF0000
3FF7FFE000
3FFFFFF800
3FFFFFFC00
3FFFFFFE00
3FFFFFFF00
3FFFFFFF80
7FFFFFFFC0
7FFFFFFFC0
7FF80FFFC0
07E003FFE0
004001FFE0
000000FFE0
0000007FF0
0000007FF0
0000007FF0
0000007FF0
0000007FF0
0000007FF0
0000007FF0
FFC0007FF0
FFC0007FF0
FFE0007FE0
FFE000FFE0
FFF001FFE0
7FF803FFE0
7FFE07FFC0
3FFFFFFFC0
3FFFFFFF80
1FFFFFFF00
0FFFFFFF00
07FFFFFE00
03FFFFF800
00FFFFF000
003FFFC000
0007FE0000
ENDCHAR
STARTCHAR six
ENCODING 54
SWIDTH 573 0
DWIDTH 43 0
BBX 36 55 4 -1
BITMAP
000007F000
00007FF000
0001FFF000
0007FFF000
001FFFF000
003FFFF000
007FFFF000
01FFFFF000
01FFFFF000
03FFFC0000
07FFE00000
0FFF800000
0FFF000000
1FFE000000
1FFC000000
3FF8000000
3FF0000000
7FF0000000
7FE07F8000
7FE3FFF000
7FE7FFFC00
FFFFFFFE00
FFFFFFFF00
FFFFFFFF80
FFFFFFFF80
FFFFFFFFC0
FFFFFFFFC0
FFFE07FFE0
FFF801FFE0
FFF000FFF0
FFE000FFF0
FFC0007FF0
FFC0007FF0
FFC0007FF0
FFC0003FF0
FFC0003FF0
FFC0003FF0
FFC0003FF0
FFE0003FF0
FFE0007FF0
FFE0007FF0
7FE0007FF0
7FF000FFF0
7FF800FFE0
3FFC01FFE0
3FFE07FFC0
1FFFFFFFC0
0FFFFFFF80
0FFFFFFF00
07FFFFFF00
03FFFFFE00
01FFFFF800
007FFFF000
001FFFC000
0003FE0000
ENDCHAR
STARTCHAR seven
ENCODING 55
SWIDTH 573 0
DWIDTH 43 0
BBX 38 53 2 0
BITMAP
FFFFFFFFFC
FFFFFFFFFC
FFFFFFFFFC
FFFFFFFFFC
FFFFFFFFFC
FFFFFFFFFC
FFFFFFFFFC
FFFFFFFFF8
FFFFFFFFF8
0000003FF0
0000003FF0
0000003FF0
0000007FE0
0000007FE0
000000FFC0
000000FFC0
000001FF80
000001FF80
000003FF00
000003FF00
000007FF00
000007FE00
00000FFE00
00000FFC00
00001FFC00
00001FF800
00001FF800
00003FF800
00003FF000
00007FF000
00007FE000
0000FFE000
0000FFC000
0001FFC000
0001FF8000
0003FF8000
0003FF8000
0007FF0000
0007FF0000
000FFE0000
000FFE0000
001FFC0000
001FFC0000
001FF80000
003FF80000
003FF80000
007FF00000
007FF00000
00FFE00000
00FFE00000
01FFC00000
01FFC00000
03FFC00000
ENDCHAR
STARTCHAR eight
ENCODING 56
SWIDTH 573 0
DWIDTH 43 0
BBX 37 55 3 -1
BITMAP
0003FE0000
003FFFE000
00FFFFF800
01FFFFFC00
03FFFFFE00
07FFFFFF00
0FFFFFFF80
1FFFFFFF80
1FFFFFFFC0
1FFF07FFC0
3FFC01FFE0
3FF800FFE0
3FF800FFE0
3FF000FFE0
3FF0007FE0
3FF0007FE0
3FF0007FE0
3FF0007FE0
3FF800FFE0
3FF800FFE0
1FF800FFC0
1FFC01FFC0
0FFF07FF80
0FFFFFFF80
07FFFFFF00
03FFFFFE00
01FFFFF800
00FFFFF000
01FFFFFC00
07FFFFFF00
0FFFFFFF80
1FFFFFFFC0
1FFE03FFC0
3FFC01FFE0
3FF800FFE0
7FF0007FF0
7FE0007FF0
7FE0003FF0
7FE0003FF0
FFE0003FF0
FFE0003FF8
7FE0003FF0
7FF0007FF0
7FF8007FF0
7FFC01FFF0
7FFE03FFF0
3FFFFFFFE0
3FFFFFFFE0
1FFFFFFFC0
0FFFFFFF80
07FFFFFF00
03FFFFFE00
00FFFFF800
003FFFE000
0007FF0000
ENDCHAR
STARTCHAR nine
ENCODING 57
SWIDTH 573 0
DWIDTH 43 0
BBX 36 55 3 -1
BITMAP
0003FC0000
001FFF8000
007FFFE000
01FFFFF800
03FFFFFC00
07FFFFFE00
0FFFFFFF00
1FFFFFFF00
1FFFFFFF80
3FFE07FF80
3FFC03FFC0
7FF801FFC0
7FF000FFE0
7FF000FFE0
7FE0007FE0
FFE0007FE0
FFE0007FF0
FFE0007FF0
FFE0007FF0
FFE0003FF0
FFE0003FF0
FFE0003FF0
FFE0003FF0
FFF0003FF0
7FF0007FF0
7FF800FFF0
7FFC01FFF0
3FFF07FFF0
3FFFFFFFF0
1FFFFFFFF0
1FFFFFFFF0
0FFFFFFFF0
07FFFFFFF0
03FFFFFFE0
01FFFE7FE0
007FFC7FE0
001FE07FE0
000000FFC0
000000FFC0
000001FFC0
000001FF80
000003FF80
000007FF00
00000FFF00
00003FFE00
0003FFFC00
00FFFFFC00
00FFFFF800
00FFFFF000
00FFFFE000
00FFFF8000
00FFFF0000
00FFFC0000
00FFE00000
00FE000000
ENDCHAR
STARTCHAR colon
ENCODING 58
SWIDTH 282 0
DWIDTH 21 0
BBX 12 41 5 0
BITMAP
1F00
7FC0
7FE0
FFE0
FFF0
FFF0
FFF0
FFE0
7FE0
7FC0
1F00
0000
0000
0000
0000
0000
0000
0000
0000
0000
0000
0000
0000
0000
0000
0000
0000
0000
0000
0000
1F00
7FC0
7FE0
FFE0
FFF0
FFF0
FFF0
FFE0
7FE0
7FC0
1F00
ENDCHAR
STARTCHAR semicolon
ENCODING 59
SWIDTH 262 0
DWIDTH 20 0
BBX 14 54 2 -13
BITMAP
07E0
0FF0
1FF8
3FFC
3FFC
3FFC
3FFC
3FFC
1FF8
0FF0
07E0
0000
0000
0000
0000
0000
0000
0000
0000
0000
0000
0000
0000
0000
0000
0000
0000
0000
0000
0000
0000
0000
0FF8
0FF8
0FF8
0FF8
0FF8
0FF8
0FF8
0FF8
0FF8
0FF0
0FF0
1FF0
1FF0
1FE0
3FE0
3FC0
7FC0
7F80
FF80
7F00
1E00
0C00
ENDCHAR
STARTCHAR less
ENCODING 60
SWIDTH 508 0
DWIDTH 38 0
BBX 32 35 2 5
BITMAP
00000003
0000000F
0000003F
000001FF
000007FF
00003FFF
0000FFFF
0003FFFF
001FFFFF
007FFFFF
03FFFFFE
0FFFFFF0
3FFFFF80
FFFFFC00
FFFFE000
FFFF0000
FFFC0000
FFE00000
FFF80000
FFFF0000
FFFFE000
FFFFFC00
3FFFFF80
0FFFFFF0
03FFFFFC
007FFFFF
001FFFFF
0003FFFF
0000FFFF
00003FFF
000007FF
000001FF
0000003F
0000000F
00000003
ENDCHAR
STARTCHAR equal
ENCODING 61
SWIDTH 572 0
DWIDTH 43 0
BBX 33 25 5 11
BITMAP
FFFFFFFF80
FFFFFFFF80
FFFFFFFF80
FFFFFFFF80
FFFFFFFF80
FFFFFFFF80
FFFFFFFF80
FFFFFFFF80
FFFFFFFF80
0000000000
0000000000
0000000000
0000000000
0000000000
0000000000
0000000000
FFFFFFFF80
FFFFFFFF80
FFFFFFFF80
FFFFFFFF80
FFFFFFFF80
FFFFFFFF80
FFFFFFFF80
FFFFFFFF80
FFFFFFFF80
ENDCHAR
STARTCHAR greater
ENCODING 62
SWIDTH 516 0
DWIDTH 39 0
BBX 32 35 4 5
BITMAP
C0000000
F0000000
FC000000
FF800000
FFE00000
FFFC0000
FFFF0000
FFFFC000
FFFFF800
FFFFFE00
3FFFFFC0
07FFFFF0
01FFFFFE
003FFFFF
0007FFFF
0000FFFF
00001FFF
000007FF
00001FFF
0000FFFF
0007FFFF
003FFFFF
01FFFFFC
0FFFFFF0
7FFFFFC0
FFFFFE00
FFFFF800
FFFFC000
FFFF0000
FFFC0000
FFE00000
FF800000
FC000000
F0000000
C0000000
ENDCHAR
STARTCHAR question
ENCODING 63
SWIDTH 497 0
DWIDTH 37 0
BBX 33 54 1 0
BITMAP
000FFC0000
007FFFC000
01FFFFF000
07FFFFF800
0FFFFFFC00
1FFFFFFE00
1FFFFFFF00
3FFFFFFF00
3FFFFFFF80
7FFC0FFF80
7FF807FF80
7FF003FF80
7FE001FF80
FFE001FF80
FFE001FF80
000001FF80
000001FF80
000003FF80
000003FF80
000007FF00
00000FFF00
00001FFE00
00003FFC00
00007FFC00
0000FFF800
0001FFF000
0003FFE000
0003FFC000
0007FF0000
0007FE0000
000FFE0000
000FFC0000
000FFC0000
000FF80000
000FF80000
000FF80000
000FF80000
0000000000
0000000000
0000000000
0000000000
0000000000
0000000000
0003E00000
000FF80000
001FF80000
001FFC0000
001FFC0000
003FFC0000
001FFC0000
001FFC0000
001FFC0000
000FF80000
0003E00000
ENDCHAR
STARTCHAR at
ENCODING 64
SWIDTH 895 0
DWIDTH 67 0
BBX 61 69 3 -17
BITMAP
0000001FFE000000
000003FFFFE00000
00000FFFFFF80000
00003FFFFFFE0000
0000FFFFFFFF8000
0003FFFFFFFFC000
0007FFE003FFF000
000FFF00007FF800
001FFC00000FFC00
003FF0000007FE00
007FC0000001FE00
00FF80000000FF00
01FF000000007F80
01FE000000003F80
03FC000000003FC0
07FC000000001FC0
07F80003F8000FE0
0FF0001FFF000FE0
0FF0007FFFC00FE0
1FE000FFFFE007F0
1FE001FFFFF007F0
1FC003FFFFF007F0
3FC007FE07F003F0
3F800FF807F003F0
3F800FF00FF003F8
7F801FE00FF003F8
7F801FE00FF003F8
7F003FC00FF003F8
7F003FC00FF003F8
7F003FC00FF003F8
FF007F800FE003F8
FF007F800FE003F8
FE007F800FE003F8
FE00FF800FE003F8
FE00FF000FE003F8
FE00FF000FE003F8
FE00FF001FE003F8
FE00FF001FE003F0
FE00FF001FE003F0
FE00FF001FE003F0
FE00FF001FE007F0
FE00FF001FC007E0
FE00FF003FC007E0
FF00FF803FC00FE0
7F00FF807FC01FC0
7F007FC0FFE01FC0
7F007FE1FFE03F80
7F003FFFFFF8FF00
7F803FFFFFFFFF00
3F801FFFE7FFFE00
3F800FFFC3FFF800
3FC007FF01FFF000
1FC001FC007F8000
1FE0000000000000
1FF0000000000000
0FF0000000000000
07F8000000000000
07FC000000000000
03FE000000000000
01FF800000000000
01FFC00000400000
00FFF80001C00000
003FFF001FC00000
001FFFFFFFE00000
000FFFFFFFE00000
0003FFFFFFE00000
0000FFFFFFC00000
00001FFFFF000000
000001FFE0000000
ENDCHAR
STARTCHAR A
ENCODING 65
SWIDTH 672 0
DWIDTH 50 0
BBX 50 53 0 0
BITMAP
00000FFC000000
00000FFE000000
00001FFE000000
00001FFF000000
00003FFF000000
00003FFF000000
00003FFF800000
00007FFF800000
00007FFF800000
00007FFFC00000
0000FFFFC00000
0000FFFFE00000
0001FFFFE00000
0001FFFFE00000
0001FFBFF00000
0003FFBFF00000
0003FF3FF00000
0003FF1FF80000
0007FE1FF80000
0007FE1FFC0000
000FFE0FFC0000
000FFC0FFC0000
000FFC0FFE0000
001FFC07FE0000
001FF807FF0000
001FF807FF0000
003FF803FF0000
003FF003FF8000
007FF003FF8000
007FF001FF8000
007FE001FFC000
00FFE001FFC000
00FFE000FFE000
00FFFFFFFFE000
01FFFFFFFFE000
01FFFFFFFFF000
03FFFFFFFFF000
03FFFFFFFFF000
03FFFFFFFFF800
07FFFFFFFFF800
07FFFFFFFFFC00
07FFFFFFFFFC00
0FFE00001FFC00
0FFE00001FFE00
1FFE00000FFE00
1FFC00000FFE00
1FFC00000FFF00
3FFC000007FF00
3FF8000007FF80
3FF8000007FF80
7FF8000003FF80
7FF0000003FFC0
FFF0000003FFC0
ENDCHAR
STARTCHAR B
ENCODING 66
SWIDTH 638 0
DWIDTH 48 0
BBX 39 53 5 0
BITMAP
FFFFFF8000
FFFFFFF800
FFFFFFFE00
FFFFFFFF80
FFFFFFFFC0
FFFFFFFFE0
FFFFFFFFF0
FFFFFFFFF8
FFFFFFFFF8
FFE001FFF8
FFE0007FFC
FFE0003FFC
FFE0001FFC
FFE0001FFC
FFE0001FFC
FFE0001FFC
FFE0001FFC
FFE0001FFC
FFE0001FFC
FFE0003FF8
FFE0007FF8
FFE001FFF0
FFFFFFFFE0
FFFFFFFFC0
FFFFFFFF80
FFFFFFFE00
FFFFFFFF80
FFFFFFFFE0
FFFFFFFFF0
FFFFFFFFF8
FFE000FFFC
FFE0003FFC
FFE0001FFE
FFE0000FFE
FFE0000FFE
FFE0000FFE
FFE0000FFE
FFE0000FFE
FFE0000FFE
FFE0000FFE
FFE0000FFE
FFE0001FFE
FFE0003FFE
FFE000FFFC
FFFFFFFFFC
FFFFFFFFFC
FFFFFFFFF8
FFFFFFFFF0
FFFFFFFFE0
FFFFFFFFC0
FFFFFFFF00
FFFFFFFC00
FFFFFFC000
ENDCHAR
STARTCHAR C
ENCODING 67
SWIDTH 654 0
DWIDTH 49 0
BBX 44 55 3 -1
BITMAP
00007FF00000
0003FFFE0000
000FFFFFC000
003FFFFFE000
007FFFFFF800
00FFFFFFFC00
01FFFFFFFE00
03FFFFFFFF00
07FFFFFFFF00
0FFFE03FFF80
0FFF8007FF80
1FFE0003FFC0
1FFC0001FFC0
3FFC0001FFE0
3FF80000FFE0
3FF80000FFE0
7FF00000FFE0
7FF000007FF0
7FF000007FF0
7FF000000000
FFF000000000
FFE000000000
FFE000000000
FFE000000000
FFE000000000
FFE000000000
FFE000000000
FFE000000000
FFE000000000
FFE000000000
FFE000000000
FFE000000000
FFE000000000
FFE000000000
FFF000000000
7FF000000000
7FF000007FF0
7FF00000FFF0
7FF00000FFE0
3FF80000FFE0
3FF80000FFE0
3FFC0001FFE0
1FFC0001FFC0
1FFE0003FFC0
0FFF0007FFC0
0FFFE03FFF80
07FFFFFFFF00
03FFFFFFFF00
03FFFFFFFE00
01FFFFFFFC00
00FFFFFFF800
003FFFFFE000
001FFFFFC000
0003FFFE0000
00007FF00000
ENDCHAR
STARTCHAR D
ENCODING 68
SWIDTH 649 0
DWIDTH 49 0
BBX 41 53 5 0
BITMAP
FFFFFC000000
FFFFFF800000
FFFFFFF00000
FFFFFFF80000
FFFFFFFE0000
FFFFFFFF0000
FFFFFFFF8000
FFFFFFFFC000
FFFFFFFFE000
FFE00FFFF000
FFE001FFF000
FFE000FFF800
FFE0007FFC00
FFE0003FFC00
FFE0001FFE00
FFE0000FFE00
FFE0000FFE00
FFE0000FFF00
FFE00007FF00
FFE00007FF00
FFE00007FF00
FFE00007FF00
FFE00007FF00
FFE00007FF00
FFE00007FF80
FFE00007FF80
FFE00007FF80
FFE00007FF80
FFE00007FF80
FFE00007FF00
FFE00007FF00
FFE00007FF00
FFE00007FF00
FFE00007FF00
FFE00007FF00
FFE0000FFF00
FFE0000FFE00
FFE0001FFE00
FFE0001FFE00
FFE0003FFC00
FFE0007FFC00
FFE000FFF800
FFE001FFF000
FFE00FFFF000
FFFFFFFFE000
FFFFFFFFC000
FFFFFFFF8000
FFFFFFFF0000
FFFFFFFE0000
FFFFFFF80000
FFFFFFE00000
FFFFFF800000
FFFFF8000000
ENDCHAR
STARTCHAR E
ENCODING 69
SWIDTH 562 0
DWIDTH 42 0
BBX 36 53 5 0
BITMAP
FFFFFFFFE0
FFFFFFFFE0
FFFFFFFFE0
FFFFFFFFE0
FFFFFFFFE0
FFFFFFFFE0
FFFFFFFFE0
FFFFFFFFE0
FFFFFFFFE0
FFE0000000
FFE0000000
FFE0000000
FFE0000000
FFE0000000
FFE0000000
FFE0000000
FFE0000000
FFE0000000
FFE0000000
FFE0000000
FFE0000000
FFFFFFFF00
FFFFFFFF00
FFFFFFFF00
FFFFFFFF00
FFFFFFFF00
FFFFFFFF00
FFFFFFFF00
FFFFFFFF00
FFFFFFFF00
FFE0000000
FFE0000000
FFE0000000
FFE0000000
FFE0000000
FFE0000000
FFE0000000
FFE0000000
FFE0000000
FFE0000000
FFE0000000
FFE0000000
FFE0000000
FFE0000000
FFFFFFFFF0
FFFFFFFFF0
FFFFFFFFF0
FFFFFFFFF0
FFFFFFFFF0
FFFFFFFFF0
FFFFFFFFF0
FFFFFFFFF0
FFFFFFFFF0
ENDCHAR
STARTCHAR F
ENCODING 70
SWIDTH 547 0
DWIDTH 41 0
BBX 34 53 5 0
BITMAP
FFFFFFFFC0
FFFFFFFFC0
FFFFFFFFC0
FFFFFFFFC0
FFFFFFFFC0
FFFFFFFFC0
FFFFFFFFC0
FFFFFFFFC0
FFFFFFFFC0
FFE0000000
FFE0000000
FFE0000000
FFE0000000
FFE0000000
FFE0000000
FFE0000000
FFE0000000
FFE0000000
FFE0000000
FFE0000000
FFE0000000
FFE0000000
FFE0000000
FFFFFFFF00
FFFFFFFF00
FFFFFFFF00
FFFFFFFF00
FFFFFFFF00
FFFFFFFF00
FFFFFFFF00
FFFFFFFF00
FFFFFFFF00
FFE0000000
FFE0000000
FFE0000000
FFE0000000
FFE0000000
FFE0000000
FFE0000000
FFE0000000
FFE0000000
FFE0000000
FFE0000000
FFE0000000
FFE0000000
FFE0000000
FFE0000000
FFE0000000
FFE0000000
FFE0000000
FFE0000000
FFE0000000
FFE0000000
ENDCHAR
STARTCHAR G
ENCODING 71
SWIDTH 681 0
DWIDTH 51 0
BBX 44 55 3 -1
BITMAP
00003FF80000
0003FFFF0000
000FFFFFE000
003FFFFFF000
007FFFFFFC00
00FFFFFFFE00
01FFFFFFFF00
03FFFFFFFF00
07FFFFFFFF80
0FFFF01FFFC0
0FFF8007FFC0
1FFF0003FFC0
1FFE0001FFE0
3FFC0000FFE0
3FFC0000FFE0
3FF800007FF0
7FF800007FF0
7FF800007FF0
7FF000000000
7FF000000000
7FF000000000
7FF000000000
FFF000000000
FFF000000000
FFF000000000
FFF000000000
FFF001FFFFF0
FFF001FFFFF0
FFF001FFFFF0
FFF001FFFFF0
FFF001FFFFF0
FFF001FFFFF0
7FF001FFFFF0
7FF001FFFFF0
7FF001FFFFF0
7FF000007FF0
7FF000007FF0
7FF800007FF0
3FF800007FF0
3FF800007FF0
3FFC00007FF0
1FFE00007FF0
1FFE00007FF0
1FFF00007FF0
0FFFC000FFF0
07FFF007FFF0
07FFFFFFFFF0
03FFFFFFFFF0
01FFFFFFFFE0
00FFFFFFFFC0
007FFFFFFF80
001FFFFFFE00
000FFFFFF800
0001FFFFC000
00003FFC0000
ENDCHAR
STARTCHAR H
ENCODING 72
SWIDTH 706 0
DWIDTH 53 0
BBX 43 53 5 0
BITMAP
FFE00000FFE0
FFE00000FFE0
FFE00000FFE0
FFE00000FFE0
FFE00000FFE0
FFE00000FFE0
FFE00000FFE0
FFE00000FFE0
FFE00000FFE0
FFE00000FFE0
FFE00000FFE0
FFE00000FFE0
FFE00000FFE0
FFE00000FFE0
FFE00000FFE0
FFE00000FFE0
FFE00000FFE0
FFE00000FFE0
FFE00000FFE0
FFE00000FFE0
FFE00000FFE0
FFFFFFFFFFE0
FFFFFFFFFFE0
FFFFFFFFFFE0
FFFFFFFFFFE0
FFFFFFFFFFE0
FFFFFFFFFFE0
FFFFFFFFFFE0
FFFFFFFFFFE0
FFFFFFFFFFE0
FFE00000FFE0
FFE00000FFE0
FFE00000FFE0
FFE00000FFE0
FFE00000FFE0
FFE00000FFE0
FFE00000FFE0
FFE00000FFE0
FFE00000FFE0
FFE00000FFE0
FFE00000FFE0
FFE00000FFE0
FFE00000FFE0
FFE00000FFE0
FFE00000FFE0
FFE00000FFE0
FFE00000FFE0
FFE00000FFE0
FFE00000FFE0
FFE00000FFE0
FFE00000FFE0
FFE00000FFE0
FFE00000FFE0
ENDCHAR
STARTCHAR I
ENCODING 73
SWIDTH 291 0
DWIDTH 22 0
BBX 11 53 5 0
BITMAP
FFE0
FFE0
FFE0
FFE0
FFE0
FFE0
FFE0
FFE0
FFE0
FFE0
FFE0
FFE0
FFE0
FFE0
FFE0
FFE0
FFE0
FFE0
FFE0
FFE0
FFE0
FFE0
FFE0
FFE0
FFE0
FFE0
FFE0
FFE0
FFE0
FFE0
FFE0
FFE0
FFE0
FFE0
FFE0
FFE0
FFE0
FFE0
FFE0
FFE0
FFE0
FFE0
FFE0
FFE0
FFE0
FFE0
FFE0
FFE0
FFE0
FFE0
FFE0
FFE0
FFE0
ENDCHAR
STARTCHAR J
ENCODING 74
SWIDTH 558 0
DWIDTH 42 0
BBX 35 54 2 -1
BITMAP
000000FFE0
000000FFE0
000000FFE0
000000FFE0
000000FFE0
000000FFE0
000000FFE0
000000FFE0
000000FFE0
000000FFE0
000000FFE0
000000FFE0
000000FFE0
000000FFE0
000000FFE0
000000FFE0
000000FFE0
000000FFE0
000000FFE0
000000FFE0
000000FFE0
000000FFE0
000000FFE0
000000FFE0
000000FFE0
000000FFE0
000000FFE0
000000FFE0
000000FFE0
000000FFE0
000000FFE0
000000FFE0
000000FFE0
000000FFE0
000000FFE0
000000FFE0
000000FFE0
FFE000FFE0
FFE000FFE0
FFE000FFE0
FFE000FFE0
FFE001FFE0
FFF001FFC0
FFF803FFC0
7FFC0FFFC0
7FFFFFFF80
3FFFFFFF80
3FFFFFFF00
1FFFFFFE00
0FFFFFFC00
07FFFFF800
01FFFFE000
007FFF8000
000FFC0000
ENDCHAR
STARTCHAR K
ENCODING 75
SWIDTH 634 0
DWIDTH 48 0
BBX 43 53 5 0
BITMAP
FFE00007FFE0
FFE0000FFFC0
FFE0001FFF80
FFE0001FFF00
FFE0003FFE00
FFE0007FFC00
FFE000FFFC00
FFE000FFF800
FFE001FFF000
FFE003FFE000
FFE007FFC000
FFE00FFFC000
FFE00FFF8000
FFE01FFF0000
FFE03FFE0000
FFE07FFC0000
FFE0FFFC0000
FFE0FFF80000
FFE1FFF00000
FFE3FFE00000
FFE3FFC00000
FFE7FFC00000
FFEFFF800000
FFFFFF000000
FFFFFF800000
FFFFFF800000
FFFFFFC00000
FFFFFFE00000
FFFFFFE00000
FFFFFFF00000
FFFFFFF80000
FFFFFFF80000
FFFF7FFC0000
FFFE3FFE0000
FFFC3FFE0000
FFF81FFF0000
FFF00FFF8000
FFE00FFF8000
FFE007FFC000
FFE003FFC000
FFE003FFE000
FFE001FFF000
FFE000FFF000
FFE000FFF800
FFE0007FFC00
FFE0003FFC00
FFE0003FFE00
FFE0001FFF00
FFE0001FFF00
FFE0000FFF80
FFE00007FFC0
FFE00007FFC0
FFE00003FFE0
ENDCHAR
STARTCHAR L
ENCODING 76
SWIDTH 541 0
DWIDTH 41 0
BBX 34 53 5 0
BITMAP
FFE0000000
FFE0000000
FFE0000000
FFE0000000
FFE0000000
FFE0000000
FFE0000000
FFE0000000
FFE0000000
FFE0000000
FFE0000000
FFE0000000
FFE0000000
FFE0000000
FFE0000000
FFE0000000
FFE0000000
FFE0000000
FFE0000000
FFE0000000
FFE0000000
FFE0000000
FFE0000000
FFE0000000
FFE0000000
FFE0000000
FFE0000000
FFE0000000
FFE0000000
FFE0000000
FFE0000000
FFE0000000
FFE0000000
FFE0000000
FFE0000000
FFE0000000
FFE0000000
FFE0000000
FFE0000000
FFE0000000
FFE0000000
FFE0000000
FFE0000000
FFE0000000
FFFFFFFFC0
FFFFFFFFC0
FFFFFFFFC0
FFFFFFFFC0
FFFFFFFFC0
FFFFFFFFC0
FFFFFFFFC0
FFFFFFFFC0
FFFFFFFFC0
ENDCHAR
STARTCHAR M
ENCODING 77
SWIDTH 875 0
DWIDTH 66 0
BBX 56 53 5 0
BITMAP
FFFC0000007FFF
FFFE0000007FFF
FFFE0000007FFF
FFFE000000FFFF
FFFF000000FFFF
FFFF000001FFFF
FFFF000001FFFF
FFFF800001FFFF
FFFF800003FFFF
FFFF800003FFFF
FFFFC00003FFFF
FFFFC00007FFFF
FFFFE00007FFFF
FFFFE00007FFFF
FFFFE0000FFFFF
FFFFF0000FFBFF
FFDFF0000FFBFF
FFDFF0001FF3FF
FFDFF8001FF3FF
FFCFF8001FF3FF
FFCFF8003FE3FF
FFC7FC003FE3FF
FFC7FC007FE3FF
FFC7FC007FC7FF
FFC3FE007FC7FF
FFC3FE00FFC7FF
FFC3FF00FF87FF
FFC1FF00FF87FF
FFC1FF01FF07FF
FFC1FF81FF07FF
FFC0FF81FF07FF
FFC0FF83FE07FF
FFC07FC3FE07FF
FFE07FC3FE07FF
FFE07FC7FC07FF
FFE03FE7FC07FF
FFE03FEFFC07FF
FFE03FEFF807FF
FFE01FFFF807FF
FFE01FFFF007FF
FFE01FFFF007FF
FFE00FFFF007FF
FFE00FFFE007FF
FFE007FFE007FF
FFE007FFE007FF
FFE007FFC007FF
FFE003FFC007FF
FFE003FFC007FF
FFE003FF8007FF
FFE001FF8007FF
FFE001FF0007FF
FFE001FF0007FF
FFE000FF0007FF
ENDCHAR
STARTCHAR N
ENCODING 78
SWIDTH 706 0
DWIDTH 53 0
BBX 43 53 5 0
BITMAP
FFE00000FFE0
FFF00000FFE0
FFF00000FFE0
FFF80000FFE0
FFFC0000FFE0
FFFC0000FFE0
FFFE0000FFE0
FFFE0000FFE0
FFFF0000FFE0
FFFF8000FFE0
FFFF8000FFE0
FFFFC000FFE0
FFFFC000FFE0
FFFFE000FFE0
FFFFF000FFE0
FFFFF000FFE0
FFFFF800FFE0
FFFFFC00FFE0
FFFFFC00FFE0
FFEFFE00FFE0
FFEFFE00FFE0
FFE7FF00FFE0
FFE7FF80FFE0
FFE3FF80FFE0
FFE1FFC0FFE0
FFE1FFC0FFE0
FFE0FFE0FFE0
FFE07FF0FFE0
FFE07FF0FFE0
FFE03FF8FFE0
FFE03FF8FFE0
FFE01FFCFFE0
FFE00FFEFFE0
FFE00FFEFFE0
FFE007FFFFE0
FFE007FFFFE0
FFE003FFFFE0
FFE001FFFFE0
FFE001FFFFE0
FFE000FFFFE0
FFE000FFFFE0
FFE0007FFFE0
FFE0003FFFE0
FFE0003FFFE0
FFE0001FFFE0
FFE0000FFFE0
FFE0000FFFE0
FFE00007FFE0
FFE00007FFE0
FFE00003FFE0
FFE00001FFE0
FFE00001FFE0
FFE00000FFE0
ENDCHAR
STARTCHAR O
ENCODING 79
SWIDTH 690 0
DWIDTH 52 0
BBX 46 55 3 -1
BITMAP
00003FF00000
0001FFFE0000
000FFFFFC000
001FFFFFE000
007FFFFFF800
00FFFFFFFC00
01FFFFFFFE00
03FFFFFFFF00
07FFFFFFFF00
07FFE03FFF80
0FFF8007FFC0
0FFF0003FFC0
1FFE0001FFE0
1FFC0000FFE0
3FFC0000FFF0
3FF800007FF0
3FF800007FF0
7FF000007FF8
7FF000003FF8
7FF000003FF8
7FF000003FF8
7FF000003FF8
FFF000003FF8
FFE000003FFC
FFE000003FFC
FFE000003FFC
FFE000001FFC
FFE000001FFC
FFE000001FFC
FFE000003FFC
FFE000003FFC
FFE000003FFC
FFF000003FFC
7FF000003FF8
7FF000003FF8
7FF000003FF8
7FF000003FF8
7FF800007FF8
3FF800007FF0
3FF800007FF0
3FFC0000FFF0
1FFC0000FFE0
1FFE0001FFE0
0FFF0003FFC0
0FFF8007FFC0
07FFF03FFF80
07FFFFFFFF80
03FFFFFFFF00
01FFFFFFFE00
00FFFFFFFC00
007FFFFFF800
001FFFFFE000
000FFFFFC000
0001FFFE0000
00003FF00000
ENDCHAR
STARTCHAR P
ENCODING 80
SWIDTH 645 0
DWIDTH 48 0
BBX 40 53 5 0
BITMAP
FFFFFFC000
FFFFFFF800
FFFFFFFF00
FFFFFFFF80
FFFFFFFFE0
FFFFFFFFF0
FFFFFFFFF8
FFFFFFFFF8
FFFFFFFFFC
FFE000FFFE
FFE0003FFE
FFE0001FFE
FFE0000FFF
FFE0000FFF
FFE00007FF
FFE00007FF
FFE00007FF
FFE00007FF
FFE00007FF
FFE00007FF
FFE00007FF
FFE0000FFF
FFE0000FFF
FFE0003FFE
FFE000FFFE
FFFFFFFFFC
FFFFFFFFFC
FFFFFFFFF8
FFFFFFFFF0
FFFFFFFFE0
FFFFFFFFC0
FFFFFFFF00
FFFFFFFC00
FFFFFFC000
FFE0000000
FFE0000000
FFE0000000
FFE0000000
FFE0000000
FFE0000000
FFE0000000
FFE0000000
FFE0000000
FFE0000000
FFE0000000
FFE0000000
FFE0000000
FFE0000000
FFE0000000
FFE0000000
FFE0000000
FFE0000000
FFE0000000
ENDCHAR
STARTCHAR Q
ENCODING 81
SWIDTH 690 0
DWIDTH 52 0
BBX 46 64 3 -10
BITMAP
00003FF00000
0003FFFE0000
000FFFFF8000
001FFFFFE000
007FFFFFF800
00FFFFFFFC00
01FFFFFFFE00
03FFFFFFFF00
07FFFFFFFF00
07FFE03FFF80
0FFF800FFFC0
1FFF0003FFC0
1FFE0001FFE0
1FFC0000FFE0
3FFC0000FFF0
3FF800007FF0
7FF800007FF0
7FF000007FF8
7FF000003FF8
7FF000003FF8
7FF000003FF8
FFF000003FF8
FFE000003FF8
FFE000003FF8
FFE000003FFC
FFE000003FFC
FFE000003FFC
FFE000003FFC
FFE000003FFC
FFE000003FFC
FFE000003FFC
FFE000003FFC
FFE000003FF8
FFF000003FF8
7FF000003FF8
7FF000003FF8
7FF000003FF8
7FF000007FF8
7FF800007FF0
3FF800007FF0
3FFC0000FFF0
1FFC0000FFE0
1FFE0001FFE0
1FFF0003FFC0
0FFF8007FFC0
07FFF03FFF80
07FFFFFFFF00
03FFFFFFFF00
01FFFFFFFE00
00FFFFFFFC00
007FFFFFF800
001FFFFFFC00
000FFFFFFE00
0003FFFFFF00
00003FFFFF80
0000000FFFE0
00000007FFF0
00000001FFF8
00000000FFF0
000000007FE0
000000003FC0
000000000F80
000000000700
000000000200
ENDCHAR
STARTCHAR R
ENCODING 82
SWIDTH 638 0
DWIDTH 48 0
BBX 41 53 5 0
BITMAP
FFFFFFC00000
FFFFFFF80000
FFFFFFFF0000
FFFFFFFF8000
FFFFFFFFE000
FFFFFFFFF000
FFFFFFFFF000
FFFFFFFFF800
FFFFFFFFFC00
FFE001FFFC00
FFE0007FFC00
FFE0003FFE00
FFE0001FFE00
FFE0000FFE00
FFE0000FFE00
FFE0000FFE00
FFE0000FFE00
FFE0000FFE00
FFE0000FFE00
FFE0000FFE00
FFE0000FFE00
FFE0001FFE00
FFE0003FFC00
FFE0007FFC00
FFE001FFF800
FFFFFFFFF800
FFFFFFFFF000
FFFFFFFFE000
FFFFFFFFC000
FFFFFFFF8000
FFFFFFFE0000
FFFFFFFC0000
FFFFFFFE0000
FFFFFFFE0000
FFE00FFF0000
FFE00FFF0000
FFE007FF8000
FFE007FF8000
FFE003FFC000
FFE003FFC000
FFE001FFE000
FFE000FFE000
FFE000FFF000
FFE0007FF000
FFE0007FF800
FFE0003FFC00
FFE0003FFC00
FFE0001FFE00
FFE0001FFE00
FFE0000FFF00
FFE0000FFF00
FFE00007FF80
FFE00007FF80
ENDCHAR
STARTCHAR S
ENCODING 83
SWIDTH 614 0
DWIDTH 46 0
BBX 41 55 2 -1
BITMAP
0000FFE00000
0007FFFE0000
003FFFFF8000
007FFFFFE000
01FFFFFFF000
03FFFFFFF800
07FFFFFFFC00
0FFFFFFFFE00
0FFFFFFFFE00
1FFFC07FFF00
1FFF001FFF00
1FFC0007FF80
3FFC0007FF80
3FF80003FF80
3FF80003FF80
3FF80003FF80
3FF80003FF80
3FFC00000000
1FFE00000000
1FFF00000000
1FFFC0000000
0FFFF0000000
0FFFFE000000
07FFFFC00000
03FFFFF80000
01FFFFFE0000
00FFFFFF8000
003FFFFFC000
000FFFFFF000
0003FFFFF800
0000FFFFFC00
00001FFFFE00
000003FFFE00
0000007FFF00
0000001FFF00
0000000FFF80
00000007FF80
FFF00003FF80
7FF00003FF80
7FF00003FF80
7FF00003FF80
7FF00003FF80
7FF80003FF80
3FFC0007FF80
3FFE000FFF80
3FFFC03FFF00
1FFFFFFFFF00
0FFFFFFFFE00
07FFFFFFFE00
03FFFFFFFC00
01FFFFFFF800
00FFFFFFE000
003FFFFFC000
0007FFFF0000
00007FF00000
ENDCHAR
STARTCHAR T
ENCODING 84
SWIDTH 618 0
DWIDTH 46 0
BBX 44 53 1 0
BITMAP
FFFFFFFFFFF0
FFFFFFFFFFF0
FFFFFFFFFFF0
FFFFFFFFFFF0
FFFFFFFFFFF0
FFFFFFFFFFF0
FFFFFFFFFFF0
FFFFFFFFFFF0
FFFFFFFFFFF0
00007FF00000
00007FF00000
00007FF00000
00007FF00000
00007FF00000
00007FF00000
00007FF00000
00007FF00000
00007FF00000
00007FF00000
00007FF00000
00007FF00000
00007FF00000
00007FF00000
00007FF00000
00007FF00000
00007FF00000
00007FF00000
00007FF00000
00007FF00000
00007FF00000
00007FF00000
00007FF00000
00007FF00000
00007FF00000
00007FF00000
00007FF00000
00007FF00000
00007FF00000
00007FF00000
00007FF00000
00007FF00000
00007FF00000
00007FF00000
00007FF00000
00007FF00000
00007FF00000
00007FF00000
00007FF00000
00007FF00000
00007FF00000
00007FF00000
00007FF00000
00007FF00000
ENDCHAR
STARTCHAR U
ENCODING 85
SWIDTH 658 0
DWIDTH 49 0
BBX 41 54 4 -1
BITMAP
FFE00003FF80
FFE00003FF80
FFE00003FF80
FFE00003FF80
FFE00003FF80
FFE00003FF80
FFE00003FF80
FFE00003FF80
FFE00003FF80
FFE00003FF80
FFE00003FF80
FFE00003FF80
FFE00003FF80
FFE00003FF80
FFE00003FF80
FFE00003FF80
FFE00003FF80
FFE00003FF80
FFE00003FF80
FFE00003FF80
FFE00003FF80
FFE00003FF80
FFE00003FF80
FFE00003FF80
FFE00003FF80
FFE00003FF80
FFE00003FF80
FFE00003FF80
FFE00003FF80
FFE00003FF80
FFE00003FF80
FFE00003FF80
FFE00003FF80
FFE00003FF80
FFE00003FF80
FFE00003FF80
FFE00003FF80
FFE00003FF80
FFE00003FF80
FFF00007FF80
7FF00007FF00
7FF8000FFF00
7FF8000FFF00
3FFE003FFE00
3FFF80FFFE00
1FFFFFFFFC00
1FFFFFFFFC00
0FFFFFFFF800
07FFFFFFF000
03FFFFFFE000
01FFFFFF8000
007FFFFF0000
001FFFFC0000
0001FFC00000
ENDCHAR
STARTCHAR V
ENCODING 86
SWIDTH 653 0
DWIDTH 49 0
BBX 49 53 0 0
BITMAP
FFF800000FFF80
7FF800000FFF00
7FF800000FFF00
7FF800001FFF00
3FFC00001FFE00
3FFC00001FFE00
3FFC00001FFC00
1FFE00003FFC00
1FFE00003FFC00
0FFE00003FF800
0FFF00007FF800
0FFF00007FF800
07FF00007FF000
07FF0000FFF000
07FF8000FFF000
03FF8000FFE000
03FF8000FFE000
03FFC001FFE000
01FFC001FFC000
01FFC001FFC000
01FFE003FFC000
00FFE003FF8000
00FFE003FF8000
00FFF007FF8000
007FF007FF0000
007FF007FF0000
007FF00FFE0000
003FF80FFE0000
003FF80FFE0000
001FF80FFC0000
001FFC1FFC0000
001FFC1FFC0000
000FFC1FF80000
000FFE3FF80000
000FFE3FF80000
0007FE3FF00000
0007FE7FF00000
0007FF7FF00000
0003FF7FE00000
0003FF7FE00000
0003FFFFE00000
0001FFFFC00000
0001FFFFC00000
0001FFFFC00000
0000FFFF800000
0000FFFF800000
0000FFFF000000
00007FFF000000
00007FFF000000
00007FFE000000
00003FFE000000
00003FFE000000
00001FFC000000
ENDCHAR
STARTCHAR W
ENCODING 87
SWIDTH 874 0
DWIDTH 66 0
BBX 64 53 1 0
BITMAP
FFF0001FF80007FF
7FF0001FF8000FFE
7FF0001FF8000FFE
7FF0001FFC000FFE
3FF0003FFC000FFE
3FF8003FFC000FFC
3FF8003FFC001FFC
3FF8003FFC001FFC
3FF8007FFE001FFC
1FF8007FFE001FFC
1FF8007FFE001FF8
1FFC007FFE003FF8
1FFC007FFF003FF8
0FFC00FFFF003FF8
0FFC00FFFF003FF0
0FFC00FFFF003FF0
0FFE00FFFF803FF0
0FFE01FFFF807FF0
07FE01FFFF807FF0
07FE01FF7F807FE0
07FE01FE7FC07FE0
07FF03FE7FC07FE0
03FF03FE7FC0FFE0
03FF03FE3FC0FFC0
03FF03FC3FC0FFC0
03FF07FC3FE0FFC0
03FF87FC3FE0FFC0
01FF87FC3FE1FFC0
01FF87F81FE1FF80
01FF87F81FF1FF80
01FF8FF81FF1FF80
00FF8FF81FF1FF80
00FFCFF00FF3FF00
00FFCFF00FFBFF00
00FFDFF00FFBFF00
00FFDFF00FFBFF00
007FDFE007FBFF00
007FFFE007FBFE00
007FFFE007FFFE00
007FFFE007FFFE00
003FFFC003FFFE00
003FFFC003FFFC00
003FFFC003FFFC00
003FFFC003FFFC00
003FFF8001FFFC00
001FFF8001FFFC00
001FFF8001FFF800
001FFF8001FFF800
001FFF8000FFF800
000FFF0000FFF800
000FFF0000FFF000
000FFF0000FFF000
000FFF00007FF000
ENDCHAR
STARTCHAR X
ENCODING 88
SWIDTH 635 0
DWIDTH 48 0
BBX 46 53 1 0
BITMAP
FFF800007FF8
7FFC0000FFF8
3FFC0001FFF0
3FFE0001FFE0
1FFE0003FFE0
1FFF0003FFC0
0FFF0007FFC0
07FF8007FF80
07FFC00FFF00
03FFC00FFF00
03FFE01FFE00
01FFE01FFE00
00FFF03FFC00
00FFF07FFC00
007FF87FF800
007FF8FFF000
003FFCFFF000
001FFDFFE000
001FFFFFE000
000FFFFFC000
000FFFFF8000
0007FFFF8000
0007FFFF0000
0003FFFF0000
0001FFFE0000
0001FFFC0000
0000FFFC0000
0001FFFE0000
0003FFFE0000
0003FFFF0000
0007FFFF0000
0007FFFF8000
000FFFFFC000
001FFFFFC000
001FFFFFE000
003FFDFFE000
003FFCFFF000
007FF87FF800
00FFF87FF800
00FFF03FFC00
01FFF03FFC00
01FFE01FFE00
03FFC01FFF00
07FFC00FFF00
07FF800FFF80
0FFF8007FF80
0FFF0007FFC0
1FFF0003FFE0
3FFE0001FFE0
3FFE0001FFF0
7FFC0000FFF0
7FF80000FFF8
FFF800007FFC
ENDCHAR
STARTCHAR Y
ENCODING 89
SWIDTH 618 0
DWIDTH 46 0
BBX 46 53 0 0
BITMAP
FFF000003FFC
7FF800003FF8
7FF800007FF8
3FFC00007FF0
3FFC0000FFF0
1FFE0000FFE0
1FFE0001FFE0
0FFF0001FFC0
0FFF0003FFC0
07FF8003FF80
03FF8007FF80
03FF8007FF00
01FFC00FFF00
01FFC00FFE00
00FFE01FFE00
00FFE01FFC00
007FF01FFC00
007FF03FF800
003FF83FF800
003FF87FF000
001FFC7FF000
001FFCFFE000
000FFEFFE000
000FFFFFC000
0007FFFFC000
0007FFFF8000
0003FFFF8000
0003FFFF0000
0001FFFE0000
0001FFFE0000
0000FFFC0000
0000FFFC0000
00007FF80000
00007FF80000
00003FF80000
00003FF80000
00003FF80000
00003FF80000
00003FF80000
00003FF80000
00003FF80000
00003FF80000
00003FF80000
00003FF80000
00003FF80000
00003FF80000
00003FF80000
00003FF80000
00003FF80000
00003FF80000
00003FF80000
00003FF80000
00003FF80000
ENDCHAR
STARTCHAR Z
ENCODING 90
SWIDTH 605 0
DWIDTH 45 0
BBX 40 53 3 0
BITMAP
FFFFFFFFFF
FFFFFFFFFF
FFFFFFFFFF
FFFFFFFFFF
FFFFFFFFFF
FFFFFFFFFF
FFFFFFFFFF
FFFFFFFFFE
FFFFFFFFFC
0000003FFC
0000007FF8
000000FFF0
000000FFE0
000001FFE0
000003FFC0
000007FF80
000007FF80
00000FFF00
00001FFE00
00001FFE00
00003FFC00
00007FF800
00007FF000
0000FFF000
0001FFE000
0003FFC000
0003FFC000
0007FF8000
000FFF0000
000FFF0000
001FFE0000
003FFC0000
007FF80000
007FF80000
00FFF00000
01FFE00000
01FFE00000
03FFC00000
07FF800000
07FF800000
0FFF000000
1FFE000000
3FFC000000
3FFC000000
7FFFFFFFFF
FFFFFFFFFF
FFFFFFFFFF
FFFFFFFFFF
FFFFFFFFFF
FFFFFFFFFF
FFFFFFFFFF
FFFFFFFFFF
FFFFFFFFFF
ENDCHAR
STARTCHAR bracketleft
ENCODING 91
SWIDTH 277 0
DWIDTH 21 0
BBX 16 74 4 -12
BITMAP
FFFF
FFFF
FFFF
FFFF
FFFF
FFFF
FFFF
FFFF
FFFF
FFE0
FFE0
FFE0
FFE0
FFE0
FFE0
FFE0
FFE0
FFE0
FFE0
FFE0
FFE0
FFE0
FFE0
FFE0
FFE0
FFE0
FFE0
FFE0
FFE0
FFE0
FFE0
FFE0
FFE0
FFE0
FFE0
FFE0
FFE0
FFE0
FFE0
FFE0
FFE0
FFE0
FFE0
FFE0
FFE0
FFE0
FFE0
FFE0
FFE0
FFE0
FFE0
FFE0
FFE0
FFE0
FFE0
FFE0
FFE0
FFE0
FFE0
FFE0
FFE0
FFE0
FFE0
FFE0
FFE0
FFFF
FFFF
FFFF
FFFF
FFFF
FFFF
FFFF
FFFF
FFFF
ENDCHAR
STARTCHAR backslash
ENCODING 92
SWIDTH 421 0
DWIDTH 32 0
BBX 33 58 0 -5
BITMAP
FFE0000000
7FE0000000
7FF0000000
7FF0000000
3FF8000000
3FF8000000
3FF8000000
1FFC000000
1FFC000000
0FFC000000
0FFE000000
0FFE000000
07FF000000
07FF000000
03FF000000
03FF800000
03FF800000
01FFC00000
01FFC00000
01FFC00000
00FFE00000
00FFE00000
007FE00000
007FF00000
007FF00000
003FF80000
003FF80000
001FF80000
001FFC0000
001FFC0000
000FFE0000
000FFE0000
000FFE0000
0007FF0000
0007FF0000
0003FF0000
0003FF8000
0003FF8000
0001FFC000
0001FFC000
0000FFC000
0000FFE000
0000FFE000
00007FE000
00007FF000
00007FF000
00003FF800
00003FF800
00001FF800
00001FFC00
00001FFC00
00000FFE00
00000FFE00
000007FE00
000007FF00
000007FF00
000003FF00
000003FF80
ENDCHAR
STARTCHAR bracketright
ENCODING 93
SWIDTH 277 0
DWIDTH 21 0
BBX 16 74 0 -12
BITMAP
FFFF
FFFF
FFFF
FFFF
FFFF
FFFF
FFFF
FFFF
FFFF
03FF
03FF
03FF
03FF
03FF
03FF
03FF
03FF
03FF
03FF
03FF
03FF
03FF
03FF
03FF
03FF
03FF
03FF
03FF
03FF
03FF
03FF
03FF
03FF
03FF
03FF
03FF
03FF
03FF
03FF
03FF
03FF
03FF
03FF
03FF
03FF
03FF
03FF
03FF
03FF
03FF
03FF
03FF
03FF
03FF
03FF
03FF
03FF
03FF
03FF
03FF
03FF
03FF
03FF
03FF
03FF
FFFF
FFFF
FFFF
FFFF
FFFF
FFFF
FFFF
FFFF
FFFF
ENDCHAR
STARTCHAR asciicircum
ENCODING 94
SWIDTH 437 0
DWIDTH 33 0
BBX 29 26 2 27
BITMAP
003FE000
003FE000
003FE000
007FF000
007FF000
00FFF800
00FFF800
01FFFC00
01FFFC00
01FFFC00
03FDFE00
03FDFE00
07FCFF00
07F8FF00
07F8FF00
0FF07F80
0FF07F80
1FF03FC0
1FE03FC0
3FE03FE0
3FC01FE0
3FC01FE0
7FC00FF0
7F800FF0
FF800FF8
FF0007F8
ENDCHAR
STARTCHAR underscore
ENCODING 95
SWIDTH 446 0
DWIDTH 33 0
BBX 33 8 0 -8
BITMAP
FFFFFFFF80
FFFFFFFF80
FFFFFFFF80
FFFFFFFF80
FFFFFFFF80
FFFFFFFF80
FFFFFFFF80
FFFFFFFF80
ENDCHAR
STARTCHAR grave
ENCODING 96
SWIDTH 330 0
DWIDTH 25 0
BBX 19 11 2 45
BITMAP
FFF000
7FF000
3FF800
1FFC00
0FFC00
07FE00
03FF00
01FF00
00FF80
007FC0
003FE0
ENDCHAR
STARTCHAR a
ENCODING 97
SWIDTH 536 0
DWIDTH 40 0
BBX 36 41 2 -1
BITMAP
0007FE0000
003FFFC000
00FFFFF000
03FFFFFC00
07FFFFFE00
0FFFFFFF00
1FFFFFFF00
3FFFFFFF80
3FFE07FF80
3FF803FFC0
7FF001FFC0
7FF001FFC0
000001FFC0
000000FFC0
000000FFC0
000000FFC0
0007FFFFC0
007FFFFFC0
01FFFFFFC0
07FFFFFFC0
0FFFFFFFC0
1FFFFFFFC0
3FFFFFFFC0
3FFE00FFC0
7FF800FFC0
7FF000FFC0
7FE000FFC0
7FE000FFC0
FFE000FFC0
FFE001FFC0
7FF003FFC0
7FFC0FFFC0
7FFFFFFFC0
7FFFFFFFC0
3FFFFFFFC0
3FFFFFFFC0
1FFFFFFFE0
0FFFFEFFE0
07FFFCFFE0
01FFF07FF0
003FC00000
ENDCHAR
STARTCHAR b
ENCODING 98
SWIDTH 562 0
DWIDTH 42 0
BBX 36 57 4 -1
BITMAP
FFE0000000
FFE0000000
FFE0000000
FFE0000000
FFE0000000
FFE0000000
FFE0000000
FFE0000000
FFE0000000
FFE0000000
FFE0000000
FFE0000000
FFE0000000
FFE0000000
FFE0000000
FFE0000000
FFE0FF0000
FFE3FFE000
FFEFFFF800
FFFFFFFC00
FFFFFFFE00
FFFFFFFF00
FFFFFFFF00
FFFFFFFF80
FFFFFFFF80
FFFC0FFFC0
FFF003FFC0
FFE001FFE0
FFE000FFE0
FFE000FFE0
FFE000FFE0
FFE0007FE0
FFE0007FE0
FFE0007FF0
FFE0007FF0
FFE0007FF0
FFE0007FF0
FFE0007FF0
FFE0007FF0
FFE0007FF0
FFE0007FE0
FFE0007FE0
FFE000FFE0
FFE000FFE0
FFE000FFE0
FFE001FFE0
FFF803FFC0
FFFC0FFFC0
FFFFFFFF80
FFFFFFFF80
FFFFFFFF00
FFFFFFFF00
FFFFFFFE00
FFDFFFFC00
FFCFFFF800
FFC3FFE000
0000FF0000
ENDCHAR
STARTCHAR c
ENCODING 99
SWIDTH 521 0
DWIDTH 39 0
BBX 35 41 2 -1
BITMAP
0003FE0000
001FFFC000
007FFFF000
01FFFFFC00
03FFFFFE00
07FFFFFF00
0FFFFFFF00
0FFFFFFF80
1FFFFFFFC0
3FFF07FFC0
3FFC01FFC0
3FF800FFE0
7FF000FFE0
7FF0007FE0
7FF0007FE0
7FE0000000
7FE0000000
FFE0000000
FFE0000000
FFE0000000
FFE0000000
FFE0000000
FFE0000000
FFE0000000
7FE0000000
7FE0000000
7FE0000000
7FF0007FE0
7FF0007FE0
3FF800FFE0
3FFC01FFC0
3FFF07FFC0
1FFFFFFFC0
0FFFFFFF80
0FFFFFFF00
07FFFFFF00
03FFFFFE00
01FFFFFC00
007FFFF000
001FFFC000
0003FE0000
ENDCHAR
STARTCHAR d
ENCODING 100
SWIDTH 563 0
DWIDTH 42 0
BBX 36 57 2 -1
BITMAP
0000007FF0
0000007FF0
0000007FF0
0000007FF0
0000007FF0
0000007FF0
0000007FF0
0000007FF0
0000007FF0
0000007FF0
0000007FF0
0000007FF0
0000007FF0
0000007FF0
0000007FF0
0000007FF0
000FE07FF0
007FFC7FF0
01FFFE7FF0
03FFFFFFF0
07FFFFFFF0
0FFFFFFFF0
0FFFFFFFF0
1FFFFFFFF0
1FFFFFFFF0
3FFF03FFF0
3FFC01FFF0
7FF800FFF0
7FF0007FF0
7FF0007FF0
7FF0007FF0
7FE0007FF0
FFE0007FF0
FFE0007FF0
FFE0007FF0
FFE0007FF0
FFE0007FF0
FFE0007FF0
FFE0007FF0
FFE0007FF0
7FE0007FF0
7FE0007FF0
7FF0007FF0
7FF0007FF0
7FF0007FF0
7FF800FFF0
3FFC01FFF0
3FFF03FFF0
1FFFFFFFF0
1FFFFFFFF0
0FFFFFFFF0
07FFFFFFF0
07FFFFBFF0
03FFFF3FF0
00FFFE3FF0
007FFC3FF0
000FE00000
ENDCHAR
STARTCHAR e
ENCODING 101
SWIDTH 540 0
DWIDTH 41 0
BBX 36 41 3 -1
BITMAP
0003FE0000
001FFFC000
007FFFF000
01FFFFF800
03FFFFFE00
07FFFFFE00
0FFFFFFF00
1FFFFFFF80
1FFFFFFF80
3FFF07FFC0
3FFC01FFC0
7FF800FFE0
7FF0007FE0
7FF0007FE0
FFE0007FE0
FFE0007FF0
FFE0007FF0
FFFFFFFFF0
FFFFFFFFF0
FFFFFFFFF0
FFFFFFFFF0
FFFFFFFFF0
FFFFFFFFF0
FFFFFFFFF0
FFE0000000
FFE0000000
FFE0000000
7FF0000000
7FF0000400
7FF8000E00
3FFE001F00
3FFF80FF80
1FFFFFFFC0
1FFFFFFFE0
0FFFFFFFE0
07FFFFFFC0
03FFFFFF80
01FFFFFE00
007FFFFC00
001FFFF000
0001FF0000
ENDCHAR
STARTCHAR f
ENCODING 102
SWIDTH 358 0
DWIDTH 27 0
BBX 26 57 1 0
BITMAP
0000FF80
0007FFC0
001FFFC0
003FFFC0
007FFFC0
00FFFFC0
00FFFFC0
01FFFFC0
01FFFFC0
03FFF000
03FFC000
03FF8000
03FF8000
03FF8000
03FF8000
03FF8000
03FF8000
FFFFFF80
FFFFFF80
FFFFFF80
FFFFFF80
FFFFFF80
FFFFFF80
FFFFFF80
FFFFFF80
03FF8000
03FF8000
03FF8000
03FF8000
03FF8000
03FF8000
03FF8000
03FF8000
03FF8000
03FF8000
03FF8000
03FF8000
03FF8000
03FF8000
03FF8000
03FF8000
03FF8000
03FF8000
03FF8000
03FF8000
03FF8000
03FF8000
03FF8000
03FF8000
03FF8000
03FF8000
03FF8000
03FF8000
03FF8000
03FF8000
03FF8000
03FF8000
ENDCHAR
STARTCHAR g
ENCODING 103
SWIDTH 570 0
DWIDTH 43 0
BBX 36 56 3 -16
BITMAP
000FF03FF0
007FFE3FF0
01FFFF3FF0
03FFFFFFF0
07FFFFFFF0
0FFFFFFFF0
1FFFFFFFF0
1FFFFFFFF0
3FFFFFFFF0
3FFF03FFF0
7FFC01FFF0
7FF800FFF0
7FF0007FF0
FFE0007FF0
FFE0007FF0
FFE0007FF0
FFE0007FF0
FFC0007FF0
FFC0007FF0
FFC0007FF0
FFC0007FF0
FFC0007FF0
FFC0007FF0
FFC0007FF0
FFE0007FF0
FFE0007FF0
FFE0007FF0
FFE0007FF0
7FF0007FF0
7FF800FFF0
7FFC01FFF0
3FFE03FFF0
3FFFFFFFF0
1FFFFFFFF0
1FFFFFFFF0
0FFFFFFFF0
07FFFFFFF0
03FFFFFFF0
01FFFE7FF0
007FFC7FF0
000FE07FF0
0000007FF0
0000007FF0
020000FFE0
030001FFE0
07C003FFE0
0FF80FFFC0
0FFFFFFFC0
1FFFFFFF80
3FFFFFFF00
1FFFFFFF00
0FFFFFFE00
07FFFFF800
01FFFFF000
007FFFC000
000FFC0000
ENDCHAR
STARTCHAR h
ENCODING 104
SWIDTH 559 0
DWIDTH 42 0
BBX 34 56 4 0
BITMAP
FFC0000000
FFC0000000
FFC0000000
FFC0000000
FFC0000000
FFC0000000
FFC0000000
FFC0000000
FFC0000000
FFC0000000
FFC0000000
FFC0000000
FFC0000000
FFC0000000
FFC0000000
FFC0000000
FFC07F8000
FFC1FFF000
FFC7FFF800
FFCFFFFC00
FFDFFFFE00
FFFFFFFF00
FFFFFFFF00
FFFFFFFF80
FFFFFFFF80
FFFC0FFF80
FFF003FFC0
FFE001FFC0
FFC001FFC0
FFC001FFC0
FFC001FFC0
FFC001FFC0
FFC001FFC0
FFC001FFC0
FFC001FFC0
FFC001FFC0
FFC001FFC0
FFC001FFC0
FFC001FFC0
FFC001FFC0
FFC001FFC0
FFC001FFC0
FFC001FFC0
FFC001FFC0
FFC001FFC0
FFC001FFC0
FFC001FFC0
FFC001FFC0
FFC001FFC0
FFC001FFC0
FFC001FFC0
FFC001FFC0
FFC001FFC0
FFC001FFC0
FFC001FFC0
FFC001FFC0
ENDCHAR
STARTCHAR i
ENCODING 105
SWIDTH 265 0
DWIDTH 20 0
BBX 12 56 4 0
BITMAP
1F80
3FC0
7FE0
FFF0
FFF0
FFF0
FFF0
FFF0
7FE0
3FC0
1F80
0000
0000
0000
0000
0000
7FE0
7FE0
7FE0
7FE0
7FE0
7FE0
7FE0
7FE0
7FE0
7FE0
7FE0
7FE0
7FE0
7FE0
7FE0
7FE0
7FE0
7FE0
7FE0
7FE0
7FE0
7FE0
7FE0
7FE0
7FE0
7FE0
7FE0
7FE0
7FE0
7FE0
7FE0
7FE0
7FE0
7FE0
7FE0
7FE0
7FE0
7FE0
7FE0
7FE0
ENDCHAR
STARTCHAR j
ENCODING 106
SWIDTH 259 0
DWIDTH 19 0
BBX 19 72 -4 -16
BITMAP
001F00
007FC0
00FFE0
00FFE0
00FFE0
00FFE0
00FFE0
00FFE0
00FFE0
007FC0
001F00
000000
000000
000000
000000
000000
00FFE0
00FFE0
00FFE0
00FFE0
00FFE0
00FFE0
00FFE0
00FFE0
00FFE0
00FFE0
00FFE0
00FFE0
00FFE0
00FFE0
00FFE0
00FFE0
00FFE0
00FFE0
00FFE0
00FFE0
00FFE0
00FFE0
00FFE0
00FFE0
00FFE0
00FFE0
00FFE0
00FFE0
00FFE0
00FFE0
00FFE0
00FFE0
00FFE0
00FFE0
00FFE0
00FFE0
00FFE0
00FFE0
00FFE0
00FFE0
00FFE0
00FFE0
00FFE0
00FFE0
00FFE0
01FFE0
03FFE0
FFFFC0
FFFFC0
FFFFC0
FFFF80
FFFF00
FFFE00
FFFC00
FFF800
7FC000
ENDCHAR
STARTCHAR k
ENCODING 107
SWIDTH 534 0
DWIDTH 40 0
BBX 37 56 4 0
BITMAP
FFE0000000
FFE0000000
FFE0000000
FFE0000000
FFE0000000
FFE0000000
FFE0000000
FFE0000000
FFE0000000
FFE0000000
FFE0000000
FFE0000000
FFE0000000
FFE0000000
FFE0000000
FFE0000000
FFE003FFF0
FFE003FFC0
FFE007FF80
FFE00FFF80
FFE01FFF00
FFE03FFE00
FFE07FFC00
FFE07FF800
FFE0FFF000
FFE1FFE000
FFE3FFE000
FFE7FFC000
FFEFFF8000
FFEFFF0000
FFFFFE0000
FFFFFC0000
FFFFF80000
FFFFFC0000
FFFFFC0000
FFFFFE0000
FFFFFF0000
FFFFFF0000
FFFFFF8000
FFFFFFC000
FFFDFFC000
FFF9FFE000
FFF0FFF000
FFE07FF000
FFE07FF800
FFE03FFC00
FFE01FFC00
FFE01FFE00
FFE00FFF00
FFE007FF00
FFE007FF80
FFE003FFC0
FFE003FFC0
FFE001FFE0
FFE000FFF0
FFE000FFF8
ENDCHAR
STARTCHAR l
ENCODING 108
SWIDTH 265 0
DWIDTH 20 0
BBX 10 56 5 0
BITMAP
FFC0
FFC0
FFC0
FFC0
FFC0
FFC0
FFC0
FFC0
FFC0
FFC0
FFC0
FFC0
FFC0
FFC0
FFC0
FFC0
FFC0
FFC0
FFC0
FFC0
FFC0
FFC0
FFC0
FFC0
FFC0
FFC0
FFC0
FFC0
FFC0
FFC0
FFC0
FFC0
FFC0
FFC0
FFC0
FFC0
FFC0
FFC0
FFC0
FFC0
FFC0
FFC0
FFC0
FFC0
FFC0
FFC0
FFC0
FFC0
FFC0
FFC0
FFC0
FFC0
FFC0
FFC0
FFC0
FFC0
ENDCHAR
STARTCHAR m
ENCODING 109
SWIDTH 865 0
DWIDTH 65 0
BBX 57 40 4 0
BITMAP
FFC03FC000FF8000
FFC1FFF007FFE000
FFC7FFFC0FFFF000
FFCFFFFE3FFFFC00
FFDFFFFE7FFFFC00
FFFFFFFF7FFFFE00
FFFFFFFFFFFFFE00
FFFFFFFFFFFFFF00
FFFFFFFFFFFFFF00
FFFC0FFFF81FFF00
FFF003FFF007FF80
FFE003FFE003FF80
FFE001FFC003FF80
FFE001FFC003FF80
FFE001FFC003FF80
FFE001FFC003FF80
FFE001FFC003FF80
FFE001FFC003FF80
FFE001FFC003FF80
FFE001FFC003FF80
FFE001FFC003FF80
FFE001FFC003FF80
FFE001FFC003FF80
FFE001FFC003FF80
FFE001FFC003FF80
FFE001FFC003FF80
FFE001FFC003FF80
FFE001FFC003FF80
FFE001FFC003FF80
FFE001FFC003FF80
FFE001FFC003FF80
FFE001FFC003FF80
FFE001FFC003FF80
FFE001FFC003FF80
FFE001FFC003FF80
FFE001FFC003FF80
FFE001FFC003FF80
FFE001FFC003FF80
FFE001FFC003FF80
FFE001FFC003FF80
ENDCHAR
STARTCHAR n
ENCODING 110
SWIDTH 560 0
DWIDTH 42 0
BBX 34 40 4 0
BITMAP
FFC07FC000
FFC3FFF000
FFC7FFFC00
FFDFFFFE00
FFFFFFFF00
FFFFFFFF00
FFFFFFFF80
FFFFFFFF80
FFFFFFFF80
FFFC0FFFC0
FFF003FFC0
FFE001FFC0
FFE001FFC0
FFC001FFC0
FFC001FFC0
FFC001FFC0
FFC001FFC0
FFC001FFC0
FFC001FFC0
FFC001FFC0
FFC001FFC0
FFC001FFC0
FFC001FFC0
FFC001FFC0
FFC001FFC0
FFC001FFC0
FFC001FFC0
FFC001FFC0
FFC001FFC0
FFC001FFC0
FFC001FFC0
FFC001FFC0
FFC001FFC0
FFC001FFC0
FFC001FFC0
FFC001FFC0
FFC001FFC0
FFC001FFC0
FFC001FFC0
FFC001FFC0
ENDCHAR
STARTCHAR o
ENCODING 111
SWIDTH 565 0
DWIDTH 42 0
BBX 38 41 2 -1
BITMAP
0003FF0000
001FFFE000
007FFFF800
00FFFFFC00
03FFFFFF00
07FFFFFF80
0FFFFFFF80
0FFFFFFFC0
1FFFFFFFE0
1FFF03FFE0
3FFC00FFF0
3FF8007FF0
7FF8007FF8
7FF0003FF8
7FF0003FF8
7FE0001FF8
FFE0001FF8
FFE0001FFC
FFE0001FFC
FFE0001FFC
FFE0001FFC
FFE0001FFC
FFE0001FFC
FFE0001FFC
FFE0001FFC
7FE0001FF8
7FF0003FF8
7FF0003FF8
7FF0007FF8
3FF8007FF0
3FFC00FFF0
3FFF03FFE0
1FFFFFFFE0
0FFFFFFFC0
0FFFFFFFC0
07FFFFFF80
03FFFFFF00
01FFFFFC00
007FFFF800
001FFFE000
0003FF0000
ENDCHAR
STARTCHAR p
ENCODING 112
SWIDTH 562 0
DWIDTH 42 0
BBX 36 55 4 -15
BITMAP
FFC0FF0000
FFC7FFE000
FFCFFFF800
FFDFFFFC00
FFFFFFFE00
FFFFFFFF00
FFFFFFFF00
FFFFFFFF80
FFFFFFFF80
FFFC0FFFC0
FFF003FFC0
FFE001FFC0
FFE001FFE0
FFE000FFE0
FFE000FFE0
FFE0007FE0
FFE0007FE0
FFE0007FE0
FFE0007FF0
FFE0007FF0
FFE0007FF0
FFE0007FF0
FFE0007FF0
FFE0007FF0
FFE0007FE0
FFE000FFE0
FFE000FFE0
FFE000FFE0
FFE001FFE0
FFE001FFC0
FFF003FFC0
FFFC0FFFC0
FFFFFFFF80
FFFFFFFF80
FFFFFFFF00
FFFFFFFE00
FFFFFFFE00
FFFFFFFC00
FFEFFFF000
FFE3FFE000
FFE0FF0000
FFE0000000
FFE0000000
FFE0000000
FFE0000000
FFE0000000
FFE0000000
FFE0000000
FFE0000000
FFE0000000
FFE0000000
FFE0000000
FFE0000000
FFE0000000
FFE0000000
ENDCHAR
STARTCHAR q
ENCODING 113
SWIDTH 564 0
DWIDTH 42 0
BBX 36 55 2 -15
BITMAP
000FF01FF0
007FFE3FF0
01FFFF3FF0
03FFFFBFF0
07FFFFFFF0
0FFFFFFFF0
0FFFFFFFF0
1FFFFFFFF0
3FFFFFFFF0
3FFF03FFF0
3FFC00FFF0
7FF8007FF0
7FF0007FF0
7FF0007FF0
7FF0007FF0
7FE0007FF0
FFE0007FF0
FFE0007FF0
FFE0007FF0
FFE0007FF0
FFE0007FF0
FFE0007FF0
FFE0007FF0
FFE0007FF0
FFE0007FF0
7FE0007FF0
7FF0007FF0
7FF0007FF0
7FF0007FF0
7FF800FFF0
3FFC01FFF0
3FFF03FFF0
1FFFFFFFF0
1FFFFFFFF0
0FFFFFFFF0
0FFFFFFFF0
07FFFFFFF0
03FFFFFFF0
01FFFF7FF0
007FFC7FF0
000FE07FF0
0000007FF0
0000007FF0
0000007FF0
0000007FF0
0000007FF0
0000007FF0
0000007FF0
0000007FF0
0000007FF0
0000007FF0
0000007FF0
0000007FF0
0000007FF0
0000007FF0
ENDCHAR
STARTCHAR r
ENCODING 114
SWIDTH 364 0
DWIDTH 27 0
BBX 22 40 4 0
BITMAP
FFC0FC
FFC3FC
FFCFFC
FFDFFC
FFDFFC
FFFFFC
FFFFFC
FFFFFC
FFFFFC
FFFFFC
FFFE00
FFF800
FFE000
FFE000
FFC000
FFC000
FFC000
FFC000
FFC000
FFC000
FFC000
FFC000
FFC000
FFC000
FFC000
FFC000
FFC000
FFC000
FFC000
FFC000
FFC000
FFC000
FFC000
FFC000
FFC000
FFC000
FFC000
FFC000
FFC000
FFC000
ENDCHAR
STARTCHAR s
ENCODING 115
SWIDTH 514 0
DWIDTH 39 0
BBX 34 41 2 -1
BITMAP
000FFE0000
007FFFC000
01FFFFF000
03FFFFF800
07FFFFFC00
0FFFFFFE00
1FFFFFFF00
1FFFFFFF80
3FFC0FFF80
3FF803FF80
3FF001FFC0
3FF001FFC0
3FF001FFC0
3FF0000000
3FF8000000
3FFE000000
3FFFE00000
1FFFFE0000
0FFFFFC000
07FFFFF000
03FFFFFC00
01FFFFFE00
003FFFFF00
000FFFFF80
00007FFF80
00000FFFC0
000003FFC0
000001FFC0
FFC000FFC0
FFE000FFC0
7FE001FFC0
7FF001FFC0
7FFC07FF80
3FFFFFFF80
1FFFFFFF00
1FFFFFFF00
0FFFFFFE00
03FFFFFC00
01FFFFF000
007FFFC000
000FFE0000
ENDCHAR
STARTCHAR t
ENCODING 116
SWIDTH 337 0
DWIDTH 25 0
BBX 24 51 0 -1
BITMAP
03FF80
03FF80
03FF80
03FF80
03FF80
03FF80
03FF80
03FF80
03FF80
03FF80
FFFFFE
FFFFFE
FFFFFE
FFFFFE
FFFFFE
FFFFFE
FFFFFE
FFFFFE
03FF80
03FF80
03FF80
03FF80
03FF80
03FF80
03FF80
03FF80
03FF80
03FF80
03FF80
03FF80
03FF80
03FF80
03FF80
03FF80
03FF80
03FF80
03FF80
03FF80
03FF80
03FF80
03FF80
03FFC0
03FFFF
03FFFF
01FFFF
01FFFF
00FFFF
00FFFF
007FFF
001FFF
0007FC
ENDCHAR
STARTCHAR u
ENCODING 117
SWIDTH 559 0
DWIDTH 42 0
BBX 34 41 4 -1
BITMAP
FFC001FFC0
FFC001FFC0
FFC001FFC0
FFC001FFC0
FFC001FFC0
FFC001FFC0
FFC001FFC0
FFC001FFC0
FFC001FFC0
FFC001FFC0
FFC001FFC0
FFC001FFC0
FFC001FFC0
FFC001FFC0
FFC001FFC0
FFC001FFC0
FFC001FFC0
FFC001FFC0
FFC001FFC0
FFC001FFC0
FFC001FFC0
FFC001FFC0
FFC001FFC0
FFC001FFC0
FFC001FFC0
FFC001FFC0
FFC001FFC0
FFE001FFC0
FFE001FFC0
FFE001FFC0
FFF007FFC0
FFF80FFFC0
7FFFFFFFC0
7FFFFFFFC0
7FFFFFFFC0
3FFFFFFFC0
1FFFFFFFC0
1FFFFEFFC0
07FFF8FFC0
03FFF0FFC0
007F800000
ENDCHAR
STARTCHAR v
ENCODING 118
SWIDTH 505 0
DWIDTH 38 0
BBX 36 40 1 0
BITMAP
FFE0007FF0
FFE0007FF0
FFE0007FF0
7FF000FFE0
7FF000FFE0
7FF000FFE0
3FF000FFC0
3FF801FFC0
3FF801FFC0
1FF801FF80
1FF803FF80
1FFC03FF80
0FFC03FF00
0FFC03FF00
0FFE07FF00
07FE07FE00
07FE07FE00
07FE07FE00
03FF0FFC00
03FF0FFC00
03FF0FFC00
01FF1FF800
01FF9FF800
01FF9FF800
00FF9FF000
00FFFFF000
00FFFFF000
007FFFE000
007FFFE000
007FFFE000
003FFFC000
003FFFC000
003FFFC000
001FFF8000
001FFF8000
001FFF8000
000FFF0000
000FFF0000
000FFF0000
0007FE0000
ENDCHAR
STARTCHAR w
ENCODING 119
SWIDTH 734 0
DWIDTH 55 0
BBX 53 40 1 0
BITMAP
FFC003FC001FF8
FFC003FE003FF8
7FE003FE003FF0
7FE003FE003FF0
7FE007FF003FF0
7FE007FF003FF0
3FE007FF007FE0
3FF00FFF007FE0
3FF00FFF807FE0
3FF00FFF807FC0
1FF00FFF807FC0
1FF81FFFC0FFC0
1FF81FFFC0FFC0
1FF81FFFC0FF80
0FF83FFFC0FF80
0FF83FDFE1FF80
0FFC3FDFE1FF80
0FFC3FDFE1FF00
07FC7F9FE1FF00
07FC7F8FF1FF00
07FC7F8FF3FF00
07FEFF0FF3FE00
03FEFF07FBFE00
03FEFF07FBFE00
03FEFF07FBFE00
03FFFE03FFFC00
01FFFE03FFFC00
01FFFE03FFFC00
01FFFC03FFFC00
01FFFC01FFF800
00FFFC01FFF800
00FFF801FFF800
00FFF800FFF800
00FFF800FFF000
007FF800FFF000
007FF0007FF000
007FF0007FF000
007FF0007FE000
003FE0007FE000
003FE0003FE000
ENDCHAR
STARTCHAR x
ENCODING 120
SWIDTH 508 0
DWIDTH 38 0
BBX 37 40 1 0
BITMAP
FFF0007FF0
7FF000FFE0
3FF801FFE0
3FFC01FFC0
1FFC03FFC0
1FFE03FF80
0FFE07FF00
07FF07FF00
07FF0FFE00
03FF8FFE00
03FF9FFC00
01FFFFFC00
01FFFFF800
00FFFFF000
007FFFF000
007FFFE000
003FFFE000
003FFFC000
001FFFC000
001FFF8000
001FFF8000
003FFFC000
003FFFE000
007FFFE000
007FFFF000
00FFFFF000
00FFFFF800
01FFFFF800
03FFDFFC00
03FF9FFE00
07FF0FFE00
07FF0FFF00
0FFE07FF00
1FFE03FF80
1FFC03FF80
3FFC01FFC0
3FF801FFE0
7FF800FFE0
7FF000FFF0
FFE0007FF8
ENDCHAR
STARTCHAR y
ENCODING 121
SWIDTH 501 0
DWIDTH 38 0
BBX 38 56 0 -16
BITMAP
FFF0003FFC
7FF0003FF8
7FF0003FF8
3FF8007FF8
3FF8007FF0
3FF8007FF0
1FFC00FFE0
1FFC00FFE0
1FFC00FFE0
0FFC00FFC0
0FFE01FFC0
0FFE01FFC0
07FE01FF80
07FF03FF80
07FF03FF80
03FF03FF00
03FF87FF00
03FF87FF00
01FF87FE00
01FF87FE00
01FFCFFE00
00FFCFFC00
00FFCFFC00
00FFFFFC00
007FFFF800
007FFFF800
003FFFF800
003FFFF000
003FFFF000
001FFFF000
001FFFE000
001FFFE000
000FFFC000
000FFFC000
000FFFC000
0007FF8000
0007FF8000
0007FF8000
0003FF0000
0003FF0000
0003FF0000
0007FE0000
0007FE0000
0007FE0000
000FFC0000
001FFC0000
003FFC0000
0FFFF80000
0FFFF80000
0FFFF00000
0FFFF00000
0FFFE00000
0FFFC00000
0FFF800000
0FFE000000
07F8000000
ENDCHAR
STARTCHAR z
ENCODING 122
SWIDTH 508 0
DWIDTH 38 0
BBX 33 40 3 0
BITMAP
FFFFFFFF00
FFFFFFFF00
FFFFFFFF00
FFFFFFFF00
FFFFFFFF00
FFFFFFFF00
FFFFFFFF00
FFFFFFFE00
FFFFFFFE00
00003FFC00
00007FF800
0000FFF000
0000FFE000
0001FFE000
0003FFC000
0007FF8000
0007FF0000
000FFF0000
001FFE0000
003FFC0000
007FF80000
007FF80000
00FFF00000
01FFE00000
03FFC00000
03FF800000
07FF800000
0FFF000000
1FFE000000
1FFC000000
3FFC000000
7FFFFFFF80
FFFFFFFF80
FFFFFFFF80
FFFFFFFF80
FFFFFFFF80
FFFFFFFF80
FFFFFFFF80
FFFFFFFF80
FFFFFFFF80
ENDCHAR
STARTCHAR braceleft
ENCODING 123
SWIDTH 330 0
DWIDTH 25 0
BBX 22 71 2 -13
BITMAP
000030
0000F0
0003F0
000FF8
001FF8
003FF8
007FF4
007FE0
00FFC0
00FF80
01FF80
01FF80
01FF00
01FF00
03FF00
03FF00
03FF00
03FF00
03FF00
03FF00
03FF00
03FF00
03FF00
03FF00
03FF00
03FF00
03FF00
03FF00
03FE00
07FE00
0FFE00
1FFC00
FFFC00
FFF800
FFF000
FFC000
FFC000
FFF000
FFF800
FFFC00
1FFC00
0FFE00
07FE00
03FE00
03FF00
03FF00
03FF00
03FF00
03FF00
03FF00
03FF00
03FF00
03FF00
03FF00
03FF00
03FF00
03FF00
01FF00
01FF00
01FF80
01FF80
00FF80
00FFC0
007FE0
007FF0
003FFC
001FF8
000FF8
0003F0
0001F0
000030
ENDCHAR
STARTCHAR bar
ENCODING 124
SWIDTH 252 0
DWIDTH 19 0
BBX 7 63 6 -10
BITMAP
FE
FE
FE
FE
FE
FE
FE
FE
FE
FE
FE
FE
FE
FE
FE
FE
FE
FE
FE
FE
FE
FE
FE
FE
FE
FE
FE
FE
FE
FE
FE
FE
FE
FE
FE
FE
FE
FE
FE
FE
FE
FE
FE
FE
FE
FE
FE
FE
FE
FE
FE
FE
FE
FE
FE
FE
FE
FE
FE
FE
FE
FE
FE
ENDCHAR
STARTCHAR braceright
ENCODING 125
SWIDTH 330 0
DWIDTH 25 0
BBX 22 71 1 -13
BITMAP
300000
3E0000
3F0000
7FC000
7FE000
7FF000
BFF800
1FF800
0FFC00
07FC00
07FE00
07FE00
03FE00
03FE00
03FE00
03FF00
03FF00
03FF00
03FF00
03FF00
03FF00
03FF00
03FF00
03FF00
03FF00
03FF00
03FF00
03FF00
01FF00
01FF80
01FFC0
00FFE0
00FFFC
007FFC
003FFC
000FFC
000FFC
003FFC
007FFC
00FFFC
00FFE0
01FFC0
01FF80
03FF00
03FF00
03FF00
03FF00
03FF00
03FF00
03FF00
03FF00
03FF00
03FF00
03FF00
03FF00
03FF00
03FF00
03FE00
03FE00
07FE00
07FE00
07FC00
0FFC00
1FF800
3FF800
FFF000
7FE000
7FC000
3F0000
3E0000
300000
ENDCHAR
STARTCHAR asciitilde
ENCODING 126
SWIDTH 648 0
DWIDTH 49 0
BBX 41 17 4 13
BITMAP
007F00000000
03FFC0007F80
07FFE0007F80
0FFFF8007F80
1FFFFC00FF80
3FFFFE00FF00
3FFFFF01FF00
7FFFFFC3FF00
7FFFFFFFFF00
7FE1FFFFFE00
FF80FFFFFE00
FF803FFFFC00
FF001FFFF800
FF000FFFF800
FF0007FFF000
FF0001FFC000
0000007F0000
ENDCHAR
STARTCHAR uni00A0
ENCODING 160
SWIDTH 249 0
DWIDTH 19 0
BBX 1 1 0 0
BITMAP
00
ENDCHAR
STARTCHAR exclamdown
ENCODING 161
SWIDTH 282 0
DWIDTH 21 0
BBX 11 54 5 -14
BITMAP
1F00
7FC0
FFE0
FFE0
FFE0
FFE0
FFE0
FFE0
FFE0
7FC0
1F00
0000
0000
0000
0000
0000
0000
7FC0
7FC0
7FC0
7FC0
7FC0
7FC0
7FC0
7FC0
7FC0
7FC0
7FC0
7FC0
7FC0
7FC0
7FC0
7FC0
7FC0
FFC0
FFE0
FFE0
FFE0
FFE0
FFE0
FFE0
FFE0
FFE0
FFE0
FFE0
FFE0
FFE0
FFE0
FFE0
FFE0
FFE0
FFE0
FFE0
FFE0
ENDCHAR
STARTCHAR cent
ENCODING 162
SWIDTH 575 0
DWIDTH 43 0
BBX 34 57 4 -9
BITMAP
0003FC0000
0003FC0000
0003FC0000
0003FC0000
0003FC0000
0003FC0000
0003FC0000
0003FC0000
000FFF0000
007FFFC000
01FFFFF000
03FFFFF800
07FFFFFC00
0FFFFFFE00
1FFFFFFF00
1FFFFFFF00
3FFFFFFF80
3FFE07FF80
7FF803FFC0
7FF001FFC0
FFE000FFC0
FFE000FFC0
FFE000FFC0
FFC0000000
FFC0000000
FFC0000000
FFC0000000
FFC0000000
FFC0000000
FFC0000000
FFC0000000
FFC0000000
FFC0000000
FFE0000000
FFE000FFC0
FFE000FFC0
7FF001FFC0
7FF801FFC0
3FFE07FF80
3FFFFFFF80
1FFFFFFF80
1FFFFFFF00
0FFFFFFE00
07FFFFFC00
03FFFFF800
01FFFFF000
007FFFC000
000FFE0000
0003FC0000
0003FC0000
0003FC0000
0003FC0000
0003FC0000
0003FC0000
0003FC0000
0003FC0000
0003FC0000
ENDCHAR
STARTCHAR sterling
ENCODING 163
SWIDTH 594 0
DWIDTH 45 0
BBX 39 54 4 0
BITMAP
00007FE000
0003FFFC00
000FFFFF00
001FFFFF80
007FFFFFC0
007FFFFFE0
00FFFFFFF0
01FFFFFFF8
01FFFFFFF8
03FFE07FFC
03FFC03FFC
03FF801FFC
07FF800FFC
07FF000FFC
07FF000FFC
07FF000000
07FF000000
07FF000000
07FF000000
07FF000000
07FF000000
07FF000000
07FF000000
07FF800000
FFFFFFF000
FFFFFFF000
FFFFFFF000
FFFFFFF000
FFFFFFF000
FFFFFFF000
FFFFFFF000
FFFFFFF000
FFFFFFF000
03FF800000
03FF800000
03FF800000
03FF800000
03FF800000
03FF800000
03FF800000
03FF800000
03FF800000
07FF000000
07FF000000
0FFE000000
FFFFFFFFFE
FFFFFFFFFE
FFFFFFFFFE
FFFFFFFFFE
FFFFFFFFFE
FFFFFFFFFE
FFFFFFFFFE
FFFFFFFFFE
FFFFFFFFFE
ENDCHAR
STARTCHAR currency
ENCODING 164
SWIDTH 692 0
DWIDTH 52 0
BBX 46 47 3 -1
BITMAP
040000000040
0E003FF000E0
1F01FFFE01F0
3F87FFFF83F8
7FDFFFFFE7FC
FFFFFFFFFFFC
7FFFFFFFFFF8
3FFFFFFFFFF0
1FFFE01FFFE0
0FFF8007FFC0
07FE0001FF80
07FC00007F80
0FF800003FC0
0FF000003FE0
1FE000001FE0
1FC000000FE0
3FC000000FF0
3F80000007F0
3F80000007F0
3F80000007F0
7F00000003F8
7F00000003F8
7F00000003F8
7F00000003F8
7F00000003F8
7F00000003F8
7F00000003F8
3F00000003F8
3F80000007F0
3F80000007F0
3F80000007F0
3FC000000FF0
1FC000000FE0
1FE000001FE0
0FF000003FE0
0FF800003FC0
07FC0000FF80
0FFE0001FFC0
1FFF8007FFE0
3FFFE01FFFF0
7FFFFFFFFFF8
FFFFFFFFFFFC
7FFFFFFFFFFC
3F9FFFFFE7F8
1F07FFFF83F0
1E01FFFE01E0
0C003FF000C0
ENDCHAR
STARTCHAR yen
ENCODING 165
SWIDTH 536 0
DWIDTH 40 0
BBX 40 53 0 0
BITMAP
FFF0000FFF
7FF0000FFE
7FF8001FFE
3FF8001FFC
3FFC003FFC
1FFC003FF8
1FFC003FF8
0FFE007FF0
0FFE007FF0
07FF00FFE0
07FF00FFE0
07FF00FFC0
03FF81FFC0
03FF81FFC0
01FFC3FF80
01FFC3FF80
00FFC3FF00
00FFE7FF00
007FE7FE00
007FFFFE00
003FFFFC00
003FFFFC00
003FFFFC00
001FFFF800
001FFFF800
000FFFF000
1FFFFFFFF0
1FFFFFFFF0
1FFFFFFFF0
1FFFFFFFF0
1FFFFFFFF0
1FFFFFFFF0
0003FF8000
0003FF8000
0003FF8000
0003FF8000
0003FF8000
1FFFFFFFF0
1FFFFFFFF0
1FFFFFFFF0
1FFFFFFFF0
1FFFFFFFF0
1FFFFFFFF0
0003FF8000
0003FF8000
0003FF8000
0003FF8000
0003FF8000
0003FF8000
0003FF8000
0003FF8000
0003FF8000
0003FF8000
ENDCHAR
STARTCHAR brokenbar
ENCODING 166
SWIDTH 251 0
DWIDTH 19 0
BBX 9 63 5 -10
BITMAP
FF80
FF80
FF80
FF80
FF80
FF80
FF80
FF80
FF80
FF80
FF80
FF80
FF80
FF80
FF80
FF80
FF80
FF80
FF80
FF80
FF80
FF80
FF80
FF80
FF80
FF80
FF80
FF80
0000
0000
0000
0000
0000
0000
FF80
FF80
FF80
FF80
FF80
FF80
FF80
FF80
FF80
FF80
FF80
FF80
FF80
FF80
FF80
FF80
FF80
FF80
FF80
FF80
FF80
FF80
FF80
FF80
FF80
FF80
FF80
FF80
FF80
ENDCHAR
STARTCHAR section
ENCODING 167
SWIDTH 628 0
DWIDTH 47 0
BBX 40 71 3 -17
BITMAP
0001FFC000
001FFFFC00
007FFFFF00
01FFFFFF80
03FFFFFFE0
07FFFFFFF0
0FFFFFFFF8
1FFFFFFFF8
1FFFFFFFFC
3FFF00FFFC
3FFC003FFE
3FF8001FFE
7FF0000FFE
7FF0000FFE
7FF00007FE
7FF00007FE
7FF0000000
3FF8000000
3FFE000000
3FFF800000
1FFFF00000
1FFFFF0000
0FFFFFE000
07FFFFFC00
03FFFFFF00
07FFFFFFC0
0FFFFFFFE0
1FFFFFFFF0
3FFFFFFFF8
3FF07FFFFC
7FF00FFFFE
7FE001FFFE
7FE0003FFF
FFE0001FFF
FFE0000FFF
FFE00007FF
FFF00003FF
7FF00003FF
7FFC0003FF
7FFF0007FF
3FFFE007FF
3FFFFC0FFE
1FFFFF9FFE
0FFFFFFFFC
07FFFFFFF8
03FFFFFFF0
00FFFFFFC0
003FFFFFE0
000FFFFFF0
0001FFFFF8
00001FFFFC
000003FFFC
0000007FFC
0000003FFE
0000000FFE
FFE0000FFE
FFE00007FE
FFE00007FE
7FF0000FFE
7FF0000FFE
7FFC001FFE
7FFF00FFFC
3FFFFFFFFC
3FFFFFFFFC
1FFFFFFFF8
0FFFFFFFF0
07FFFFFFE0
03FFFFFFC0
00FFFFFF00
003FFFFC00
0003FFC000
ENDCHAR
STARTCHAR dieresis
ENCODING 168
SWIDTH 466 0
DWIDTH 35 0
BBX 28 9 3 45
BITMAP
1F0007C0
3F800FE0
7FC01FF0
7FC03FF0
FFE03FF0
7FC03FF0
7FC01FF0
3F800FE0
1F0007C0
ENDCHAR
STARTCHAR copyright
ENCODING 169
SWIDTH 784 0
DWIDTH 59 0
BBX 52 55 3 -1
BITMAP
000007FE000000
00003FFFE00000
0001FFFFF80000
0007FFFFFE0000
000FFFFFFF8000
003FFC01FFC000
007FC0003FE000
00FF00000FF000
01FE000003F800
03F8000001FC00
03F0000000FE00
07E003FC007F00
0FC01FFF803F00
0F803FFFC01F80
1F807FFFE00F80
1F00FFFFF007C0
3E01FE07F807C0
3E01F801F803E0
3C03F801F803E0
7C03F000FC03E0
7C03E000FC01E0
7807E000FC01F0
7807E000FC01F0
F807E0000001F0
F807E0000000F0
F807E0000000F0
F807E0000000F0
F807E0000000F0
F807E0000000F0
F807E0000000F0
F807E0000000F0
F807E0000001F0
7807E000FC01F0
7807E000FC01F0
7C03E000FC01E0
7C03F000FC03E0
3C03F001F803E0
3E01F801F803E0
3E01FE07F807C0
1F00FFFFF00FC0
1F807FFFE00F80
0F803FFFC01F80
0FC01FFF803F00
07E003FC007E00
03F0000000FE00
03F8000001FC00
01FE000003F800
00FF00000FF000
007FC0003FE000
003FFC01FFC000
000FFFFFFF8000
0007FFFFFE0000
0001FFFFF80000
00003FFFE00000
000007FE000000
ENDCHAR
STARTCHAR ordfeminine
ENCODING 170
SWIDTH 443 0
DWIDTH 33 0
BBX 23 29 5 25
BITMAP
00FF00
07FFC0
1FFFE0
3FFFF0
3FFFF8
7FFFFC
7F83FC
7E01FC
FE00FC
0000FC
0000FE
0000FE
01FFFE
0FFFFE
1FFFFE
3FFFFE
7FFFFE
FF80FE
FE00FE
FC00FE
FC00FE
FE00FE
FF07FE
FFFFFE
7FFFFE
7FFFFE
3FFEFE
1FFC7E
07F000
ENDCHAR
STARTCHAR guillemotleft
ENCODING 171
SWIDTH 499 0
DWIDTH 37 0
BBX 31 29 3 5
BITMAP
003F80FE
007F01FC
00FE03F8
00FE03F8
01FC07F0
03FC0FF0
07F81FE0
07F01FC0
0FF03FC0
1FE07F80
3FE07F80
3FC0FF00
7F81FE00
FF83FE00
FF03FC00
FF83FE00
7F81FE00
3FC0FF00
3FE07F80
1FE07F80
0FF03FC0
07F01FC0
07F81FE0
03FC0FF0
01FC07F0
00FE03F8
00FE03F8
007F01FC
003F80FE
ENDCHAR
STARTCHAR logicalnot
ENCODING 172
SWIDTH 551 0
DWIDTH 41 0
BBX 30 16 5 13
BITMAP
FFFFFFFC
FFFFFFFC
FFFFFFFC
FFFFFFFC
FFFFFFFC
FFFFFFFC
000001FC
000001FC
000001FC
000001FC
000001FC
000001FC
000001FC
000001FC
000001FC
000001FC
ENDCHAR
STARTCHAR uni00AD
ENCODING 173
SWIDTH 387 0
DWIDTH 29 0
BBX 21 9 4 18
BITMAP
FFFFF8
FFFFF8
FFFFF8
FFFFF8
FFFFF8
FFFFF8
FFFFF8
FFFFF8
FFFFF8
ENDCHAR
STARTCHAR registered
ENCODING 174
SWIDTH 784 0
DWIDTH 59 0
BBX 52 55 3 -1
BITMAP
000007FE000000
00003FFFE00000
0001FFFFF80000
0007FFFFFE0000
000FFFFFFF8000
003FFC01FFC000
007FC0003FE000
00FF00000FF000
01FC000003F800
03F8000001FC00
03F0000000FE00
07E1FFFC007E00
0FC1FFFF803F00
0F81FFFFC01F80
1F01FFFFE00F80
1F01FFFFF00FC0
3E01F803F807C0
3E01F801F807C0
7C01F800F803E0
7C01F800F803E0
7C01F800FC01E0
7801F800F801F0
7801F800F801F0
F801F801F801F0
F801F807F001F0
F801FFFFF000F0
F801FFFFC000F0
F801FFFFC000F0
F801FFFFE000F0
F801FFFFF000F0
F801F807F801F0
F801F801F801F0
7801F801F801F0
7801F800F801F0
7C01F800F801E0
7C01F800F803E0
3C01F800F803E0
3E01F800F807C0
3E01F800F807C0
1F01F800FC0FC0
1F01F800FC0F80
0F81F800FC1F80
0FC1F800FC3F00
07E00000007E00
03F0000000FE00
03F8000001FC00
01FE000003F800
00FF00000FF000
007FC0003FE000
003FFC01FFC000
000FFFFFFF0000
0007FFFFFE0000
0001FFFFF80000
00007FFFE00000
000007FE000000
ENDCHAR
STARTCHAR macron
ENCODING 175
SWIDTH 500 0
DWIDTH 38 0
BBX 25 6 7 47
BITMAP
FFFFFF80
FFFFFF80
FFFFFF80
FFFFFF80
FFFFFF80
FFFFFF80
ENDCHAR
STARTCHAR degree
ENCODING 176
SWIDTH 388 0
DWIDTH 29 0
BBX 19 21 5 33
BITMAP
01F800
0FFE00
1FFF00
3FFF80
7FFFC0
7FFFC0
FE0FE0
FC07E0
F803E0
F803E0
F803E0
F803E0
F803E0
FC07E0
FE0FE0
7FFFC0
7FFFC0
3FFF80
1FFF00
0FFE00
01F800
ENDCHAR
STARTCHAR plusminus
ENCODING 177
SWIDTH 537 0
DWIDTH 40 0
BBX 34 48 3 0
BITMAP
0007FC0000
0007FC0000
0007FC0000
0007FC0000
0007FC0000
0007FC0000
0007FC0000
0007FC0000
0007FC0000
0007FC0000
0007FC0000
0007FC0000
0007FC0000
FFFFFFFFC0
FFFFFFFFC0
FFFFFFFFC0
FFFFFFFFC0
FFFFFFFFC0
FFFFFFFFC0
FFFFFFFFC0
FFFFFFFFC0
FFFFFFFFC0
0007FC0000
0007FC0000
0007FC0000
0007FC0000
0007FC0000
0007FC0000
0007FC0000
0007FC0000
0007FC0000
0007FC0000
0007FC0000
0007FC0000
0007FC0000
0000000000
0000000000
0000000000
0000000000
7FFFFFFF80
7FFFFFFF80
7FFFFFFF80
7FFFFFFF80
7FFFFFFF80
7FFFFFFF80
7FFFFFFF80
7FFFFFFF80
7FFFFFFF80
ENDCHAR
STARTCHAR uni00B2
ENCODING 178
SWIDTH 372 0
DWIDTH 28 0
BBX 23 30 2 24
BITMAP
00FF00
07FFC0
0FFFF0
1FFFF8
3FFFF8
7FFFFC
7FC3FC
FF01FC
FF01FE
FF01FE
0001FC
0003FC
0003FC
0007FC
000FF8
001FF0
003FE0
007FC0
00FF80
01FF00
07FE00
0FFC00
1FF000
3FE000
7FFFFE
7FFFFE
7FFFFE
7FFFFE
7FFFFE
7FFFFE
ENDCHAR
STARTCHAR uni00B3
ENCODING 179
SWIDTH 372 0
DWIDTH 28 0
BBX 23 30 2 24
BITMAP
01FF00
07FFE0
1FFFF0
3FFFF8
7FFFFC
7FFFFC
FF83FE
FF01FE
0001FE
0001FE
0001FC
0003FC
00FFF8
00FFF0
00FFC0
00FFF0
00FFFC
0003FC
0001FE
0000FE
0000FE
FE00FE
FF01FE
FF83FE
7FFFFE
7FFFFC
3FFFF8
1FFFF0
0FFFE0
01FF00
ENDCHAR
STARTCHAR acute
ENCODING 180
SWIDTH 331 0
DWIDTH 25 0
BBX 18 11 4 45
BITMAP
01FFC0
03FF80
07FF00
07FE00
0FFC00
1FF800
1FF000
3FF000
7FE000
7FC000
FF8000
ENDCHAR
STARTCHAR mu
ENCODING 181
SWIDTH 615 0
DWIDTH 46 0
BBX 35 55 5 -15
BITMAP
FFE0007FE0
FFE0007FE0
FFE0007FE0
FFE0007FE0
FFE0007FE0
FFE0007FE0
FFE0007FE0
FFE0007FE0
FFE0007FE0
FFE0007FE0
FFE0007FE0
FFE0007FE0
FFE0007FE0
FFE0007FE0
FFE0007FE0
FFE0007FE0
FFE0007FE0
FFE0007FE0
FFE0007FE0
FFE0007FE0
FFE0007FE0
FFE0007FE0
FFE0007FE0
FFE0007FE0
FFE0007FE0
FFE0007FE0
FFE0007FE0
FFE0007FE0
FFE000FFE0
FFF000FFE0
FFF801FFE0
FFFC07FFE0
FFFFFFFFE0
FFFFFFFFE0
FFFFFFFFE0
FFFFFFFFE0
FFFFFFFFE0
FFFFFFFFE0
FFFFFF7FE0
FFFFFE7FE0
FFE7F80000
FFE0000000
FFE0000000
FFE0000000
FFE0000000
FFE0000000
FFE0000000
FFE0000000
FFE0000000
FFE0000000
FFE0000000
FFE0000000
FFE0000000
FFE0000000
FFE0000000
ENDCHAR
STARTCHAR paragraph
ENCODING 182
SWIDTH 489 0
DWIDTH 37 0
BBX 29 53 3 0
BITMAP
0007FFF8
003FFFF8
00FFFFF8
03FFFFF8
07FFFFF8
0FFFFFF8
1FFFFFF8
3FFFFFF8
3FFFFFF8
7FFFFFF8
7FFFFFF8
7FFFFFF8
FFFFFFF8
FFFFFFF8
FFFFFFF8
FFFFFFF8
FFFFFFF8
FFFFFFF8
FFFFFFF8
FFFFFFF8
FFFFFFF8
FFFFFFF8
7FFFFFF8
7FFFFFF8
7FFFFFF8
3FFFFFF8
3FFFFFF8
1FFFFFF8
0FFFFFF8
07FFFFF8
03FFFFF8
01FFFFF8
007FFFF8
0007FFF8
000007F8
000007F8
000007F8
000007F8
000007F8
000007F8
000007F8
000007F8
000007F8
000007F8
000007F8
000007F8
000007F8
000007F8
000007F8
000007F8
000007F8
000007F8
000007F8
ENDCHAR
STARTCHAR periodcentered
ENCODING 183
SWIDTH 301 0
DWIDTH 23 0
BBX 12 11 5 20
BITMAP
0F80
3FE0
7FE0
7FF0
FFF0
FFF0
FFF0
7FF0
7FE0
3FE0
0F80
ENDCHAR
STARTCHAR cedilla
ENCODING 184
SWIDTH 267 0
DWIDTH 20 0
BBX 14 17 4 -17
BITMAP
7F80
FF00
FFC0
FFF0
FFF8
3FF8
0FF8
07FC
07FC
0FFC
1FF8
7FF8
7FF0
7FF0
7FE0
7F80
7C00
ENDCHAR
STARTCHAR uni00B9
ENCODING 185
SWIDTH 372 0
DWIDTH 28 0
BBX 14 29 5 24
BITMAP
000C
007C
07FC
3FFC
FFFC
FFFC
FFFC
FFFC
FFFC
C1FC
01FC
01FC
01FC
01FC
01FC
01FC
01FC
01FC
01FC
01FC
01FC
01FC
01FC
01FC
01FC
01FC
01FC
01FC
01FC
ENDCHAR
STARTCHAR ordmasculine
ENCODING 186
SWIDTH 457 0
DWIDTH 34 0
BBX 26 29 4 25
BITMAP
007F8000
01FFE000
07FFF800
0FFFFC00
1FFFFE00
3FFFFF00
3FC0FF00
7F807F80
7F003F80
7E001F80
FE001F80
FE001FC0
FE001FC0
FE001FC0
FE001FC0
FE001FC0
FE001FC0
FE001FC0
7E001FC0
7E001F80
7F003F80
7F807F80
3FC0FF00
3FFFFF00
1FFFFE00
0FFFFC00
07FFF800
01FFE000
007F8000
ENDCHAR
STARTCHAR guillemotright
ENCODING 187
SWIDTH 499 0
DWIDTH 37 0
BBX 32 29 3 5
BITMAP
FE01FC00
7F01FC00
3F80FE00
3FC07F00
1FC07F80
1FE03F80
0FF03FC0
07F01FE0
07F80FF0
03FC0FF0
03FE07F8
01FE07FC
00FF03FC
00FF81FE
007F81FF
00FF81FE
00FF03FC
01FE07FC
03FE07F8
03FC0FF0
07F80FF0
07F01FE0
0FF03FC0
1FE03F80
1FC07F80
3FC07F00
3F80FE00
7F01FC00
FE01FC00
ENDCHAR
STARTCHAR onequarter
ENCODING 188
SWIDTH 717 0
DWIDTH 54 0
BBX 47 53 4 0
BITMAP
000C00000000
00FC00000000
07FC00000000
7FFC00000000
FFFC00000000
FFFC00006000
FFFC00007000
FFFC0000FC00
FFFC0001FE00
C1FC0001FC00
01FC0003F800
01FC0003F000
01FC0007F000
01FC000FE000
01FC000FE000
01FC001FC000
01FC003F8000
01FC003F8000
01FC007F0000
01FC00FE0000
01FC00FE0000
01FC01FC0000
01FC01FC0000
01FC03F80000
01FC07F00FF0
01FC07F01FF0
01FC0FE03FF0
01FC1FC03FF0
01FC1FC07FF0
00003F80FFF0
00003F01FFF0
00007F01FFF0
0000FE03FFF0
0000FE07FFF0
0001FC07EFF0
0003F80FEFF0
0003F81FCFF0
0007F03F8FF0
000FE03F0FF0
000FE07E0FF0
001FC0FE0FF0
001FC0FFFFFE
003F81FFFFFE
007F01FFFFFE
007F01FFFFFE
00FE01FFFFFE
00FC01FFFFFE
003C00000FF0
000800000FF0
000000000FF0
000000000FF0
000000000FF0
000000000FF0
ENDCHAR
STARTCHAR onehalf
ENCODING 189
SWIDTH 761 0
DWIDTH 57 0
BBX 51 54 3 0
BITMAP
000C0000000000
007C0000000000
07FC0000000000
3FFC0000000000
FFFC0000000000
FFFC0000000000
FFFC0000400000
FFFC0000F00000
FFFC0000FC0000
C1FC0001FC0000
01FC0003F80000
01FC0003F80000
01FC0007F00000
01FC000FE00000
01FC000FE00000
01FC001FC00000
01FC003F800000
01FC003F800000
01FC007F000000
01FC007F000000
01FC00FE000000
01FC01FC000000
01FC01FC000000
01FC03F8000000
01FC07F0000000
01FC07F01FE000
01FC0FE07FFC00
01FC0FC1FFFF00
01FC1FC3FFFF80
00003F87FFFF80
00003F87FFFFC0
00007F0FF83FC0
0000FE0FF03FC0
0000FE0FF01FC0
0001FC0FE01FC0
0003F800003FC0
0003F800003FC0
0007F000007FC0
0007F00000FF80
000FE00001FF00
001FC00003FE00
001FC00007FC00
003F80000FF800
007F00001FF000
007F00007FE000
00FE0000FFC000
00FC0001FF0000
01FC0003FE0000
00780007FFFFE0
0018000FFFFFE0
0000000FFFFFE0
0000000FFFFFE0
0000000FFFFFE0
0000000FFFFFE0
ENDCHAR
STARTCHAR threequarters
ENCODING 190
SWIDTH 808 0
DWIDTH 61 0
BBX 54 53 3 0
BITMAP
00FF8000000000
07FFF000000000
0FFFF800000000
1FFFFC00000000
3FFFFE00000000
7FFFFE00008000
7FC1FE0000E000
7F80FF0001F800
0000FF0003FC00
0000FE0003F800
0001FE0007F000
007FFC000FE000
007FF8000FE000
007FE0001FC000
007FF8001F8000
007FFC003F8000
0001FE007F0000
0000FF007F0000
0000FF00FE0000
00007F01FC0000
FF00FF01FC0000
7F80FF03F80000
7FC1FF07F00000
7FFFFE07F00000
3FFFFE0FE01FC0
3FFFFC0FE03FC0
1FFFF81FC07FC0
07FFE03F80FFC0
00FF003F80FFC0
0000007F01FFC0
000000FE03FFC0
000000FE07FFC0
000001FC07FFC0
000001F80FFFC0
000003F81FDFC0
000007F01F9FC0
000007F03F9FC0
00000FE07F1FC0
00001FC0FE1FC0
00001FC0FC1FC0
00003F81F81FC0
00007F03FFFFFC
00007F03FFFFFC
0000FE03FFFFFC
0000FE03FFFFFC
0001FC03FFFFFC
0003F803FFFFFC
00007800001FC0
00001000001FC0
00000000001FC0
00000000001FC0
00000000001FC0
00000000001FC0
ENDCHAR
STARTCHAR questiondown
ENCODING 191
SWIDTH 497 0
DWIDTH 37 0
BBX 33 54 2 -14
BITMAP
0001F00000
0007FC0000
000FFE0000
000FFE0000
000FFE0000
000FFF0000
000FFE0000
000FFE0000
0007FE0000
0007FC0000
0001F00000
0000000000
0000000000
0000000000
0000000000
0000000000
0000000000
0007FC0000
0007FC0000
0007FC0000
000FFC0000
000FFC0000
000FFC0000
001FF80000
003FF80000
007FF80000
00FFF00000
01FFF00000
03FFE00000
07FFC00000
0FFF800000
1FFF000000
1FFE000000
3FFC000000
3FF8000000
7FF0000000
7FF0000000
7FE0000000
FFE0000000
FFE001FF80
FFE001FF80
FFE003FF80
7FF003FF80
7FF007FF80
7FFC1FFF80
7FFFFFFF00
3FFFFFFF00
3FFFFFFE00
1FFFFFFC00
0FFFFFFC00
07FFFFF000
03FFFFE000
00FFFF8000
001FFC0000
ENDCHAR
STARTCHAR Agrave
ENCODING 192
SWIDTH 672 0
DWIDTH 50 0
BBX 50 67 0 0
BITMAP
000FFF00000000
0007FF00000000
0003FF80000000
0001FFC0000000
0000FFC0000000
00007FE0000000
00003FF0000000
00001FF0000000
00000FF8000000
000007FC000000
000007FC000000
00000002000000
00000000000000
00000000000000
00000FFC000000
00000FFE000000
00001FFE000000
00001FFF000000
00003FFF000000
00003FFF000000
00003FFF800000
00007FFF800000
00007FFF800000
00007FFFC00000
0000FFFFC00000
0000FFFFE00000
0001FFFFE00000
0001FFFFE00000
0001FFBFF00000
0003FFBFF00000
0003FF3FF00000
0003FF1FF80000
0007FE1FF80000
0007FE1FFC0000
000FFE0FFC0000
000FFC0FFC0000
000FFC0FFE0000
001FFC07FE0000
001FF807FF0000
001FF807FF0000
003FF803FF0000
003FF003FF8000
007FF003FF8000
007FF001FF8000
007FE001FFC000
00FFE001FFC000
00FFE000FFE000
00FFFFFFFFE000
01FFFFFFFFE000
01FFFFFFFFF000
03FFFFFFFFF000
03FFFFFFFFF000
03FFFFFFFFF800
07FFFFFFFFF800
07FFFFFFFFFC00
07FFFFFFFFFC00
0FFE00001FFC00
0FFE00001FFE00
1FFE00000FFE00
1FFC00000FFE00
1FFC00000FFF00
3FFC000007FF00
3FF8000007FF80
3FF8000007FF80
7FF8000003FF80
7FF0000003FFC0
FFF0000003FFC0
ENDCHAR
STARTCHAR Aacute
ENCODING 193
SWIDTH 672 0
DWIDTH 50 0
BBX 50 67 0 0
BITMAP
0000001FFE0000
0000003FFC0000
0000003FF80000
0000007FF00000
000000FFE00000
000000FFC00000
000001FF800000
000001FF000000
000003FE000000
000007FC000000
000007F8000000
00000800000000
00000000000000
00000000000000
00000FFC000000
00000FFE000000
00001FFE000000
00001FFF000000
00003FFF000000
00003FFF000000
00003FFF800000
00007FFF800000
00007FFF800000
00007FFFC00000
0000FFFFC00000
0000FFFFE00000
0001FFFFE00000
0001FFFFE00000
0001FFBFF00000
0003FFBFF00000
0003FF3FF00000
0003FF1FF80000
0007FE1FF80000
0007FE1FFC0000
000FFE0FFC0000
000FFC0FFC0000
000FFC0FFE0000
001FFC07FE0000
001FF807FF0000
001FF807FF0000
003FF803FF0000
003FF003FF8000
007FF003FF8000
007FF001FF8000
007FE001FFC000
00FFE001FFC000
00FFE000FFE000
00FFFFFFFFE000
01FFFFFFFFE000
01FFFFFFFFF000
03FFFFFFFFF000
03FFFFFFFFF000
03FFFFFFFFF800
07FFFFFFFFF800
07FFFFFFFFFC00
07FFFFFFFFFC00
0FFE00001FFC00
0FFE00001FFE00
1FFE00000FFE00
1FFC00000FFE00
1FFC00000FFF00
3FFC000007FF00
3FF8000007FF80
3FF8000007FF80
7FF8000003FF80
7FF0000003FFC0
FFF0000003FFC0
ENDCHAR
STARTCHAR Acircumflex
ENCODING 194
SWIDTH 672 0
DWIDTH 50 0
BBX 50 68 0 0
BITMAP
000003F8000000
000007FC000000
00000FFE000000
00003FFF000000
00007FFF800000
0000FFFFC00000
0001FF3FF00000
0003FE1FF80000
0007FC0FFC0000
000FF807FE0000
001FF003FE0000
00000000000000
00000000000000
00000000000000
00000000000000
00000FFC000000
00000FFE000000
00001FFE000000
00001FFF000000
00003FFF000000
00003FFF000000
00003FFF800000
00007FFF800000
00007FFF800000
00007FFFC00000
0000FFFFC00000
0000FFFFE00000
0001FFFFE00000
0001FFFFE00000
0001FFBFF00000
0003FFBFF00000
0003FF3FF00000
0003FF1FF80000
0007FE1FF80000
0007FE1FFC0000
000FFE0FFC0000
000FFC0FFC0000
000FFC0FFE0000
001FFC07FE0000
001FF807FF0000
001FF807FF0000
003FF803FF0000
003FF003FF8000
007FF003FF8000
007FF001FF8000
007FE001FFC000
00FFE001FFC000
00FFE000FFE000
00FFFFFFFFE000
01FFFFFFFFE000
01FFFFFFFFF000
03FFFFFFFFF000
03FFFFFFFFF000
03FFFFFFFFF800
07FFFFFFFFF800
07FFFFFFFFFC00
07FFFFFFFFFC00
0FFE00001FFC00
0FFE00001FFE00
1FFE00000FFE00
1FFC00000FFE00
1FFC00000FFF00
3FFC000007FF00
3FF8000007FF80
3FF8000007FF80
7FF8000003FF80
7FF0000003FFC0
FFF0000003FFC0
ENDCHAR
STARTCHAR Atilde
ENCODING 195
SWIDTH 672 0
DWIDTH 50 0
BBX 50 66 0 0
BITMAP
00007E007E0000
0001FF807E0000
0003FFE0FE0000
0007FFFFFE0000
000FFFFFFC0000
000FFFFFF80000
000FE1FFF80000
000FC07FE00000
000FC00FC00000
00000000000000
00000000000000
00000000000000
00000000000000
00000FFC000000
00000FFE000000
00001FFE000000
00001FFF000000
00003FFF000000
00003FFF000000
00003FFF800000
00007FFF800000
00007FFF800000
00007FFFC00000
0000FFFFC00000
0000FFFFE00000
0001FFFFE00000
0001FFFFE00000
0001FFBFF00000
0003FFBFF00000
0003FF3FF00000
0003FF1FF80000
0007FE1FF80000
0007FE1FFC0000
000FFE0FFC0000
000FFC0FFC0000
000FFC0FFE0000
001FFC07FE0000
001FF807FF0000
001FF807FF0000
003FF803FF0000
003FF003FF8000
007FF003FF8000
007FF001FF8000
007FE001FFC000
00FFE001FFC000
00FFE000FFE000
00FFFFFFFFE000
01FFFFFFFFE000
01FFFFFFFFF000
03FFFFFFFFF000
03FFFFFFFFF000
03FFFFFFFFF800
07FFFFFFFFF800
07FFFFFFFFFC00
07FFFFFFFFFC00
0FFE00001FFC00
0FFE00001FFE00
1FFE00000FFE00
1FFC00000FFE00
1FFC00000FFF00
3FFC000007FF00
3FF8000007FF80
3FF8000007FF80
7FF8000003FF80
7FF0000003FFC0
FFF0000003FFC0
ENDCHAR
STARTCHAR Adieresis
ENCODING 196
SWIDTH 672 0
DWIDTH 50 0
BBX 50 65 0 0
BITMAP
0003E000F80000
0007F003FC0000
000FF803FE0000
001FF807FE0000
001FF807FE0000
001FFC07FE0000
000FF803FE0000
0007F003FC0000
0003E000F80000
00000000000000
00000000000000
00000000000000
00000FFC000000
00000FFE000000
00001FFE000000
00001FFF000000
00003FFF000000
00003FFF000000
00003FFF800000
00007FFF800000
00007FFF800000
00007FFFC00000
0000FFFFC00000
0000FFFFE00000
0001FFFFE00000
0001FFFFE00000
0001FFBFF00000
0003FFBFF00000
0003FF3FF00000
0003FF1FF80000
0007FE1FF80000
0007FE1FFC0000
000FFE0FFC0000
000FFC0FFC0000
000FFC0FFE0000
001FFC07FE0000
001FF807FF0000
001FF807FF0000
003FF803FF0000
003FF003FF8000
007FF003FF8000
007FF001FF8000
007FE001FFC000
00FFE001FFC000
00FFE000FFE000
00FFFFFFFFE000
01FFFFFFFFE000
01FFFFFFFFF000
03FFFFFFFFF000
03FFFFFFFFF000
03FFFFFFFFF800
07FFFFFFFFF800
07FFFFFFFFFC00
07FFFFFFFFFC00
0FFE00001FFC00
0FFE00001FFE00
1FFE00000FFE00
1FFC00000FFE00
1FFC00000FFF00
3FFC000007FF00
3FF8000007FF80
3FF8000007FF80
7FF8000003FF80
7FF0000003FFC0
FFF0000003FFC0
ENDCHAR
STARTCHAR Aring
ENCODING 197
SWIDTH 672 0
DWIDTH 50 0
BBX 50 71 0 0
BITMAP
000003F0000000
00000FFC000000
00001FFE000000
00003FFF000000
00003E0F800000
00007C07800000
00007C07800000
00007807C00000
00007C07800000
00007C07800000
00003E0F800000
00003FBF000000
00001FFF000000
00000FFC000000
000003F0000000
00000000000000
00000000000000
00000000000000
00000FFC000000
00000FFE000000
00001FFE000000
00001FFF000000
00003FFF000000
00003FFF000000
00003FFF800000
00007FFF800000
00007FFF800000
00007FFFC00000
0000FFFFC00000
0000FFFFE00000
0001FFFFE00000
0001FFFFE00000
0001FFBFF00000
0003FFBFF00000
0003FF3FF00000
0003FF1FF80000
0007FE1FF80000
0007FE1FFC0000
000FFE0FFC0000
000FFC0FFC0000
000FFC0FFE0000
001FFC07FE0000
001FF807FF0000
001FF807FF0000
003FF803FF0000
003FF003FF8000
007FF003FF8000
007FF001FF8000
007FE001FFC000
00FFE001FFC000
00FFE000FFE000
00FFFFFFFFE000
01FFFFFFFFE000
01FFFFFFFFF000
03FFFFFFFFF000
03FFFFFFFFF000
03FFFFFFFFF800
07FFFFFFFFF800
07FFFFFFFFFC00
07FFFFFFFFFC00
0FFE00001FFC00
0FFE00001FFE00
1FFE00000FFE00
1FFC00000FFE00
1FFC00000FFF00
3FFC000007FF00
3FF8000007FF80
3FF8000007FF80
7FF8000003FF80
7FF0000003FFC0
FFF0000003FFC0
ENDCHAR
STARTCHAR AE
ENCODING 198
SWIDTH 939 0
DWIDTH 71 0
BBX 68 53 0 0
BITMAP
00000007FFFFFFFFC0
0000000FFFFFFFFFC0
0000001FFFFFFFFFC0
0000001FFFFFFFFFC0
0000003FFFFFFFFFC0
0000003FFFFFFFFFC0
0000007FFFFFFFFFC0
0000007FFFFFFFFFC0
000000FFFFFFFFFFC0
000000FFFFF0000000
000001FFFFF0000000
000001FFFFF0000000
000003FFBFF0000000
000003FFBFF0000000
000007FF3FF0000000
00000FFF3FF0000000
00000FFE3FF0000000
00001FFC3FF8000000
00001FFC3FF8000000
00003FF83FF8000000
00003FF83FF8000000
00007FF03FF8000000
00007FF03FFFFFFE00
0000FFE03FFFFFFE00
0000FFE03FFFFFFE00
0001FFC03FFFFFFE00
0003FFC03FFFFFFE00
0003FF803FFFFFFE00
0007FF803FFFFFFE00
0007FF003FFFFFFE00
000FFF001FFFFFFE00
000FFE001FF8000000
001FFFFFFFF8000000
001FFFFFFFF8000000
003FFFFFFFF8000000
003FFFFFFFF8000000
007FFFFFFFF8000000
00FFFFFFFFF8000000
00FFFFFFFFF8000000
01FFFFFFFFF8000000
01FFFFFFFFFC000000
03FFC0001FFC000000
03FFC0001FFC000000
07FF80001FFC000000
07FF80001FFFFFFFF0
0FFF00001FFFFFFFF0
0FFF00001FFFFFFFF0
1FFE00001FFFFFFFF0
1FFE00001FFFFFFFF0
3FFC00001FFFFFFFF0
7FFC00001FFFFFFFF0
7FF800001FFFFFFFF0
FFF800001FFFFFFFF0
ENDCHAR
STARTCHAR Ccedilla
ENCODING 199
SWIDTH 654 0
DWIDTH 49 0
BBX 44 71 3 -17
BITMAP
00007FF00000
0003FFFE0000
000FFFFFC000
003FFFFFE000
007FFFFFF800
00FFFFFFFC00
01FFFFFFFE00
03FFFFFFFF00
07FFFFFFFF00
0FFFE03FFF80
0FFF8007FF80
1FFE0003FFC0
1FFC0001FFC0
3FFC0001FFE0
3FF80000FFE0
3FF80000FFE0
7FF00000FFE0
7FF000007FF0
7FF000007FF0
7FF000000000
FFF000000000
FFE000000000
FFE000000000
FFE000000000
FFE000000000
FFE000000000
FFE000000000
FFE000000000
FFE000000000
FFE000000000
FFE000000000
FFE000000000
FFE000000000
FFE000000000
FFF000000000
7FF000000000
7FF000007FF0
7FF00000FFF0
7FF00000FFE0
3FF80000FFE0
3FF80000FFE0
3FFC0001FFE0
1FFC0001FFC0
1FFE0003FFC0
0FFF0007FFC0
0FFFE03FFF80
07FFFFFFFF00
03FFFFFFFF00
03FFFFFFFE00
01FFFFFFFC00
00FFFFFFF800
003FFFFFE000
001FFFFFC000
0003FFFE0000
00007FF00000
00003FC00000
00003FE00000
00007FF80000
00007FFC0000
00000FFE0000
000003FE0000
000003FE0000
000003FE0000
000003FE0000
000007FE0000
00003FFE0000
00003FFC0000
00003FF80000
00003FF00000
00003FC00000
00003E000000
ENDCHAR
STARTCHAR Egrave
ENCODING 200
SWIDTH 562 0
DWIDTH 42 0
BBX 36 67 5 0
BITMAP
07FF800000
03FF800000
01FFC00000
00FFE00000
007FE00000
003FF00000
001FF80000
000FF80000
0007FC0000
0007FE0000
0003FE0000
0000010000
0000000000
0000000000
FFFFFFFFE0
FFFFFFFFE0
FFFFFFFFE0
FFFFFFFFE0
FFFFFFFFE0
FFFFFFFFE0
FFFFFFFFE0
FFFFFFFFE0
FFFFFFFFE0
FFE0000000
FFE0000000
FFE0000000
FFE0000000
FFE0000000
FFE0000000
FFE0000000
FFE0000000
FFE0000000
FFE0000000
FFE0000000
FFE0000000
FFFFFFFF00
FFFFFFFF00
FFFFFFFF00
FFFFFFFF00
FFFFFFFF00
FFFFFFFF00
FFFFFFFF00
FFFFFFFF00
FFFFFFFF00
FFE0000000
FFE0000000
FFE0000000
FFE0000000
FFE0000000
FFE0000000
FFE0000000
FFE0000000
FFE0000000
FFE0000000
FFE0000000
FFE0000000
FFE0000000
FFE0000000
FFFFFFFFF0
FFFFFFFFF0
FFFFFFFFF0
FFFFFFFFF0
FFFFFFFFF0
FFFFFFFFF0
FFFFFFFFF0
FFFFFFFFF0
FFFFFFFFF0
ENDCHAR
STARTCHAR Eacute
ENCODING 201
SWIDTH 562 0
DWIDTH 42 0
BBX 36 67 5 0
BITMAP
00000FFF00
00001FFE00
00001FFC00
00003FF800
00007FF000
00007FE000
0000FFC000
0001FF8000
0001FF0000
0003FE0000
0007FC0000
0000000000
0000000000
0000000000
FFFFFFFFE0
FFFFFFFFE0
FFFFFFFFE0
FFFFFFFFE0
FFFFFFFFE0
FFFFFFFFE0
FFFFFFFFE0
FFFFFFFFE0
FFFFFFFFE0
FFE0000000
FFE0000000
FFE0000000
FFE0000000
FFE0000000
FFE0000000
FFE0000000
FFE0000000
FFE0000000
FFE0000000
FFE0000000
FFE0000000
FFFFFFFF00
FFFFFFFF00
FFFFFFFF00
FFFFFFFF00
FFFFFFFF00
FFFFFFFF00
FFFFFFFF00
FFFFFFFF00
FFFFFFFF00
FFE0000000
FFE0000000
FFE0000000
FFE0000000
FFE0000000
FFE0000000
FFE0000000
FFE0000000
FFE0000000
FFE0000000
FFE0000000
FFE0000000
FFE0000000
FFE0000000
FFFFFFFFF0
FFFFFFFFF0
FFFFFFFFF0
FFFFFFFFF0
FFFFFFFFF0
FFFFFFFFF0
FFFFFFFFF0
FFFFFFFFF0
FFFFFFFFF0
ENDCHAR
STARTCHAR Ecircumflex
ENCODING 202
SWIDTH 562 0
DWIDTH 42 0
BBX 36 68 5 0
BITMAP
0001FC0000
0003FE0000
000FFF0000
001FFF8000
003FFFC000
007FFFE000
00FF9FF000
01FF0FFC00
03FE07FE00
07FC03FF00
0FF801FF00
0000000000
0000000000
0000000000
0000000000
FFFFFFFFE0
FFFFFFFFE0
FFFFFFFFE0
FFFFFFFFE0
FFFFFFFFE0
FFFFFFFFE0
FFFFFFFFE0
FFFFFFFFE0
FFFFFFFFE0
FFE0000000
FFE0000000
FFE0000000
FFE0000000
FFE0000000
FFE0000000
FFE0000000
FFE0000000
FFE0000000
FFE0000000
FFE0000000
FFE0000000
FFFFFFFF00
FFFFFFFF00
FFFFFFFF00
FFFFFFFF00
FFFFFFFF00
FFFFFFFF00
FFFFFFFF00
FFFFFFFF00
FFFFFFFF00
FFE0000000
FFE0000000
FFE0000000
FFE0000000
FFE0000000
FFE0000000
FFE0000000
FFE0000000
FFE0000000
FFE0000000
FFE0000000
FFE0000000
FFE0000000
FFE0000000
FFFFFFFFF0
FFFFFFFFF0
FFFFFFFFF0
FFFFFFFFF0
FFFFFFFFF0
FFFFFFFFF0
FFFFFFFFF0
FFFFFFFFF0
FFFFFFFFF0
ENDCHAR
STARTCHAR Edieresis
ENCODING 203
SWIDTH 562 0
DWIDTH 42 0
BBX 36 65 5 0
BITMAP
01F0007C00
07F801FE00
07FC01FF00
0FFC03FF00
0FFC03FF00
0FFC03FF00
07FC01FF00
07F801FE00
01F0007C00
0000000000
0000000000
0000000000
FFFFFFFFE0
FFFFFFFFE0
FFFFFFFFE0
FFFFFFFFE0
FFFFFFFFE0
FFFFFFFFE0
FFFFFFFFE0
FFFFFFFFE0
FFFFFFFFE0
FFE0000000
FFE0000000
FFE0000000
FFE0000000
FFE0000000
FFE0000000
FFE0000000
FFE0000000
FFE0000000
FFE0000000
FFE0000000
FFE0000000
FFFFFFFF00
FFFFFFFF00
FFFFFFFF00
FFFFFFFF00
FFFFFFFF00
FFFFFFFF00
FFFFFFFF00
FFFFFFFF00
FFFFFFFF00
FFE0000000
FFE0000000
FFE0000000
FFE0000000
FFE0000000
FFE0000000
FFE0000000
FFE0000000
FFE0000000
FFE0000000
FFE0000000
FFE0000000
FFE0000000
FFE0000000
FFFFFFFFF0
FFFFFFFFF0
FFFFFFFFF0
FFFFFFFFF0
FFFFFFFFF0
FFFFFFFFF0
FFFFFFFFF0
FFFFFFFFF0
FFFFFFFFF0
ENDCHAR
STARTCHAR Igrave
ENCODING 204
SWIDTH 291 0
DWIDTH 22 0
BBX 19 67 -3 0
BITMAP
FFF000
3FF800
1FFC00
0FFC00
07FE00
07FF00
03FF00
01FF80
00FFC0
007FC0
003FE0
000000
000000
000000
00FFE0
00FFE0
00FFE0
00FFE0
00FFE0
00FFE0
00FFE0
00FFE0
00FFE0
00FFE0
00FFE0
00FFE0
00FFE0
00FFE0
00FFE0
00FFE0
00FFE0
00FFE0
00FFE0
00FFE0
00FFE0
00FFE0
00FFE0
00FFE0
00FFE0
00FFE0
00FFE0
00FFE0
00FFE0
00FFE0
00FFE0
00FFE0
00FFE0
00FFE0
00FFE0
00FFE0
00FFE0
00FFE0
00FFE0
00FFE0
00FFE0
00FFE0
00FFE0
00FFE0
00FFE0
00FFE0
00FFE0
00FFE0
00FFE0
00FFE0
00FFE0
00FFE0
00FFE0
ENDCHAR
STARTCHAR Iacute
ENCODING 205
SWIDTH 291 0
DWIDTH 22 0
BBX 20 67 5 0
BITMAP
00FFF0
01FFC0
03FF80
03FF00
07FE00
0FFE00
0FFC00
1FF800
3FF000
3FE000
7FC000
000000
000000
000000
FFE000
FFE000
FFE000
FFE000
FFE000
FFE000
FFE000
FFE000
FFE000
FFE000
FFE000
FFE000
FFE000
FFE000
FFE000
FFE000
FFE000
FFE000
FFE000
FFE000
FFE000
FFE000
FFE000
FFE000
FFE000
FFE000
FFE000
FFE000
FFE000
FFE000
FFE000
FFE000
FFE000
FFE000
FFE000
FFE000
FFE000
FFE000
FFE000
FFE000
FFE000
FFE000
FFE000
FFE000
FFE000
FFE000
FFE000
FFE000
FFE000
FFE000
FFE000
FFE000
FFE000
ENDCHAR
STARTCHAR Icircumflex
ENCODING 206
SWIDTH 291 0
DWIDTH 22 0
BBX 28 68 -3 0
BITMAP
003FC000
007FE000
00FFF000
01FFF800
03FFFC00
07FFFE00
0FF9FF00
1FF0FF80
3FE07FC0
FFC03FE0
FF801FF0
00000000
00000000
00000000
00000000
00FFE000
00FFE000
00FFE000
00FFE000
00FFE000
00FFE000
00FFE000
00FFE000
00FFE000
00FFE000
00FFE000
00FFE000
00FFE000
00FFE000
00FFE000
00FFE000
00FFE000
00FFE000
00FFE000
00FFE000
00FFE000
00FFE000
00FFE000
00FFE000
00FFE000
00FFE000
00FFE000
00FFE000
00FFE000
00FFE000
00FFE000
00FFE000
00FFE000
00FFE000
00FFE000
00FFE000
00FFE000
00FFE000
00FFE000
00FFE000
00FFE000
00FFE000
00FFE000
00FFE000
00FFE000
00FFE000
00FFE000
00FFE000
00FFE000
00FFE000
00FFE000
00FFE000
00FFE000
ENDCHAR
STARTCHAR Idieresis
ENCODING 207
SWIDTH 291 0
DWIDTH 22 0
BBX 28 65 -3 0
BITMAP
1E000780
7F801FE0
FFC03FE0
FFC03FF0
FFC03FF0
FFC03FF0
FFC03FE0
7F801FE0
1E000F80
00000000
00000000
00000000
00FFE000
00FFE000
00FFE000
00FFE000
00FFE000
00FFE000
00FFE000
00FFE000
00FFE000
00FFE000
00FFE000
00FFE000
00FFE000
00FFE000
00FFE000
00FFE000
00FFE000
00FFE000
00FFE000
00FFE000
00FFE000
00FFE000
00FFE000
00FFE000
00FFE000
00FFE000
00FFE000
00FFE000
00FFE000
00FFE000
00FFE000
00FFE000
00FFE000
00FFE000
00FFE000
00FFE000
00FFE000
00FFE000
00FFE000
00FFE000
00FFE000
00FFE000
00FFE000
00FFE000
00FFE000
00FFE000
00FFE000
00FFE000
00FFE000
00FFE000
00FFE000
00FFE000
00FFE000
ENDCHAR
STARTCHAR Eth
ENCODING 208
SWIDTH 664 0
DWIDTH 50 0
BBX 48 53 -1 0
BITMAP
01FFFFF80000
01FFFFFF0000
01FFFFFFE000
01FFFFFFF000
01FFFFFFFC00
01FFFFFFFE00
01FFFFFFFF00
01FFFFFFFF80
01FFFFFFFFC0
01FFC01FFFE0
01FFC003FFF0
01FFC001FFF0
01FFC0007FF8
01FFC0007FF8
01FFC0003FFC
01FFC0001FFC
01FFC0001FFC
01FFC0001FFE
01FFC0000FFE
01FFC0000FFE
01FFC0000FFE
01FFC0000FFE
01FFC0000FFE
FFFFFFC00FFF
FFFFFFC00FFF
FFFFFFC00FFF
FFFFFFC00FFF
FFFFFFC00FFF
FFFFFFC00FFF
01FFC0000FFF
01FFC0000FFF
01FFC0000FFE
01FFC0000FFE
01FFC0000FFE
01FFC0000FFE
01FFC0001FFE
01FFC0001FFC
01FFC0001FFC
01FFC0003FFC
01FFC0007FF8
01FFC000FFF8
01FFC001FFF0
01FFC003FFF0
01FFC01FFFE0
01FFFFFFFFC0
01FFFFFFFF80
01FFFFFFFF00
01FFFFFFFE00
01FFFFFFFC00
01FFFFFFF000
01FFFFFFE000
01FFFFFF0000
01FFFFF00000
ENDCHAR
STARTCHAR Ntilde
ENCODING 209
SWIDTH 706 0
DWIDTH 53 0
BBX 43 66 5 0
BITMAP
0007E007E000
001FF807E000
003FFF0FE000
007FFFFFE000
007FFFFFC000
00FFFFFFC000
00FE0FFF8000
00FC03FF0000
00FC00FC0000
000000000000
000000000000
000000000000
000000000000
FFE00000FFE0
FFF00000FFE0
FFF00000FFE0
FFF80000FFE0
FFFC0000FFE0
FFFC0000FFE0
FFFE0000FFE0
FFFE0000FFE0
FFFF0000FFE0
FFFF8000FFE0
FFFF8000FFE0
FFFFC000FFE0
FFFFC000FFE0
FFFFE000FFE0
FFFFF000FFE0
FFFFF000FFE0
FFFFF800FFE0
FFFFFC00FFE0
FFFFFC00FFE0
FFEFFE00FFE0
FFEFFE00FFE0
FFE7FF00FFE0
FFE7FF80FFE0
FFE3FF80FFE0
FFE1FFC0FFE0
FFE1FFC0FFE0
FFE0FFE0FFE0
FFE07FF0FFE0
FFE07FF0FFE0
FFE03FF8FFE0
FFE03FF8FFE0
FFE01FFCFFE0
FFE00FFEFFE0
FFE00FFEFFE0
FFE007FFFFE0
FFE007FFFFE0
FFE003FFFFE0
FFE001FFFFE0
FFE001FFFFE0
FFE000FFFFE0
FFE000FFFFE0
FFE0007FFFE0
FFE0003FFFE0
FFE0003FFFE0
FFE0001FFFE0
FFE0000FFFE0
FFE0000FFFE0
FFE00007FFE0
FFE00007FFE0
FFE00003FFE0
FFE00001FFE0
FFE00001FFE0
FFE00000FFE0
ENDCHAR
STARTCHAR Ograve
ENCODING 210
SWIDTH 690 0
DWIDTH 52 0
BBX 46 68 3 -1
BITMAP
007FF8000000
001FFC000000
000FFE000000
0007FE000000
0007FF000000
0003FF000000
0001FF800000
0000FFC00000
00007FC00000
00003FE00000
00001FF00000
000000000000
000000000000
00003FF00000
0001FFFE0000
000FFFFFC000
001FFFFFE000
007FFFFFF800
00FFFFFFFC00
01FFFFFFFE00
03FFFFFFFF00
07FFFFFFFF00
07FFE03FFF80
0FFF8007FFC0
0FFF0003FFC0
1FFE0001FFE0
1FFC0000FFE0
3FFC0000FFF0
3FF800007FF0
3FF800007FF0
7FF000007FF8
7FF000003FF8
7FF000003FF8
7FF000003FF8
7FF000003FF8
FFF000003FF8
FFE000003FFC
FFE000003FFC
FFE000003FFC
FFE000001FFC
FFE000001FFC
FFE000001FFC
FFE000003FFC
FFE000003FFC
FFE000003FFC
FFF000003FFC
7FF000003FF8
7FF000003FF8
7FF000003FF8
7FF000003FF8
7FF800007FF8
3FF800007FF0
3FF800007FF0
3FFC0000FFF0
1FFC0000FFE0
1FFE0001FFE0
0FFF0003FFC0
0FFF8007FFC0
07FFF03FFF80
07FFFFFFFF80
03FFFFFFFF00
01FFFFFFFE00
00FFFFFFFC00
007FFFFFF800
001FFFFFE000
000FFFFFC000
0001FFFE0000
00003FF00000
ENDCHAR
STARTCHAR Oacute
ENCODING 211
SWIDTH 690 0
DWIDTH 52 0
BBX 46 68 3 -1
BITMAP
0000007FF800
000000FFE000
000001FFC000
000001FF8000
000003FF0000
000007FE0000
000007FE0000
00000FFC0000
00001FF80000
00001FF00000
00003FE00000
000000000000
000000000000
00003FF00000
0001FFFE0000
000FFFFFC000
001FFFFFE000
007FFFFFF800
00FFFFFFFC00
01FFFFFFFE00
03FFFFFFFF00
07FFFFFFFF00
07FFE03FFF80
0FFF8007FFC0
0FFF0003FFC0
1FFE0001FFE0
1FFC0000FFE0
3FFC0000FFF0
3FF800007FF0
3FF800007FF0
7FF000007FF8
7FF000003FF8
7FF000003FF8
7FF000003FF8
7FF000003FF8
FFF000003FF8
FFE000003FFC
FFE000003FFC
FFE000003FFC
FFE000001FFC
FFE000001FFC
FFE000001FFC
FFE000003FFC
FFE000003FFC
FFE000003FFC
FFF000003FFC
7FF000003FF8
7FF000003FF8
7FF000003FF8
7FF000003FF8
7FF800007FF8
3FF800007FF0
3FF800007FF0
3FFC0000FFF0
1FFC0000FFE0
1FFE0001FFE0
0FFF0003FFC0
0FFF8007FFC0
07FFF03FFF80
07FFFFFFFF80
03FFFFFFFF00
01FFFFFFFE00
00FFFFFFFC00
007FFFFFF800
001FFFFFE000
000FFFFFC000
0001FFFE0000
00003FF00000
ENDCHAR
STARTCHAR Ocircumflex
ENCODING 212
SWIDTH 690 0
DWIDTH 52 0
BBX 46 69 3 -1
BITMAP
00001FC00000
00003FF00000
00007FF80000
0000FFFC0000
0001FFFE0000
0003FFFF0000
0007FCFF8000
000FF87FC000
003FF03FE000
007FE01FF000
007FC00FF800
000000000000
000000000000
000000000000
00003FF00000
0001FFFE0000
000FFFFFC000
001FFFFFE000
007FFFFFF800
00FFFFFFFC00
01FFFFFFFE00
03FFFFFFFF00
07FFFFFFFF00
07FFE03FFF80
0FFF8007FFC0
0FFF0003FFC0
1FFE0001FFE0
1FFC0000FFE0
3FFC0000FFF0
3FF800007FF0
3FF800007FF0
7FF000007FF8
7FF000003FF8
7FF000003FF8
7FF000003FF8
7FF000003FF8
FFF000003FF8
FFE000003FFC
FFE000003FFC
FFE000003FFC
FFE000001FFC
FFE000001FFC
FFE000001FFC
FFE000003FFC
FFE000003FFC
FFE000003FFC
FFF000003FFC
7FF000003FF8
7FF000003FF8
7FF000003FF8
7FF000003FF8
7FF800007FF8
3FF800007FF0
3FF800007FF0
3FFC0000FFF0
1FFC0000FFE0
1FFE0001FFE0
0FFF0003FFC0
0FFF8007FFC0
07FFF03FFF80
07FFFFFFFF80
03FFFFFFFF00
01FFFFFFFE00
00FFFFFFFC00
007FFFFFF800
001FFFFFE000
000FFFFFC000
0001FFFE0000
00003FF00000
ENDCHAR
STARTCHAR Otilde
ENCODING 213
SWIDTH 690 0
DWIDTH 52 0
BBX 46 67 3 -1
BITMAP
0001F003F800
0007FC03F800
001FFF87F000
001FFFFFF000
003FFFFFF000
003FFFFFE000
007F07FFC000
007F01FF8000
007E007E0000
000000000000
000000000000
000000000000
00003FF00000
0001FFFE0000
000FFFFFC000
001FFFFFE000
007FFFFFF800
00FFFFFFFC00
01FFFFFFFE00
03FFFFFFFF00
07FFFFFFFF00
07FFE03FFF80
0FFF8007FFC0
0FFF0003FFC0
1FFE0001FFE0
1FFC0000FFE0
3FFC0000FFF0
3FF800007FF0
3FF800007FF0
7FF000007FF8
7FF000003FF8
7FF000003FF8
7FF000003FF8
7FF000003FF8
FFF000003FF8
FFE000003FFC
FFE000003FFC
FFE000003FFC
FFE000001FFC
FFE000001FFC
FFE000001FFC
FFE000003FFC
FFE000003FFC
FFE000003FFC
FFF000003FFC
7FF000003FF8
7FF000003FF8
7FF000003FF8
7FF000003FF8
7FF800007FF8
3FF800007FF0
3FF800007FF0
3FFC0000FFF0
1FFC0000FFE0
1FFE0001FFE0
0FFF0003FFC0
0FFF8007FFC0
07FFF03FFF80
07FFFFFFFF80
03FFFFFFFF00
01FFFFFFFE00
00FFFFFFFC00
007FFFFFF800
001FFFFFE000
000FFFFFC000
0001FFFE0000
00003FF00000
ENDCHAR
STARTCHAR Odieresis
ENCODING 214
SWIDTH 690 0
DWIDTH 52 0
BBX 46 66 3 -1
BITMAP
000F0007C000
003FC00FF000
007FC01FF000
007FE01FF800
007FE01FF800
007FE01FF800
007FE01FF000
003FC00FF000
001F0007C000
000000000000
000000000000
00003FF00000
0001FFFE0000
000FFFFFC000
001FFFFFE000
007FFFFFF800
00FFFFFFFC00
01FFFFFFFE00
03FFFFFFFF00
07FFFFFFFF00
07FFE03FFF80
0FFF8007FFC0
0FFF0003FFC0
1FFE0001FFE0
1FFC0000FFE0
3FFC0000FFF0
3FF800007FF0
3FF800007FF0
7FF000007FF8
7FF000003FF8
7FF000003FF8
7FF000003FF8
7FF000003FF8
FFF000003FF8
FFE000003FFC
FFE000003FFC
FFE000003FFC
FFE000001FFC
FFE000001FFC
FFE000001FFC
FFE000003FFC
FFE000003FFC
FFE000003FFC
FFF000003FFC
7FF000003FF8
7FF000003FF8
7FF000003FF8
7FF000003FF8
7FF800007FF8
3FF800007FF0
3FF800007FF0
3FFC0000FFF0
1FFC0000FFE0
1FFE0001FFE0
0FFF0003FFC0
0FFF8007FFC0
07FFF03FFF80
07FFFFFFFF80
03FFFFFFFF00
01FFFFFFFE00
00FFFFFFFC00
007FFFFFF800
001FFFFFE000
000FFFFFC000
0001FFFE0000
00003FF00000
ENDCHAR
STARTCHAR multiply
ENCODING 215
SWIDTH 531 0
DWIDTH 40 0
BBX 35 35 2 8
BITMAP
0200000800
0700001C00
0F80003E00
1FC0007F00
3FE000FFC0
7FF001FFE0
FFF803FFE0
3FFC07FFC0
1FFE0FFF80
0FFF0FFF00
07FF9FFE00
03FFFFFC00
01FFFFF800
00FFFFF000
007FFFE000
003FFFC000
001FFF8000
000FFF0000
001FFF8000
003FFFC000
007FFFE000
00FFFFF000
01FFFFF800
03FFFFFC00
07FF9FFE00
0FFF1FFF00
1FFE0FFF80
3FFC07FFC0
7FF803FFE0
FFF001FFE0
3FE000FFC0
1FC0007F00
0F80003E00
0700001C00
0200000800
ENDCHAR
STARTCHAR Oslash
ENCODING 216
SWIDTH 688 0
DWIDTH 52 0
BBX 46 60 3 -4
BITMAP
0000000007F0
0000000007F0
00003FF00FE0
0001FFFF1FC0
0007FFFFDFC0
001FFFFFFF80
007FFFFFFF80
00FFFFFFFF00
01FFFFFFFE00
03FFFFFFFF00
03FFFFFFFF80
07FFF03FFF80
0FFF8007FFC0
0FFF0003FFE0
1FFE0007FFE0
1FFC000FFFE0
3FFC000FFFF0
3FF8001FFFF0
3FF8001FFFF8
7FF8003FBFF8
7FF0007F3FF8
7FF0007F3FF8
7FF000FE3FF8
7FF000FE3FF8
7FF001FC1FFC
FFF001F81FFC
FFF003F81FFC
FFF007F01FFC
FFF007F01FFC
FFF00FE01FFC
FFF00FC01FFC
FFF01FC01FFC
FFF03F801FFC
7FF03F801FFC
7FF07F001FFC
7FF07F003FFC
7FF0FE003FF8
7FF1FC003FF8
7FF1FC003FF8
7FFBF8003FF8
3FFBF8007FF8
3FFFF0007FF0
3FFFE000FFF0
1FFFE000FFE0
1FFFC001FFE0
0FFFC003FFE0
0FFFC007FFC0
07FFF01FFF80
03FFFFFFFF80
03FFFFFFFF00
01FFFFFFFE00
01FFFFFFFC00
01FFFFFFF800
03FFFFFFE000
07F7FFFFC000
07F1FFFF0000
0FE03FF00000
0FE000000000
1FC000000000
3F8000000000
ENDCHAR
STARTCHAR Ugrave
ENCODING 217
SWIDTH 658 0
DWIDTH 49 0
BBX 41 68 4 -1
BITMAP
01FFE0000000
00FFF0000000
007FF0000000
003FF8000000
001FFC000000
000FFC000000
0007FE000000
0003FF000000
0001FF000000
0000FF800000
00007F800000
000000400000
000000000000
000000000000
FFE00003FF80
FFE00003FF80
FFE00003FF80
FFE00003FF80
FFE00003FF80
FFE00003FF80
FFE00003FF80
FFE00003FF80
FFE00003FF80
FFE00003FF80
FFE00003FF80
FFE00003FF80
FFE00003FF80
FFE00003FF80
FFE00003FF80
FFE00003FF80
FFE00003FF80
FFE00003FF80
FFE00003FF80
FFE00003FF80
FFE00003FF80
FFE00003FF80
FFE00003FF80
FFE00003FF80
FFE00003FF80
FFE00003FF80
FFE00003FF80
FFE00003FF80
FFE00003FF80
FFE00003FF80
FFE00003FF80
FFE00003FF80
FFE00003FF80
FFE00003FF80
FFE00003FF80
FFE00003FF80
FFE00003FF80
FFE00003FF80
FFE00003FF80
FFF00007FF80
7FF00007FF00
7FF8000FFF00
7FF8000FFF00
3FFE003FFE00
3FFF80FFFE00
1FFFFFFFFC00
1FFFFFFFFC00
0FFFFFFFF800
07FFFFFFF000
03FFFFFFE000
01FFFFFF8000
007FFFFF0000
001FFFFC0000
0001FFC00000
ENDCHAR
STARTCHAR Uacute
ENCODING 218
SWIDTH 658 0
DWIDTH 49 0
BBX 41 68 4 -1
BITMAP
000003FFC000
000003FF8000
000007FF0000
00000FFE0000
00000FFC0000
00001FF80000
00003FF00000
00003FE00000
00007FC00000
0000FF800000
0000FF800000
000100000000
000000000000
000000000000
FFE00003FF80
FFE00003FF80
FFE00003FF80
FFE00003FF80
FFE00003FF80
FFE00003FF80
FFE00003FF80
FFE00003FF80
FFE00003FF80
FFE00003FF80
FFE00003FF80
FFE00003FF80
FFE00003FF80
FFE00003FF80
FFE00003FF80
FFE00003FF80
FFE00003FF80
FFE00003FF80
FFE00003FF80
FFE00003FF80
FFE00003FF80
FFE00003FF80
FFE00003FF80
FFE00003FF80
FFE00003FF80
FFE00003FF80
FFE00003FF80
FFE00003FF80
FFE00003FF80
FFE00003FF80
FFE00003FF80
FFE00003FF80
FFE00003FF80
FFE00003FF80
FFE00003FF80
FFE00003FF80
FFE00003FF80
FFE00003FF80
FFE00003FF80
FFF00007FF80
7FF00007FF00
7FF8000FFF00
7FF8000FFF00
3FFE003FFE00
3FFF80FFFE00
1FFFFFFFFC00
1FFFFFFFFC00
0FFFFFFFF800
07FFFFFFF000
03FFFFFFE000
01FFFFFF8000
007FFFFF0000
001FFFFC0000
0001FFC00000
ENDCHAR
STARTCHAR Ucircumflex
ENCODING 219
SWIDTH 658 0
DWIDTH 49 0
BBX 41 69 4 -1
BITMAP
00007F000000
0000FF800000
0001FFC00000
0003FFE00000
0007FFF80000
001FFFFC0000
003FF3FE0000
007FE1FF0000
00FF80FF8000
01FF007FC000
01FE003FE000
000000000000
000000000000
000000000000
000000000000
FFE00003FF80
FFE00003FF80
FFE00003FF80
FFE00003FF80
FFE00003FF80
FFE00003FF80
FFE00003FF80
FFE00003FF80
FFE00003FF80
FFE00003FF80
FFE00003FF80
FFE00003FF80
FFE00003FF80
FFE00003FF80
FFE00003FF80
FFE00003FF80
FFE00003FF80
FFE00003FF80
FFE00003FF80
FFE00003FF80
FFE00003FF80
FFE00003FF80
FFE00003FF80
FFE00003FF80
FFE00003FF80
FFE00003FF80
FFE00003FF80
FFE00003FF80
FFE00003FF80
FFE00003FF80
FFE00003FF80
FFE00003FF80
FFE00003FF80
FFE00003FF80
FFE00003FF80
FFE00003FF80
FFE00003FF80
FFE00003FF80
FFE00003FF80
FFF00007FF80
7FF00007FF00
7FF8000FFF00
7FF8000FFF00
3FFE003FFE00
3FFF80FFFE00
1FFFFFFFFC00
1FFFFFFFFC00
0FFFFFFFF800
07FFFFFFF000
03FFFFFFE000
01FFFFFF8000
007FFFFF0000
001FFFFC0000
0001FFC00000
ENDCHAR
STARTCHAR Udieresis
ENCODING 220
SWIDTH 658 0
DWIDTH 49 0
BBX 41 66 4 -1
BITMAP
007C001F0000
00FE003F8000
01FF007FC000
01FF80FFC000
01FF80FFE000
01FF80FFC000
01FF007FC000
00FE003F8000
007C001F0000
000000000000
000000000000
000000000000
FFE00003FF80
FFE00003FF80
FFE00003FF80
FFE00003FF80
FFE00003FF80
FFE00003FF80
FFE00003FF80
FFE00003FF80
FFE00003FF80
FFE00003FF80
FFE00003FF80
FFE00003FF80
FFE00003FF80
FFE00003FF80
FFE00003FF80
FFE00003FF80
FFE00003FF80
FFE00003FF80
FFE00003FF80
FFE00003FF80
FFE00003FF80
FFE00003FF80
FFE00003FF80
FFE00003FF80
FFE00003FF80
FFE00003FF80
FFE00003FF80
FFE00003FF80
FFE00003FF80
FFE00003FF80
FFE00003FF80
FFE00003FF80
FFE00003FF80
FFE00003FF80
FFE00003FF80
FFE00003FF80
FFE00003FF80
FFE00003FF80
FFE00003FF80
FFF00007FF80
7FF00007FF00
7FF8000FFF00
7FF8000FFF00
3FFE003FFE00
3FFF80FFFE00
1FFFFFFFFC00
1FFFFFFFFC00
0FFFFFFFF800
07FFFFFFF000
03FFFFFFE000
01FFFFFF8000
007FFFFF0000
001FFFFC0000
0001FFC00000
ENDCHAR
STARTCHAR Yacute
ENCODING 221
SWIDTH 618 0
DWIDTH 46 0
BBX 46 67 0 0
BITMAP
0000007FF800
000000FFF000
000000FFE000
000001FFC000
000003FF8000
000003FF0000
000007FE0000
00000FFC0000
00000FF80000
00001FF00000
00003FE00000
000000000000
000000000000
000000000000
FFF000003FFC
7FF800003FF8
7FF800007FF8
3FFC00007FF0
3FFC0000FFF0
1FFE0000FFE0
1FFE0001FFE0
0FFF0001FFC0
0FFF0003FFC0
07FF8003FF80
03FF8007FF80
03FF8007FF00
01FFC00FFF00
01FFC00FFE00
00FFE01FFE00
00FFE01FFC00
007FF01FFC00
007FF03FF800
003FF83FF800
003FF87FF000
001FFC7FF000
001FFCFFE000
000FFEFFE000
000FFFFFC000
0007FFFFC000
0007FFFF8000
0003FFFF8000
0003FFFF0000
0001FFFE0000
0001FFFE0000
0000FFFC0000
0000FFFC0000
00007FF80000
00007FF80000
00003FF80000
00003FF80000
00003FF80000
00003FF80000
00003FF80000
00003FF80000
00003FF80000
00003FF80000
00003FF80000
00003FF80000
00003FF80000
00003FF80000
00003FF80000
00003FF80000
00003FF80000
00003FF80000
00003FF80000
00003FF80000
00003FF80000
ENDCHAR
STARTCHAR Thorn
ENCODING 222
SWIDTH 608 0
DWIDTH 46 0
BBX 38 53 5 0
BITMAP
FFE0000000
FFE0000000
FFE0000000
FFE0000000
FFE0000000
FFE0000000
FFE0000000
FFE0000000
FFE0000000
FFE0000000
FFFFFF0000
FFFFFFF000
FFFFFFFC00
FFFFFFFF00
FFFFFFFF80
FFFFFFFFC0
FFFFFFFFE0
FFFFFFFFF0
FFFFFFFFF0
FFE003FFF8
FFE0007FF8
FFE0003FFC
FFE0001FFC
FFE0001FFC
FFE0000FFC
FFE0000FFC
FFE0000FFC
FFE0000FFC
FFE0000FFC
FFE0001FFC
FFE0001FFC
FFE0003FFC
FFE0007FF8
FFE001FFF8
FFFFFFFFF8
FFFFFFFFF0
FFFFFFFFE0
FFFFFFFFC0
FFFFFFFF80
FFFFFFFF00
FFFFFFFC00
FFFFFFF000
FFFFFF0000
FFE0000000
FFE0000000
FFE0000000
FFE0000000
FFE0000000
FFE0000000
FFE0000000
FFE0000000
FFE0000000
FFE0000000
ENDCHAR
STARTCHAR germandbls
ENCODING 223
SWIDTH 630 0
DWIDTH 47 0
BBX 40 58 5 -1
BITMAP
000FFC0000
007FFF8000
01FFFFE000
07FFFFF000
0FFFFFF800
1FFFFFFC00
3FFFFFFE00
3FFFFFFE00
7FFFFFFF00
7FFC1FFF00
7FF00FFF00
FFF007FF00
FFE003FF80
FFE003FF80
FFE003FF80
FFC003FF00
FFC003FF00
FFC003FF00
FFC007FF00
FFC007FE00
FFC00FFE00
FFC00FFC00
FFC01FFC00
FFC01FF800
FFC03FF800
FFC03FF800
FFC03FF800
FFC03FF800
FFC03FF800
FFC03FFC00
FFC01FFE00
FFC01FFF00
FFC01FFF80
FFC00FFFC0
FFC007FFE0
FFC003FFF0
FFC001FFF8
FFC000FFF8
FFC0007FFC
FFC0003FFE
FFC0001FFE
FFC0000FFE
FFC00007FF
FFC00007FF
FFC00007FF
FFC00007FF
FFC00007FF
FFC1000FFE
FFC1E03FFE
FFC1FFFFFE
FFC3FFFFFC
FFC3FFFFFC
FFC3FFFFF8
FFC3FFFFF0
FFC7FFFFE0
FFC7FFFFC0
FFC3FFFF00
00003FF800
ENDCHAR
STARTCHAR agrave
ENCODING 224
SWIDTH 536 0
DWIDTH 40 0
BBX 36 57 2 -1
BITMAP
07FF800000
03FF800000
01FFC00000
00FFE00000
007FE00000
003FF00000
001FF00000
000FF80000
000FFC0000
0007FC0000
0003FE0000
0000000000
0000000000
0000000000
0000000000
0000000000
0007FE0000
003FFFC000
00FFFFF000
03FFFFFC00
07FFFFFE00
0FFFFFFF00
1FFFFFFF00
3FFFFFFF80
3FFE07FF80
3FF803FFC0
7FF001FFC0
7FF001FFC0
000001FFC0
000000FFC0
000000FFC0
000000FFC0
0007FFFFC0
007FFFFFC0
01FFFFFFC0
07FFFFFFC0
0FFFFFFFC0
1FFFFFFFC0
3FFFFFFFC0
3FFE00FFC0
7FF800FFC0
7FF000FFC0
7FE000FFC0
7FE000FFC0
FFE000FFC0
FFE001FFC0
7FF003FFC0
7FFC0FFFC0
7FFFFFFFC0
7FFFFFFFC0
3FFFFFFFC0
3FFFFFFFC0
1FFFFFFFE0
0FFFFEFFE0
07FFFCFFE0
01FFF07FF0
003FC00000
ENDCHAR
STARTCHAR aacute
ENCODING 225
SWIDTH 536 0
DWIDTH 40 0
BBX 36 57 2 -1
BITMAP
00000FFF00
00001FFC00
00001FFC00
00003FF800
00007FF000
00007FE000
0000FFC000
0001FF8000
0001FF0000
0003FE0000
0007FC0000
0000000000
0000000000
0000000000
0000000000
0000000000
0007FE0000
003FFFC000
00FFFFF000
03FFFFFC00
07FFFFFE00
0FFFFFFF00
1FFFFFFF00
3FFFFFFF80
3FFE07FF80
3FF803FFC0
7FF001FFC0
7FF001FFC0
000001FFC0
000000FFC0
000000FFC0
000000FFC0
0007FFFFC0
007FFFFFC0
01FFFFFFC0
07FFFFFFC0
0FFFFFFFC0
1FFFFFFFC0
3FFFFFFFC0
3FFE00FFC0
7FF800FFC0
7FF000FFC0
7FE000FFC0
7FE000FFC0
FFE000FFC0
FFE001FFC0
7FF003FFC0
7FFC0FFFC0
7FFFFFFFC0
7FFFFFFFC0
3FFFFFFFC0
3FFFFFFFC0
1FFFFFFFE0
0FFFFEFFE0
07FFFCFFE0
01FFF07FF0
003FC00000
ENDCHAR
STARTCHAR acircumflex
ENCODING 226
SWIDTH 536 0
DWIDTH 40 0
BBX 36 58 2 -1
BITMAP
0001FC0000
0007FE0000
000FFF0000
001FFF8000
003FFFC000
007FFFE000
00FF9FF000
01FF0FF800
03FE07FE00
07FC03FF00
0FF801FF00
0000000000
0000000000
0000000000
0000000000
0000000000
0000000000
0007FE0000
003FFFC000
00FFFFF000
03FFFFFC00
07FFFFFE00
0FFFFFFF00
1FFFFFFF00
3FFFFFFF80
3FFE07FF80
3FF803FFC0
7FF001FFC0
7FF001FFC0
000001FFC0
000000FFC0
000000FFC0
000000FFC0
0007FFFFC0
007FFFFFC0
01FFFFFFC0
07FFFFFFC0
0FFFFFFFC0
1FFFFFFFC0
3FFFFFFFC0
3FFE00FFC0
7FF800FFC0
7FF000FFC0
7FE000FFC0
7FE000FFC0
FFE000FFC0
FFE001FFC0
7FF003FFC0
7FFC0FFFC0
7FFFFFFFC0
7FFFFFFFC0
3FFFFFFFC0
3FFFFFFFC0
1FFFFFFFE0
0FFFFEFFE0
07FFFCFFE0
01FFF07FF0
003FC00000
ENDCHAR
STARTCHAR atilde
ENCODING 227
SWIDTH 536 0
DWIDTH 40 0
BBX 36 56 2 -1
BITMAP
003E003F00
00FFC07F00
01FFF0FF00
03FFFFFE00
07FFFFFE00
07FFFFFC00
07F0FFF800
0FE03FF000
0FE007C000
0000000000
0000000000
0000000000
0000000000
0000000000
0000000000
0007FE0000
003FFFC000
00FFFFF000
03FFFFFC00
07FFFFFE00
0FFFFFFF00
1FFFFFFF00
3FFFFFFF80
3FFE07FF80
3FF803FFC0
7FF001FFC0
7FF001FFC0
000001FFC0
000000FFC0
000000FFC0
000000FFC0
0007FFFFC0
007FFFFFC0
01FFFFFFC0
07FFFFFFC0
0FFFFFFFC0
1FFFFFFFC0
3FFFFFFFC0
3FFE00FFC0
7FF800FFC0
7FF000FFC0
7FE000FFC0
7FE000FFC0
FFE000FFC0
FFE001FFC0
7FF003FFC0
7FFC0FFFC0
7FFFFFFFC0
7FFFFFFFC0
3FFFFFFFC0
3FFFFFFFC0
1FFFFFFFE0
0FFFFEFFE0
07FFFCFFE0
01FFF07FF0
003FC00000
ENDCHAR
STARTCHAR adieresis
ENCODING 228
SWIDTH 536 0
DWIDTH 40 0
BBX 36 55 2 -1
BITMAP
01F0007800
07F801FE00
07FC01FF00
0FFC03FF00
0FFC03FF00
0FFC03FF00
07FC01FF00
07F801FE00
01F0007800
0000000000
0000000000
0000000000
0000000000
0000000000
0007FE0000
003FFFC000
00FFFFF000
03FFFFFC00
07FFFFFE00
0FFFFFFF00
1FFFFFFF00
3FFFFFFF80
3FFE07FF80
3FF803FFC0
7FF001FFC0
7FF001FFC0
000001FFC0
000000FFC0
000000FFC0
000000FFC0
0007FFFFC0
007FFFFFC0
01FFFFFFC0
07FFFFFFC0
0FFFFFFFC0
1FFFFFFFC0
3FFFFFFFC0
3FFE00FFC0
7FF800FFC0
7FF000FFC0
7FE000FFC0
7FE000FFC0
FFE000FFC0
FFE001FFC0
7FF003FFC0
7FFC0FFFC0
7FFFFFFFC0
7FFFFFFFC0
3FFFFFFFC0
3FFFFFFFC0
1FFFFFFFE0
0FFFFEFFE0
07FFFCFFE0
01FFF07FF0
003FC00000
ENDCHAR
STARTCHAR aring
ENCODING 229
SWIDTH 536 0
DWIDTH 40 0
BBX 36 60 2 -1
BITMAP
0001F80000
0007FE0000
000FFF0000
001FFF8000
001F07C000
003E03C000
003C03C000
003C03C000
003C03C000
003E03C000
001E07C000
001FDF8000
000FFF0000
0007FE0000
0001F80000
0000000000
0000000000
0000000000
0000000000
0007FE0000
003FFFC000
00FFFFF000
03FFFFFC00
07FFFFFE00
0FFFFFFF00
1FFFFFFF00
3FFFFFFF80
3FFE07FF80
3FF803FFC0
7FF001FFC0
7FF001FFC0
000001FFC0
000000FFC0
000000FFC0
000000FFC0
0007FFFFC0
007FFFFFC0
01FFFFFFC0
07FFFFFFC0
0FFFFFFFC0
1FFFFFFFC0
3FFFFFFFC0
3FFE00FFC0
7FF800FFC0
7FF000FFC0
7FE000FFC0
7FE000FFC0
FFE000FFC0
FFE001FFC0
7FF003FFC0
7FFC0FFFC0
7FFFFFFFC0
7FFFFFFFC0
3FFFFFFFC0
3FFFFFFFC0
1FFFFFFFE0
0FFFFEFFE0
07FFFCFFE0
01FFF07FF0
003FC00000
ENDCHAR
STARTCHAR ae
ENCODING 230
SWIDTH 844 0
DWIDTH 63 0
BBX 59 41 2 -1
BITMAP
0007FF0003FE0000
003FFFE01FFFC000
00FFFFF87FFFF000
03FFFFFDFFFFF800
07FFFFFFFFFFFC00
0FFFFFFFFFFFFE00
1FFFFFFFFFFFFF00
1FFFFFFFFFFFFF80
3FFFFFFFFFFFFF80
3FFE07FFFF07FFC0
3FFC01FFFC01FFC0
3FF800FFF800FFC0
3FF000FFF000FFE0
000000FFF0007FE0
000000FFE0007FE0
000000FFE0007FE0
000000FFE0007FE0
000FFFFFFFFFFFE0
00FFFFFFFFFFFFE0
03FFFFFFFFFFFFE0
0FFFFFFFFFFFFFE0
1FFFFFFFFFFFFFE0
3FFFFFFFFFFFFFE0
3FFFFFFFFFFFFFE0
7FFE00FFE0000000
7FF800FFE0000000
FFF000FFE0000000
FFE000FFF0000000
FFE000FFF0000000
FFE000FFF8000000
FFE000FFFE000300
FFF001FFFF803F00
7FFC0FFFFFFFFF00
7FFFFFFFFFFFFF80
7FFFFFFFFFFFFF80
3FFFFFFFFFFFFFC0
1FFFFFF3FFFFFFC0
0FFFFFE1FFFFFF80
07FFFFC07FFFFE00
01FFFE001FFFF800
003FF00003FF8000
ENDCHAR
STARTCHAR ccedilla
ENCODING 231
SWIDTH 521 0
DWIDTH 39 0
BBX 35 57 2 -17
BITMAP
0003FE0000
001FFFC000
007FFFF000
01FFFFFC00
03FFFFFE00
07FFFFFF00
0FFFFFFF00
0FFFFFFF80
1FFFFFFFC0
3FFF07FFC0
3FFC01FFC0
3FF800FFE0
7FF000FFE0
7FF0007FE0
7FF0007FE0
7FE0000000
7FE0000000
FFE0000000
FFE0000000
FFE0000000
FFE0000000
FFE0000000
FFE0000000
FFE0000000
7FE0000000
7FE0000000
7FE0000000
7FF0007FE0
7FF0007FE0
3FF800FFE0
3FFC01FFC0
3FFF07FFC0
1FFFFFFFC0
0FFFFFFF80
0FFFFFFF00
07FFFFFF00
03FFFFFE00
01FFFFFC00
007FFFF000
001FFFC000
0003FE0000
0003FC0000
0003FE0000
0003FF8000
0007FFC000
0000FFE000
00003FE000
00003FE000
00003FE000
00003FE000
00007FE000
0003FFE000
0003FFC000
0001FF8000
0001FF0000
0001FE0000
0001F00000
ENDCHAR
STARTCHAR egrave
ENCODING 232
SWIDTH 540 0
DWIDTH 41 0
BBX 36 57 3 -1
BITMAP
1FFE000000
07FF000000
03FF800000
01FF800000
00FFC00000
00FFE00000
007FE00000
003FF00000
001FF80000
000FF80000
0007FC0000
0000000000
0000000000
0000000000
0000000000
0000000000
0003FE0000
001FFFC000
007FFFF000
01FFFFF800
03FFFFFE00
07FFFFFE00
0FFFFFFF00
1FFFFFFF80
1FFFFFFF80
3FFF07FFC0
3FFC01FFC0
7FF800FFE0
7FF0007FE0
7FF0007FE0
FFE0007FE0
FFE0007FF0
FFE0007FF0
FFFFFFFFF0
FFFFFFFFF0
FFFFFFFFF0
FFFFFFFFF0
FFFFFFFFF0
FFFFFFFFF0
FFFFFFFFF0
FFE0000000
FFE0000000
FFE0000000
7FF0000000
7FF0000400
7FF8000E00
3FFE001F00
3FFF80FF80
1FFFFFFFC0
1FFFFFFFE0
0FFFFFFFE0
07FFFFFFC0
03FFFFFF80
01FFFFFE00
007FFFFC00
001FFFF000
0001FF0000
ENDCHAR
STARTCHAR eacute
ENCODING 233
SWIDTH 540 0
DWIDTH 41 0
BBX 36 57 3 -1
BITMAP
00001FFE00
00003FF800
00007FF000
00007FE000
0000FFC000
0001FFC000
0001FF8000
0003FF0000
0007FE0000
0007FC0000
000FF80000
0000000000
0000000000
0000000000
0000000000
0000000000
0003FE0000
001FFFC000
007FFFF000
01FFFFF800
03FFFFFE00
07FFFFFE00
0FFFFFFF00
1FFFFFFF80
1FFFFFFF80
3FFF07FFC0
3FFC01FFC0
7FF800FFE0
7FF0007FE0
7FF0007FE0
FFE0007FE0
FFE0007FF0
FFE0007FF0
FFFFFFFFF0
FFFFFFFFF0
FFFFFFFFF0
FFFFFFFFF0
FFFFFFFFF0
FFFFFFFFF0
FFFFFFFFF0
FFE0000000
FFE0000000
FFE0000000
7FF0000000
7FF0000400
7FF8000E00
3FFE001F00
3FFF80FF80
1FFFFFFFC0
1FFFFFFFE0
0FFFFFFFE0
07FFFFFFC0
03FFFFFF80
01FFFFFE00
007FFFFC00
001FFFF000
0001FF0000
ENDCHAR
STARTCHAR ecircumflex
ENCODING 234
SWIDTH 540 0
DWIDTH 41 0
BBX 36 58 3 -1
BITMAP
0007F80000
000FFC0000
001FFE0000
003FFF0000
007FFF8000
00FFFFC000
01FF3FE000
03FE1FF000
07FC0FF800
1FF807FC00
1FF003FE00
0000000000
0000000000
0000000000
0000000000
0000000000
0000000000
0003FE0000
001FFFC000
007FFFF000
01FFFFF800
03FFFFFE00
07FFFFFE00
0FFFFFFF00
1FFFFFFF80
1FFFFFFF80
3FFF07FFC0
3FFC01FFC0
7FF800FFE0
7FF0007FE0
7FF0007FE0
FFE0007FE0
FFE0007FF0
FFE0007FF0
FFFFFFFFF0
FFFFFFFFF0
FFFFFFFFF0
FFFFFFFFF0
FFFFFFFFF0
FFFFFFFFF0
FFFFFFFFF0
FFE0000000
FFE0000000
FFE0000000
7FF0000000
7FF0000400
7FF8000E00
3FFE001F00
3FFF80FF80
1FFFFFFFC0
1FFFFFFFE0
0FFFFFFFE0
07FFFFFFC0
03FFFFFF80
01FFFFFE00
007FFFFC00
001FFFF000
0001FF0000
ENDCHAR
STARTCHAR edieresis
ENCODING 235
SWIDTH 540 0
DWIDTH 41 0
BBX 36 55 3 -1
BITMAP
03C000F000
0FF003FC00
1FF807FC00
1FF807FE00
1FF807FE00
1FF807FE00
1FF807FC00
0FF003FC00
03C001F000
0000000000
0000000000
0000000000
0000000000
0000000000
0003FE0000
001FFFC000
007FFFF000
01FFFFF800
03FFFFFE00
07FFFFFE00
0FFFFFFF00
1FFFFFFF80
1FFFFFFF80
3FFF07FFC0
3FFC01FFC0
7FF800FFE0
7FF0007FE0
7FF0007FE0
FFE0007FE0
FFE0007FF0
FFE0007FF0
FFFFFFFFF0
FFFFFFFFF0
FFFFFFFFF0
FFFFFFFFF0
FFFFFFFFF0
FFFFFFFFF0
FFFFFFFFF0
FFE0000000
FFE0000000
FFE0000000
7FF0000000
7FF0000400
7FF8000E00
3FFE001F00
3FFF80FF80
1FFFFFFFC0
1FFFFFFFE0
0FFFFFFFE0
07FFFFFFC0
03FFFFFF80
01FFFFFE00
007FFFFC00
001FFFF000
0001FF0000
ENDCHAR
STARTCHAR igrave
ENCODING 236
SWIDTH 273 0
DWIDTH 21 0
BBX 19 55 -3 0
BITMAP
FFF000
7FF000
3FF800
1FFC00
0FFC00
07FE00
03FF00
01FF00
00FF80
007FC0
007FC0
000020
000000
000000
000000
00FFC0
00FFC0
00FFC0
00FFC0
00FFC0
00FFC0
00FFC0
00FFC0
00FFC0
00FFC0
00FFC0
00FFC0
00FFC0
00FFC0
00FFC0
00FFC0
00FFC0
00FFC0
00FFC0
00FFC0
00FFC0
00FFC0
00FFC0
00FFC0
00FFC0
00FFC0
00FFC0
00FFC0
00FFC0
00FFC0
00FFC0
00FFC0
00FFC0
00FFC0
00FFC0
00FFC0
00FFC0
00FFC0
00FFC0
00FFC0
ENDCHAR
STARTCHAR iacute
ENCODING 237
SWIDTH 273 0
DWIDTH 21 0
BBX 19 55 5 0
BITMAP
01FFE0
03FFC0
03FF80
07FF00
0FFE00
0FFC00
1FF800
3FF000
3FE000
7FC000
FF8000
000000
000000
000000
000000
FFC000
FFC000
FFC000
FFC000
FFC000
FFC000
FFC000
FFC000
FFC000
FFC000
FFC000
FFC000
FFC000
FFC000
FFC000
FFC000
FFC000
FFC000
FFC000
FFC000
FFC000
FFC000
FFC000
FFC000
FFC000
FFC000
FFC000
FFC000
FFC000
FFC000
FFC000
FFC000
FFC000
FFC000
FFC000
FFC000
FFC000
FFC000
FFC000
FFC000
ENDCHAR
STARTCHAR icircumflex
ENCODING 238
SWIDTH 273 0
DWIDTH 21 0
BBX 28 56 -4 0
BITMAP
001FC000
003FE000
00FFF000
01FFF800
03FFFC00
07FFFE00
0FF9FF00
1FF0FFC0
3FE07FE0
7FC03FF0
FF801FF0
00000000
00000000
00000000
00000000
00000000
007FE000
007FE000
007FE000
007FE000
007FE000
007FE000
007FE000
007FE000
007FE000
007FE000
007FE000
007FE000
007FE000
007FE000
007FE000
007FE000
007FE000
007FE000
007FE000
007FE000
007FE000
007FE000
007FE000
007FE000
007FE000
007FE000
007FE000
007FE000
007FE000
007FE000
007FE000
007FE000
007FE000
007FE000
007FE000
007FE000
007FE000
007FE000
007FE000
007FE000
ENDCHAR
STARTCHAR idieresis
ENCODING 239
SWIDTH 273 0
DWIDTH 21 0
BBX 28 53 -4 0
BITMAP
1F0007C0
3F801FE0
7FC01FF0
FFC03FF0
FFC03FF0
FFC03FF0
7FC01FF0
7F801FE0
1F0007C0
00000000
00000000
00000000
00000000
007FE000
007FE000
007FE000
007FE000
007FE000
007FE000
007FE000
007FE000
007FE000
007FE000
007FE000
007FE000
007FE000
007FE000
007FE000
007FE000
007FE000
007FE000
007FE000
007FE000
007FE000
007FE000
007FE000
007FE000
007FE000
007FE000
007FE000
007FE000
007FE000
007FE000
007FE000
007FE000
007FE000
007FE000
007FE000
007FE000
007FE000
007FE000
007FE000
007FE000
ENDCHAR
STARTCHAR eth
ENCODING 240
SWIDTH 575 0
DWIDTH 43 0
BBX 37 59 3 -1
BITMAP
0060000000
00FC000000
00FF800000
01FFE00600
01FFF81F00
01FFFC3F00
03FFFFFF80
03FFFFFF00
03FFFFFE00
05FFFFF800
003FFFF000
000FFFF800
0003FFFC00
0003FFFE00
0007FFFF00
001FFFFF00
003FEFFF80
003F87FF80
001F03FFC0
000C03FFC0
000801FFE0
000000FFE0
000000FFF0
000FF87FF0
007FFE7FF0
01FFFFFFF0
03FFFFFFF8
07FFFFFFF8
0FFFFFFFF8
1FFFFFFFF8
1FFFFFFFF8
3FFFFFFFF8
3FFF01FFF8
7FFC007FF8
7FF8001FF8
7FF0001FF8
FFE0001FF8
FFE0001FF8
FFE0001FF8
FFE0001FF8
FFE0001FF8
FFE0001FF8
FFE0003FF8
FFE0003FF8
FFE0003FF0
FFE0007FF0
7FF0007FF0
7FF800FFE0
7FFC01FFE0
3FFF07FFC0
3FFFFFFFC0
1FFFFFFF80
0FFFFFFF00
07FFFFFE00
03FFFFFC00
01FFFFF800
007FFFF000
001FFFC000
0003FE0000
ENDCHAR
STARTCHAR ntilde
ENCODING 241
SWIDTH 560 0
DWIDTH 42 0
BBX 34 55 4 0
BITMAP
007C007E00
01FF80FE00
03FFE1FE00
07FFFFFC00
0FFFFFFC00
0FFFFFF800
1FE1FFF000
1FC07FE000
1F801F8000
0000000000
0000000000
0000000000
0000000000
0000000000
0000000000
FFC07FC000
FFC3FFF000
FFC7FFFC00
FFDFFFFE00
FFFFFFFF00
FFFFFFFF00
FFFFFFFF80
FFFFFFFF80
FFFFFFFF80
FFFC0FFFC0
FFF003FFC0
FFE001FFC0
FFE001FFC0
FFC001FFC0
FFC001FFC0
FFC001FFC0
FFC001FFC0
FFC001FFC0
FFC001FFC0
FFC001FFC0
FFC001FFC0
FFC001FFC0
FFC001FFC0
FFC001FFC0
FFC001FFC0
FFC001FFC0
FFC001FFC0
FFC001FFC0
FFC001FFC0
FFC001FFC0
FFC001FFC0
FFC001FFC0
FFC001FFC0
FFC001FFC0
FFC001FFC0
FFC001FFC0
FFC001FFC0
FFC001FFC0
FFC001FFC0
FFC001FFC0
ENDCHAR
STARTCHAR ograve
ENCODING 242
SWIDTH 565 0
DWIDTH 42 0
BBX 38 57 2 -1
BITMAP
03FF800000
01FFC00000
00FFE00000
007FE00000
003FF00000
001FF80000
000FF80000
000FFC0000
0007FE0000
0003FE0000
0001FF0000
0000000000
0000000000
0000000000
0000000000
0000000000
0003FF0000
001FFFE000
007FFFF800
00FFFFFC00
03FFFFFF00
07FFFFFF80
0FFFFFFF80
0FFFFFFFC0
1FFFFFFFE0
1FFF03FFE0
3FFC00FFF0
3FF8007FF0
7FF8007FF8
7FF0003FF8
7FF0003FF8
7FE0001FF8
FFE0001FF8
FFE0001FFC
FFE0001FFC
FFE0001FFC
FFE0001FFC
FFE0001FFC
FFE0001FFC
FFE0001FFC
FFE0001FFC
7FE0001FF8
7FF0003FF8
7FF0003FF8
7FF0007FF8
3FF8007FF0
3FFC00FFF0
3FFF03FFE0
1FFFFFFFE0
0FFFFFFFC0
0FFFFFFFC0
07FFFFFF80
03FFFFFF00
01FFFFFC00
007FFFF800
001FFFE000
0003FF0000
ENDCHAR
STARTCHAR oacute
ENCODING 243
SWIDTH 565 0
DWIDTH 42 0
BBX 38 57 2 -1
BITMAP
000007FF80
00000FFE00
00000FFC00
00001FFC00
00003FF800
00003FF000
00007FE000
0000FFC000
0000FF8000
0001FF0000
0003FE0000
0000000000
0000000000
0000000000
0000000000
0000000000
0003FF0000
001FFFE000
007FFFF800
00FFFFFC00
03FFFFFF00
07FFFFFF80
0FFFFFFF80
0FFFFFFFC0
1FFFFFFFE0
1FFF03FFE0
3FFC00FFF0
3FF8007FF0
7FF8007FF8
7FF0003FF8
7FF0003FF8
7FE0001FF8
FFE0001FF8
FFE0001FFC
FFE0001FFC
FFE0001FFC
FFE0001FFC
FFE0001FFC
FFE0001FFC
FFE0001FFC
FFE0001FFC
7FE0001FF8
7FF0003FF8
7FF0003FF8
7FF0007FF8
3FF8007FF0
3FFC00FFF0
3FFF03FFE0
1FFFFFFFE0
0FFFFFFFC0
0FFFFFFFC0
07FFFFFF80
03FFFFFF00
01FFFFFC00
007FFFF800
001FFFE000
0003FF0000
ENDCHAR
STARTCHAR ocircumflex
ENCODING 244
SWIDTH 565 0
DWIDTH 42 0
BBX 38 58 2 -1
BITMAP
0001FE0000
0003FF0000
0007FF8000
000FFFC000
001FFFE000
003FFFF000
007FCFF800
00FF87FC00
01FF03FE00
03FE01FF80
07FC00FF80
0000000000
0000000000
0000000000
0000000000
0000000000
0000000000
0003FF0000
001FFFE000
007FFFF800
00FFFFFC00
03FFFFFF00
07FFFFFF80
0FFFFFFF80
0FFFFFFFC0
1FFFFFFFE0
1FFF03FFE0
3FFC00FFF0
3FF8007FF0
7FF8007FF8
7FF0003FF8
7FF0003FF8
7FE0001FF8
FFE0001FF8
FFE0001FFC
FFE0001FFC
FFE0001FFC
FFE0001FFC
FFE0001FFC
FFE0001FFC
FFE0001FFC
FFE0001FFC
7FE0001FF8
7FF0003FF8
7FF0003FF8
7FF0007FF8
3FF8007FF0
3FFC00FFF0
3FFF03FFE0
1FFFFFFFE0
0FFFFFFFC0
0FFFFFFFC0
07FFFFFF80
03FFFFFF00
01FFFFFC00
007FFFF800
001FFFE000
0003FF0000
ENDCHAR
STARTCHAR otilde
ENCODING 245
SWIDTH 565 0
DWIDTH 42 0
BBX 38 56 2 -1
BITMAP
001F001F80
007FE03F80
00FFF87F80
01FFFFFF00
03FFFFFF00
03FFFFFE00
07F87FFC00
07F01FF800
07E007E000
0000000000
0000000000
0000000000
0000000000
0000000000
0000000000
0003FF0000
001FFFE000
007FFFF800
00FFFFFC00
03FFFFFF00
07FFFFFF80
0FFFFFFF80
0FFFFFFFC0
1FFFFFFFE0
1FFF03FFE0
3FFC00FFF0
3FF8007FF0
7FF8007FF8
7FF0003FF8
7FF0003FF8
7FE0001FF8
FFE0001FF8
FFE0001FFC
FFE0001FFC
FFE0001FFC
FFE0001FFC
FFE0001FFC
FFE0001FFC
FFE0001FFC
FFE0001FFC
7FE0001FF8
7FF0003FF8
7FF0003FF8
7FF0007FF8
3FF8007FF0
3FFC00FFF0
3FFF03FFE0
1FFFFFFFE0
0FFFFFFFC0
0FFFFFFFC0
07FFFFFF80
03FFFFFF00
01FFFFFC00
007FFFF800
001FFFE000
0003FF0000
ENDCHAR
STARTCHAR odieresis
ENCODING 246
SWIDTH 565 0
DWIDTH 42 0
BBX 38 55 2 -1
BITMAP
00F8003C00
03FC00FF00
03FE01FF80
07FE01FF80
07FE01FF80
07FE01FF80
03FE01FF80
03FC00FF00
00F8003C00
0000000000
0000000000
0000000000
0000000000
0000000000
0003FF0000
001FFFE000
007FFFF800
00FFFFFC00
03FFFFFF00
07FFFFFF80
0FFFFFFF80
0FFFFFFFC0
1FFFFFFFE0
1FFF03FFE0
3FFC00FFF0
3FF8007FF0
7FF8007FF8
7FF0003FF8
7FF0003FF8
7FE0001FF8
FFE0001FF8
FFE0001FFC
FFE0001FFC
FFE0001FFC
FFE0001FFC
FFE0001FFC
FFE0001FFC
FFE0001FFC
FFE0001FFC
7FE0001FF8
7FF0003FF8
7FF0003FF8
7FF0007FF8
3FF8007FF0
3FFC00FFF0
3FFF03FFE0
1FFFFFFFE0
0FFFFFFFC0
0FFFFFFFC0
07FFFFFF80
03FFFFFF00
01FFFFFC00
007FFFF800
001FFFE000
0003FF0000
ENDCHAR
STARTCHAR divide
ENCODING 247
SWIDTH 570 0
DWIDTH 43 0
BBX 38 41 2 4
BITMAP
00007C0000
0001FF0000
0003FF0000
0003FF8000
0007FF8000
0007FF8000
0007FF8000
0003FF8000
0003FF0000
0001FF0000
00007C0000
0000000000
0000000000
0000000000
0000000000
0000000000
FFFFFFFFFC
FFFFFFFFFC
FFFFFFFFFC
FFFFFFFFFC
FFFFFFFFFC
FFFFFFFFFC
FFFFFFFFFC
FFFFFFFFFC
FFFFFFFFFC
0000000000
0000000000
0000000000
0000000000
0000000000
00007C0000
0001FF0000
0003FF0000
0003FF8000
0007FF8000
0007FF8000
0007FF8000
0003FF8000
0003FF0000
0001FF0000
00007C0000
ENDCHAR
STARTCHAR oslash
ENCODING 248
SWIDTH 564 0
DWIDTH 42 0
BBX 38 49 2 -5
BITMAP
0000000FC0
0000000F80
0000001F80
0000001F00
0003FF3F00
001FFFFE00
007FFFFE00
00FFFFFE00
03FFFFFF00
07FFFFFF80
0FFFFFFFC0
0FFFFFFFC0
1FFFFFFFE0
1FFF03FFE0
3FFC07FFF0
3FF807FFF0
7FF80FFFF8
7FF00FFFF8
7FF01FBFF8
7FE01F9FF8
FFE03F1FFC
FFE03F1FFC
FFE07E1FFC
FFE07E1FFC
FFE0FC1FFC
FFE0FC1FFC
FFE1F81FFC
FFE1F81FFC
7FE3F01FFC
7FE3F01FF8
7FF7E03FF8
7FF7E03FF8
7FFFC07FF8
3FFFC07FF0
3FFF80FFF0
1FFF83FFE0
1FFFFFFFE0
0FFFFFFFC0
0FFFFFFFC0
07FFFFFF80
03FFFFFF00
00FFFFFC00
01FFFFF800
01FFFFE000
03F3FF0000
03F0000000
07E0000000
07E0000000
0FC0000000
ENDCHAR
STARTCHAR ugrave
ENCODING 249
SWIDTH 559 0
DWIDTH 42 0
BBX 34 57 4 -1
BITMAP
1FFE000000
07FF000000
03FF800000
01FF800000
00FFC00000
00FFE00000
007FE00000
003FF00000
001FF80000
000FF80000
0007FC0000
0000000000
0000000000
0000000000
0000000000
0000000000
FFC001FFC0
FFC001FFC0
FFC001FFC0
FFC001FFC0
FFC001FFC0
FFC001FFC0
FFC001FFC0
FFC001FFC0
FFC001FFC0
FFC001FFC0
FFC001FFC0
FFC001FFC0
FFC001FFC0
FFC001FFC0
FFC001FFC0
FFC001FFC0
FFC001FFC0
FFC001FFC0
FFC001FFC0
FFC001FFC0
FFC001FFC0
FFC001FFC0
FFC001FFC0
FFC001FFC0
FFC001FFC0
FFC001FFC0
FFC001FFC0
FFE001FFC0
FFE001FFC0
FFE001FFC0
FFF007FFC0
FFF80FFFC0
7FFFFFFFC0
7FFFFFFFC0
7FFFFFFFC0
3FFFFFFFC0
1FFFFFFFC0
1FFFFEFFC0
07FFF8FFC0
03FFF0FFC0
007F800000
ENDCHAR
STARTCHAR uacute
ENCODING 250
SWIDTH 559 0
DWIDTH 42 0
BBX 34 57 4 -1
BITMAP
00001FFE00
00003FF800
00007FF000
00007FE000
0000FFC000
0001FFC000
0001FF8000
0003FF0000
0007FE0000
0007FC0000
000FF80000
0000000000
0000000000
0000000000
0000000000
0000000000
FFC001FFC0
FFC001FFC0
FFC001FFC0
FFC001FFC0
FFC001FFC0
FFC001FFC0
FFC001FFC0
FFC001FFC0
FFC001FFC0
FFC001FFC0
FFC001FFC0
FFC001FFC0
FFC001FFC0
FFC001FFC0
FFC001FFC0
FFC001FFC0
FFC001FFC0
FFC001FFC0
FFC001FFC0
FFC001FFC0
FFC001FFC0
FFC001FFC0
FFC001FFC0
FFC001FFC0
FFC001FFC0
FFC001FFC0
FFC001FFC0
FFE001FFC0
FFE001FFC0
FFE001FFC0
FFF007FFC0
FFF80FFFC0
7FFFFFFFC0
7FFFFFFFC0
7FFFFFFFC0
3FFFFFFFC0
1FFFFFFFC0
1FFFFEFFC0
07FFF8FFC0
03FFF0FFC0
007F800000
ENDCHAR
STARTCHAR ucircumflex
ENCODING 251
SWIDTH 559 0
DWIDTH 42 0
BBX 34 58 4 -1
BITMAP
0007F80000
000FFC0000
001FFE0000
003FFF0000
007FFF8000
00FFFFC000
01FF3FE000
03FE1FF000
07FC0FF800
1FF807FC00
1FF003FE00
0000000000
0000000000
0000000000
0000000000
0000000000
0000000000
FFC001FFC0
FFC001FFC0
FFC001FFC0
FFC001FFC0
FFC001FFC0
FFC001FFC0
FFC001FFC0
FFC001FFC0
FFC001FFC0
FFC001FFC0
FFC001FFC0
FFC001FFC0
FFC001FFC0
FFC001FFC0
FFC001FFC0
FFC001FFC0
FFC001FFC0
FFC001FFC0
FFC001FFC0
FFC001FFC0
FFC001FFC0
FFC001FFC0
FFC001FFC0
FFC001FFC0
FFC001FFC0
FFC001FFC0
FFC001FFC0
FFE001FFC0
FFE001FFC0
FFE001FFC0
FFF007FFC0
FFF80FFFC0
7FFFFFFFC0
7FFFFFFFC0
7FFFFFFFC0
3FFFFFFFC0
1FFFFFFFC0
1FFFFEFFC0
07FFF8FFC0
03FFF0FFC0
007F800000
ENDCHAR
STARTCHAR udieresis
ENCODING 252
SWIDTH 559 0
DWIDTH 42 0
BBX 34 55 4 -1
BITMAP
03C000F000
0FF003FC00
1FF807FC00
1FF807FE00
1FF807FE00
1FF807FE00
1FF807FC00
0FF003FC00
03C001F000
0000000000
0000000000
0000000000
0000000000
0000000000
FFC001FFC0
FFC001FFC0
FFC001FFC0
FFC001FFC0
FFC001FFC0
FFC001FFC0
FFC001FFC0
FFC001FFC0
FFC001FFC0
FFC001FFC0
FFC001FFC0
FFC001FFC0
FFC001FFC0
FFC001FFC0
FFC001FFC0
FFC001FFC0
FFC001FFC0
FFC001FFC0
FFC001FFC0
FFC001FFC0
FFC001FFC0
FFC001FFC0
FFC001FFC0
FFC001FFC0
FFC001FFC0
FFC001FFC0
FFC001FFC0
FFE001FFC0
FFE001FFC0
FFE001FFC0
FFF007FFC0
FFF80FFFC0
7FFFFFFFC0
7FFFFFFFC0
7FFFFFFFC0
3FFFFFFFC0
1FFFFFFFC0
1FFFFEFFC0
07FFF8FFC0
03FFF0FFC0
007F800000
ENDCHAR
STARTCHAR yacute
ENCODING 253
SWIDTH 501 0
DWIDTH 38 0
BBX 38 72 0 -16
BITMAP
000007FF80
00000FFE00
00000FFC00
00001FF800
00003FF800
00003FF000
00007FE000
0000FFC000
0000FF8000
0001FF0000
0003FE0000
0000000000
0000000000
0000000000
0000000000
0000000000
FFF0003FFC
7FF0003FF8
7FF0003FF8
3FF8007FF8
3FF8007FF0
3FF8007FF0
1FFC00FFE0
1FFC00FFE0
1FFC00FFE0
0FFC00FFC0
0FFE01FFC0
0FFE01FFC0
07FE01FF80
07FF03FF80
07FF03FF80
03FF03FF00
03FF87FF00
03FF87FF00
01FF87FE00
01FF87FE00
01FFCFFE00
00FFCFFC00
00FFCFFC00
00FFFFFC00
007FFFF800
007FFFF800
003FFFF800
003FFFF000
003FFFF000
001FFFF000
001FFFE000
001FFFE000
000FFFC000
000FFFC000
000FFFC000
0007FF8000
0007FF8000
0007FF8000
0003FF0000
0003FF0000
0003FF0000
0007FE0000
0007FE0000
0007FE0000
000FFC0000
001FFC0000
003FFC0000
0FFFF80000
0FFFF80000
0FFFF00000
0FFFF00000
0FFFE00000
0FFFC00000
0FFF800000
0FFE000000
07F8000000
ENDCHAR
STARTCHAR thorn
ENCODING 254
SWIDTH 567 0
DWIDTH 43 0
BBX 36 71 4 -15
BITMAP
FFE0000000
FFE0000000
FFE0000000
FFE0000000
FFE0000000
FFE0000000
FFE0000000
FFE0000000
FFE0000000
FFE0000000
FFE0000000
FFE0000000
FFE0000000
FFE0000000
FFE0000000
FFE0000000
FFE07F8000
FFE3FFE000
FFE7FFF800
FFEFFFFC00
FFFFFFFE00
FFFFFFFF00
FFFFFFFF80
FFFFFFFF80
FFFFFFFFC0
FFFE07FFC0
FFF803FFE0
FFF001FFE0
FFE000FFE0
FFE000FFE0
FFE0007FF0
FFE0007FF0
FFE0007FF0
FFE0007FF0
FFE0007FF0
FFE0007FF0
FFE0007FF0
FFE0007FF0
FFE0007FF0
FFE0007FF0
FFE0007FF0
FFE0007FF0
FFE0007FF0
FFE000FFE0
FFE000FFE0
FFF001FFE0
FFF803FFE0
FFFE07FFC0
FFFFFFFFC0
FFFFFFFF80
FFFFFFFF80
FFFFFFFF00
FFFFFFFE00
FFEFFFFC00
FFE7FFF800
FFE3FFE000
FFE07F8000
FFE0000000
FFE0000000
FFE0000000
FFE0000000
FFE0000000
FFE0000000
FFE0000000
FFE0000000
FFE0000000
FFE0000000
FFE0000000
FFE0000000
FFE0000000
FFE0000000
ENDCHAR
STARTCHAR ydieresis
ENCODING 255
SWIDTH 501 0
DWIDTH 38 0
BBX 38 70 0 -16
BITMAP
00F8003C00
03FC00FF00
03FE01FF80
07FE01FF80
07FE01FF80
07FE01FF80
03FE01FF80
03FC00FF00
00F8003C00
0000000000
0000000000
0000000000
0000000000
0000000000
FFF0003FFC
7FF0003FF8
7FF0003FF8
3FF8007FF8
3FF8007FF0
3FF8007FF0
1FFC00FFE0
1FFC00FFE0
1FFC00FFE0
0FFC00FFC0
0FFE01FFC0
0FFE01FFC0
07FE01FF80
07FF03FF80
07FF03FF80
03FF03FF00
03FF87FF00
03FF87FF00
01FF87FE00
01FF87FE00
01FFCFFE00
00FFCFFC00
00FFCFFC00
00FFFFFC00
007FFFF800
007FFFF800
003FFFF800
003FFFF000
003FFFF000
001FFFF000
001FFFE000
001FFFE000
000FFFC000
000FFFC000
000FFFC000
0007FF8000
0007FF8000
0007FF8000
0003FF0000
0003FF0000
0003FF0000
0007FE0000
0007FE0000
0007FE0000
000FFC0000
001FFC0000
003FFC0000
0FFFF80000
0FFFF80000
0FFFF00000
0FFFF00000
0FFFE00000
0FFFC00000
0FFF800000
0FFE000000
07F8000000
ENDCHAR
STARTCHAR Amacron
ENCODING 256
SWIDTH 672 0
DWIDTH 50 0
BBX 50 64 0 0
BITMAP
0007FFFFFC0000
0007FFFFFC0000
0007FFFFFC0000
0007FFFFFC0000
0007FFFFFC0000
0007FFFFFC0000
00000000000000
00000000000000
00000000000000
00000000000000
00000000000000
00000FFC000000
00000FFE000000
00001FFE000000
00001FFF000000
00003FFF000000
00003FFF000000
00003FFF800000
00007FFF800000
00007FFF800000
00007FFFC00000
0000FFFFC00000
0000FFFFE00000
0001FFFFE00000
0001FFFFE00000
0001FFBFF00000
0003FFBFF00000
0003FF3FF00000
0003FF1FF80000
0007FE1FF80000
0007FE1FFC0000
000FFE0FFC0000
000FFC0FFC0000
000FFC0FFE0000
001FFC07FE0000
001FF807FF0000
001FF807FF0000
003FF803FF0000
003FF003FF8000
007FF003FF8000
007FF001FF8000
007FE001FFC000
00FFE001FFC000
00FFE000FFE000
00FFFFFFFFE000
01FFFFFFFFE000
01FFFFFFFFF000
03FFFFFFFFF000
03FFFFFFFFF000
03FFFFFFFFF800
07FFFFFFFFF800
07FFFFFFFFFC00
07FFFFFFFFFC00
0FFE00001FFC00
0FFE00001FFE00
1FFE00000FFE00
1FFC00000FFE00
1FFC00000FFF00
3FFC000007FF00
3FF8000007FF80
3FF8000007FF80
7FF8000003FF80
7FF0000003FFC0
FFF0000003FFC0
ENDCHAR
STARTCHAR amacron
ENCODING 257
SWIDTH 536 0
DWIDTH 40 0
BBX 36 54 2 -1
BITMAP
03FFFFFE00
03FFFFFE00
03FFFFFE00
03FFFFFE00
03FFFFFE00
03FFFFFE00
0000000000
0000000000
0000000000
0000000000
0000000000
0000000000
0000000000
0007FE0000
003FFFC000
00FFFFF000
03FFFFFC00
07FFFFFE00
0FFFFFFF00
1FFFFFFF00
3FFFFFFF80
3FFE07FF80
3FF803FFC0
7FF001FFC0
7FF001FFC0
000001FFC0
000000FFC0
000000FFC0
000000FFC0
0007FFFFC0
007FFFFFC0
01FFFFFFC0
07FFFFFFC0
0FFFFFFFC0
1FFFFFFFC0
3FFFFFFFC0
3FFE00FFC0
7FF800FFC0
7FF000FFC0
7FE000FFC0
7FE000FFC0
FFE000FFC0
FFE001FFC0
7FF003FFC0
7FFC0FFFC0
7FFFFFFFC0
7FFFFFFFC0
3FFFFFFFC0
3FFFFFFFC0
1FFFFFFFE0
0FFFFEFFE0
07FFFCFFE0
01FFF07FF0
003FC00000
ENDCHAR
STARTCHAR Abreve
ENCODING 258
SWIDTH 672 0
DWIDTH 50 0
BBX 50 67 0 0
BITMAP
0007F003FC0000
0007F003FC0000
0007F803FC0000
0007F807F80000
0007FE0FF80000
0003FFFFF00000
0001FFFFF00000
0000FFFFE00000
00007FFFC00000
00003FFF000000
000007F8000000
00000000000000
00000000000000
00000000000000
00000FFC000000
00000FFE000000
00001FFE000000
00001FFF000000
00003FFF000000
00003FFF000000
00003FFF800000
00007FFF800000
00007FFF800000
00007FFFC00000
0000FFFFC00000
0000FFFFE00000
0001FFFFE00000
0001FFFFE00000
0001FFBFF00000
0003FFBFF00000
0003FF3FF00000
0003FF1FF80000
0007FE1FF80000
0007FE1FFC0000
000FFE0FFC0000
000FFC0FFC0000
000FFC0FFE0000
001FFC07FE0000
001FF807FF0000
001FF807FF0000
003FF803FF0000
003FF003FF8000
007FF003FF8000
007FF001FF8000
007FE001FFC000
00FFE001FFC000
00FFE000FFE000
00FFFFFFFFE000
01FFFFFFFFE000
01FFFFFFFFF000
03FFFFFFFFF000
03FFFFFFFFF000
03FFFFFFFFF800
07FFFFFFFFF800
07FFFFFFFFFC00
07FFFFFFFFFC00
0FFE00001FFC00
0FFE00001FFE00
1FFE00000FFE00
1FFC00000FFE00
1FFC00000FFF00
3FFC000007FF00
3FF8000007FF80
3FF8000007FF80
7FF8000003FF80
7FF0000003FFC0
FFF0000003FFC0
ENDCHAR
STARTCHAR abreve
ENCODING 259
SWIDTH 536 0
DWIDTH 40 0
BBX 36 57 2 -1
BITMAP
07F801FE00
07F801FE00
03F801FC00
03FC03FC00
03FF07FC00
01FFFFF800
01FFFFF800
00FFFFF000
003FFFE000
001FFF8000
0003FC0000
0000000000
0000000000
0000000000
0000000000
0000000000
0007FE0000
003FFFC000
00FFFFF000
03FFFFFC00
07FFFFFE00
0FFFFFFF00
1FFFFFFF00
3FFFFFFF80
3FFE07FF80
3FF803FFC0
7FF001FFC0
7FF001FFC0
000001FFC0
000000FFC0
000000FFC0
000000FFC0
0007FFFFC0
007FFFFFC0
01FFFFFFC0
07FFFFFFC0
0FFFFFFFC0
1FFFFFFFC0
3FFFFFFFC0
3FFE00FFC0
7FF800FFC0
7FF000FFC0
7FE000FFC0
7FE000FFC0
FFE000FFC0
FFE001FFC0
7FF003FFC0
7FFC0FFFC0
7FFFFFFFC0
7FFFFFFFC0
3FFFFFFFC0
3FFFFFFFC0
1FFFFFFFE0
0FFFFEFFE0
07FFFCFFE0
01FFF07FF0
003FC00000
ENDCHAR
STARTCHAR Aogonek
ENCODING 260
SWIDTH 672 0
DWIDTH 50 0
BBX 50 68 0 -15
BITMAP
00000FFC000000
00001FFE000000
00001FFE000000
00001FFE000000
00003FFF000000
00003FFF000000
00007FFF800000
00007FFF800000
00007FFF800000
0000FFFFC00000
0000FFFFC00000
0000FFFFC00000
0001FFFFE00000
0001FFFFE00000
0003FFFFF00000
0003FF3FF00000
0003FF3FF00000
0007FF3FF80000
0007FE1FF80000
0007FE1FF80000
000FFE1FFC0000
000FFC0FFC0000
001FFC0FFE0000
001FFC0FFE0000
001FF807FE0000
003FF807FF0000
003FF807FF0000
003FF003FF0000
007FF003FF8000
007FF003FF8000
00FFE001FFC000
00FFE001FFC000
00FFE001FFC000
01FFFFFFFFE000
01FFFFFFFFE000
01FFFFFFFFE000
03FFFFFFFFF000
03FFFFFFFFF000
07FFFFFFFFF800
07FFFFFFFFF800
07FFFFFFFFF800
0FFFFFFFFFFC00
0FFE00001FFC00
0FFE00001FFC00
1FFE00001FFE00
1FFC00000FFE00
3FFC00000FFF00
3FFC00000FFF00
3FF8000007FF00
7FF8000007FF80
7FF8000007FF80
7FF0000003FF80
FFF0000003FFC0
0000000007FC00
000000000FF000
000000001FE000
000000001FC000
000000003FC000
000000003F8000
000000007F8000
000000007FC200
000000007FFE00
000000003FFE00
000000003FFE00
000000003FFE00
000000001FFF00
000000000FFE00
0000000003F800
ENDCHAR
STARTCHAR aogonek
ENCODING 261
SWIDTH 536 0
DWIDTH 40 0
BBX 36 55 2 -15
BITMAP
0007FE0000
003FFFC000
01FFFFF000
03FFFFFC00
07FFFFFE00
0FFFFFFE00
1FFFFFFF00
3FFFFFFF80
3FFC0FFF80
3FF803FF80
7FF001FFC0
7FF001FFC0
000001FFC0
000001FFC0
000001FFC0
000001FFC0
0007FFFFC0
007FFFFFC0
01FFFFFFC0
07FFFFFFC0
0FFFFFFFC0
1FFFFFFFC0
3FFFFFFFC0
3FFE01FFC0
7FF801FFC0
7FF001FFC0
7FE001FFC0
FFE001FFC0
FFE001FFC0
FFE001FFC0
FFF003FFC0
7FF81FFFC0
7FFFFFFFC0
7FFFFFFFC0
3FFFFFFFC0
3FFFFFFFC0
1FFFFFFFE0
0FFFFEFFE0
07FFFCFFE0
01FFF07FF0
003FC0FF80
000001FE00
000003FC00
000007F800
000007F000
000007F000
00000FF000
00000FF840
00000FFFC0
00000FFFC0
000007FFC0
000007FFC0
000003FFC0
000001FFE0
0000007F00
ENDCHAR
STARTCHAR Cacute
ENCODING 262
SWIDTH 654 0
DWIDTH 49 0
BBX 44 69 3 -1
BITMAP
000000FFF000
000001FFC000
000001FFC000
000003FF8000
000007FF0000
000007FE0000
00000FFC0000
00001FF80000
00001FF00000
00003FE00000
00007FC00000
000000000000
000000000000
000000000000
00007FF00000
0003FFFE0000
000FFFFFC000
003FFFFFE000
007FFFFFF800
00FFFFFFFC00
01FFFFFFFE00
03FFFFFFFF00
07FFFFFFFF00
0FFFE03FFF80
0FFF8007FF80
1FFE0003FFC0
1FFC0001FFC0
3FFC0001FFE0
3FF80000FFE0
3FF80000FFE0
7FF00000FFE0
7FF000007FF0
7FF000007FF0
7FF000000000
FFF000000000
FFE000000000
FFE000000000
FFE000000000
FFE000000000
FFE000000000
FFE000000000
FFE000000000
FFE000000000
FFE000000000
FFE000000000
FFE000000000
FFE000000000
FFE000000000
FFF000000000
7FF000000000
7FF000007FF0
7FF00000FFF0
7FF00000FFE0
3FF80000FFE0
3FF80000FFE0
3FFC0001FFE0
1FFC0001FFC0
1FFE0003FFC0
0FFF0007FFC0
0FFFE03FFF80
07FFFFFFFF00
03FFFFFFFF00
03FFFFFFFE00
01FFFFFFFC00
00FFFFFFF800
003FFFFFE000
001FFFFFC000
0003FFFE0000
00007FF00000
ENDCHAR
STARTCHAR cacute
ENCODING 263
SWIDTH 521 0
DWIDTH 39 0
BBX 35 57 2 -1
BITMAP
00001FFE00
00001FFC00
00003FF800
00007FF000
00007FE000
0000FFC000
0001FF8000
0001FF0000
0003FE0000
0007FC0000
0007FC0000
0008000000
0000000000
0000000000
0000000000
0000000000
0003FE0000
001FFFC000
007FFFF000
01FFFFFC00
03FFFFFE00
07FFFFFF00
0FFFFFFF00
0FFFFFFF80
1FFFFFFFC0
3FFF07FFC0
3FFC01FFC0
3FF800FFE0
7FF000FFE0
7FF0007FE0
7FF0007FE0
7FE0000000
7FE0000000
FFE0000000
FFE0000000
FFE0000000
FFE0000000
FFE0000000
FFE0000000
FFE0000000
7FE0000000
7FE0000000
7FE0000000
7FF0007FE0
7FF0007FE0
3FF800FFE0
3FFC01FFC0
3FFF07FFC0
1FFFFFFFC0
0FFFFFFF80
0FFFFFFF00
07FFFFFF00
03FFFFFE00
01FFFFFC00
007FFFF000
001FFFC000
0003FE0000
ENDCHAR
STARTCHAR Ccircumflex
ENCODING 264
SWIDTH 654 0
DWIDTH 49 0
BBX 44 70 3 -1
BITMAP
00001FC00000
00007FE00000
0000FFF00000
0001FFF80000
0003FFFC0000
0007FFFE0000
000FF9FF0000
001FF0FF8000
003FE07FE000
007FC03FF000
00FF801FF000
000000000000
000000000000
000000000000
000000000000
00007FF00000
0003FFFE0000
000FFFFFC000
003FFFFFE000
007FFFFFF800
00FFFFFFFC00
01FFFFFFFE00
03FFFFFFFF00
07FFFFFFFF00
0FFFE03FFF80
0FFF8007FF80
1FFE0003FFC0
1FFC0001FFC0
3FFC0001FFE0
3FF80000FFE0
3FF80000FFE0
7FF00000FFE0
7FF000007FF0
7FF000007FF0
7FF000000000
FFF000000000
FFE000000000
FFE000000000
FFE000000000
FFE000000000
FFE000000000
FFE000000000
FFE000000000
FFE000000000
FFE000000000
FFE000000000
FFE000000000
FFE000000000
FFE000000000
FFF000000000
7FF000000000
7FF000007FF0
7FF00000FFF0
7FF00000FFE0
3FF80000FFE0
3FF80000FFE0
3FFC0001FFE0
1FFC0001FFC0
1FFE0003FFC0
0FFF0007FFC0
0FFFE03FFF80
07FFFFFFFF00
03FFFFFFFF00
03FFFFFFFE00
01FFFFFFFC00
00FFFFFFF800
003FFFFFE000
001FFFFFC000
0003FFFE0000
00007FF00000
ENDCHAR
STARTCHAR ccircumflex
ENCODING 265
SWIDTH 521 0
DWIDTH 39 0
BBX 35 58 2 -1
BITMAP
0003F80000
0007FC0000
000FFE0000
001FFF0000
003FFFC000
00FFFFE000
01FF9FF000
03FF0FF800
07FE07FC00
0FF803FE00
0FF001FF00
0000000000
0000000000
0000000000
0000000000
0000000000
0000000000
0003FE0000
001FFFC000
007FFFF000
01FFFFFC00
03FFFFFE00
07FFFFFF00
0FFFFFFF00
0FFFFFFF80
1FFFFFFFC0
3FFF07FFC0
3FFC01FFC0
3FF800FFE0
7FF000FFE0
7FF0007FE0
7FF0007FE0
7FE0000000
7FE0000000
FFE0000000
FFE0000000
FFE0000000
FFE0000000
FFE0000000
FFE0000000
FFE0000000
7FE0000000
7FE0000000
7FE0000000
7FF0007FE0
7FF0007FE0
3FF800FFE0
3FFC01FFC0
3FFF07FFC0
1FFFFFFFC0
0FFFFFFF80
0FFFFFFF00
07FFFFFF00
03FFFFFE00
01FFFFFC00
007FFFF000
001FFFC000
0003FE0000
ENDCHAR
STARTCHAR Cdotaccent
ENCODING 266
SWIDTH 654 0
DWIDTH 49 0
BBX 44 67 3 -1
BITMAP
00000F800000
00003FC00000
00007FE00000
00007FE00000
00007FF00000
00007FE00000
00007FE00000
00003FC00000
00001F800000
000000000000
000000000000
000000000000
00007FF00000
0003FFFE0000
000FFFFFC000
003FFFFFE000
007FFFFFF800
00FFFFFFFC00
01FFFFFFFE00
03FFFFFFFF00
07FFFFFFFF00
0FFFE03FFF80
0FFF8007FF80
1FFE0003FFC0
1FFC0001FFC0
3FFC0001FFE0
3FF80000FFE0
3FF80000FFE0
7FF00000FFE0
7FF000007FF0
7FF000007FF0
7FF000000000
FFF000000000
FFE000000000
FFE000000000
FFE000000000
FFE000000000
FFE000000000
FFE000000000
FFE000000000
FFE000000000
FFE000000000
FFE000000000
FFE000000000
FFE000000000
FFE000000000
FFF000000000
7FF000000000
7FF000007FF0
7FF00000FFF0
7FF00000FFE0
3FF80000FFE0
3FF80000FFE0
3FFC0001FFE0
1FFC0001FFC0
1FFE0003FFC0
0FFF0007FFC0
0FFFE03FFF80
07FFFFFFFF00
03FFFFFFFF00
03FFFFFFFE00
01FFFFFFFC00
00FFFFFFF800
003FFFFFE000
001FFFFFC000
0003FFFE0000
00007FF00000
ENDCHAR
STARTCHAR cdotaccent
ENCODING 267
SWIDTH 521 0
DWIDTH 39 0
BBX 35 56 2 -1
BITMAP
0001F00000
0007FC0000
0007FC0000
000FFE0000
000FFE0000
000FFE0000
0007FC0000
0007FC0000
0001F00000
0000000000
0000000000
0000000000
0000000000
0000000000
0000000000
0003FE0000
001FFFC000
007FFFF000
01FFFFFC00
03FFFFFE00
07FFFFFF00
0FFFFFFF00
0FFFFFFF80
1FFFFFFFC0
3FFF07FFC0
3FFC01FFC0
3FF800FFE0
7FF000FFE0
7FF0007FE0
7FF0007FE0
7FE0000000
7FE0000000
FFE0000000
FFE0000000
FFE0000000
FFE0000000
FFE0000000
FFE0000000
FFE0000000
7FE0000000
7FE0000000
7FE0000000
7FF0007FE0
7FF0007FE0
3FF800FFE0
3FFC01FFC0
3FFF07FFC0
1FFFFFFFC0
0FFFFFFF80
0FFFFFFF00
07FFFFFF00
03FFFFFE00
01FFFFFC00
007FFFF000
001FFFC000
0003FE0000
ENDCHAR
STARTCHAR Ccaron
ENCODING 268
SWIDTH 654 0
DWIDTH 49 0
BBX 44 70 3 -1
BITMAP
00FF801FF800
007FC03FE000
003FE07FC000
001FF0FF8000
000FF9FF0000
0007FFFE0000
0003FFFC0000
0001FFF80000
0000FFF00000
00007FE00000
00003FC00000
000000000000
000000000000
000000000000
000000000000
00007FF00000
0003FFFE0000
000FFFFFC000
003FFFFFE000
007FFFFFF800
00FFFFFFFC00
01FFFFFFFE00
03FFFFFFFF00
07FFFFFFFF00
0FFFE03FFF80
0FFF8007FF80
1FFE0003FFC0
1FFC0001FFC0
3FFC0001FFE0
3FF80000FFE0
3FF80000FFE0
7FF00000FFE0
7FF000007FF0
7FF000007FF0
7FF000000000
FFF000000000
FFE000000000
FFE000000000
FFE000000000
FFE000000000
FFE000000000
FFE000000000
FFE000000000
FFE000000000
FFE000000000
FFE000000000
FFE000000000
FFE000000000
FFE000000000
FFF000000000
7FF000000000
7FF000007FF0
7FF00000FFF0
7FF00000FFE0
3FF80000FFE0
3FF80000FFE0
3FFC0001FFE0
1FFC0001FFC0
1FFE0003FFC0
0FFF0007FFC0
0FFFE03FFF80
07FFFFFFFF00
03FFFFFFFF00
03FFFFFFFE00
01FFFFFFFC00
00FFFFFFF800
003FFFFFE000
001FFFFFC000
0003FFFE0000
00007FF00000
ENDCHAR
STARTCHAR ccaron
ENCODING 269
SWIDTH 521 0
DWIDTH 39 0
BBX 35 58 2 -1
BITMAP
1FF803FF00
0FFC07FE00
07FE0FFC00
03FF1FF800
01FFBFF000
00FFFFE000
003FFFC000
001FFF8000
000FFF0000
0007FC0000
0003F80000
0000000000
0000000000
0000000000
0000000000
0000000000
0000000000
0003FE0000
001FFFC000
007FFFF000
01FFFFFC00
03FFFFFE00
07FFFFFF00
0FFFFFFF00
0FFFFFFF80
1FFFFFFFC0
3FFF07FFC0
3FFC01FFC0
3FF800FFE0
7FF000FFE0
7FF0007FE0
7FF0007FE0
7FE0000000
7FE0000000
FFE0000000
FFE0000000
FFE0000000
FFE0000000
FFE0000000
FFE0000000
FFE0000000
7FE0000000
7FE0000000
7FE0000000
7FF0007FE0
7FF0007FE0
3FF800FFE0
3FFC01FFC0
3FFF07FFC0
1FFFFFFFC0
0FFFFFFF80
0FFFFFFF00
07FFFFFF00
03FFFFFE00
01FFFFFC00
007FFFF000
001FFFC000
0003FE0000
ENDCHAR
STARTCHAR Dcaron
ENCODING 270
SWIDTH 649 0
DWIDTH 49 0
BBX 41 68 5 0
BITMAP
FF801FF80000
7FC03FF00000
3FE07FE00000
1FF0FFC00000
0FF9FF000000
07FFFE000000
03FFFC000000
01FFF8000000
00FFF0000000
007FE0000000
003FC0000000
000000000000
000000000000
000000000000
000000000000
FFFFFC000000
FFFFFF800000
FFFFFFF00000
FFFFFFF80000
FFFFFFFE0000
FFFFFFFF0000
FFFFFFFF8000
FFFFFFFFC000
FFFFFFFFE000
FFE00FFFF000
FFE001FFF000
FFE000FFF800
FFE0007FFC00
FFE0003FFC00
FFE0001FFE00
FFE0000FFE00
FFE0000FFE00
FFE0000FFF00
FFE00007FF00
FFE00007FF00
FFE00007FF00
FFE00007FF00
FFE00007FF00
FFE00007FF00
FFE00007FF80
FFE00007FF80
FFE00007FF80
FFE00007FF80
FFE00007FF80
FFE00007FF00
FFE00007FF00
FFE00007FF00
FFE00007FF00
FFE00007FF00
FFE00007FF00
FFE0000FFF00
FFE0000FFE00
FFE0001FFE00
FFE0001FFE00
FFE0003FFC00
FFE0007FFC00
FFE000FFF800
FFE001FFF000
FFE00FFFF000
FFFFFFFFE000
FFFFFFFFC000
FFFFFFFF8000
FFFFFFFF0000
FFFFFFFE0000
FFFFFFF80000
FFFFFFE00000
FFFFFF800000
FFFFF8000000
ENDCHAR
STARTCHAR dcaron
ENCODING 271
SWIDTH 636 0
DWIDTH 48 0
BBX 50 57 2 -1
BITMAP
0000007FF03FC0
0000007FF03FC0
0000007FF03FC0
0000007FF03FC0
0000007FF03F80
0000007FF03F80
0000007FF07F80
0000007FF07F80
0000007FF07F80
0000007FF07F00
0000007FF0FF00
0000007FF0FE00
0000007FF1FE00
0000007FF0FC00
0000007FF03800
0000007FF01800
000FE07FF00000
007FFC7FF00000
01FFFE7FF00000
03FFFFFFF00000
07FFFFFFF00000
0FFFFFFFF00000
0FFFFFFFF00000
1FFFFFFFF00000
1FFFFFFFF00000
3FFF03FFF00000
3FFC01FFF00000
7FF800FFF00000
7FF0007FF00000
7FF0007FF00000
7FF0007FF00000
7FE0007FF00000
FFE0007FF00000
FFE0007FF00000
FFE0007FF00000
FFE0007FF00000
FFE0007FF00000
FFE0007FF00000
FFE0007FF00000
FFE0007FF00000
7FE0007FF00000
7FE0007FF00000
7FF0007FF00000
7FF0007FF00000
7FF0007FF00000
7FF800FFF00000
3FFC01FFF00000
3FFF03FFF00000
1FFFFFFFF00000
1FFFFFFFF00000
0FFFFFFFF00000
07FFFFFFF00000
07FFFFBFF00000
03FFFF3FF00000
00FFFE3FF00000
007FFC3FF00000
000FE000000000
ENDCHAR
STARTCHAR Dcroat
ENCODING 272
SWIDTH 664 0
DWIDTH 50 0
BBX 48 53 -1 0
BITMAP
01FFFFF80000
01FFFFFF0000
01FFFFFFE000
01FFFFFFF000
01FFFFFFFC00
01FFFFFFFE00
01FFFFFFFF00
01FFFFFFFF80
01FFFFFFFFC0
01FFC01FFFE0
01FFC003FFF0
01FFC001FFF0
01FFC0007FF8
01FFC0007FF8
01FFC0003FFC
01FFC0001FFC
01FFC0001FFC
01FFC0001FFE
01FFC0000FFE
01FFC0000FFE
01FFC0000FFE
01FFC0000FFE
01FFC0000FFE
FFFFFFC00FFF
FFFFFFC00FFF
FFFFFFC00FFF
FFFFFFC00FFF
FFFFFFC00FFF
FFFFFFC00FFF
01FFC0000FFF
01FFC0000FFF
01FFC0000FFE
01FFC0000FFE
01FFC0000FFE
01FFC0000FFE
01FFC0001FFE
01FFC0001FFC
01FFC0001FFC
01FFC0003FFC
01FFC0007FF8
01FFC000FFF8
01FFC001FFF0
01FFC003FFF0
01FFC01FFFE0
01FFFFFFFFC0
01FFFFFFFF80
01FFFFFFFF00
01FFFFFFFE00
01FFFFFFFC00
01FFFFFFF000
01FFFFFFE000
01FFFFFF0000
01FFFFF00000
ENDCHAR
STARTCHAR dcroat
ENCODING 273
SWIDTH 630 0
DWIDTH 47 0
BBX 42 57 2 -1
BITMAP
0000007FF000
0000007FF000
0000007FF000
0000007FF000
0000007FF000
0000FFFFFFC0
0000FFFFFFC0
0000FFFFFFC0
0000FFFFFFC0
0000FFFFFFC0
0000FFFFFFC0
0000007FF000
0000007FF000
0000007FF000
0000007FF000
0000007FF000
000FE07FF000
007FFC7FF000
01FFFE7FF000
03FFFFFFF000
07FFFFFFF000
0FFFFFFFF000
0FFFFFFFF000
1FFFFFFFF000
1FFFFFFFF000
3FFF03FFF000
3FFC01FFF000
7FF800FFF000
7FF0007FF000
7FF0007FF000
7FF0007FF000
7FE0007FF000
FFE0007FF000
FFE0007FF000
FFE0007FF000
FFE0007FF000
FFE0007FF000
FFE0007FF000
FFE0007FF000
FFE0007FF000
7FE0007FF000
7FE0007FF000
7FF0007FF000
7FF0007FF000
7FF0007FF000
7FF800FFF000
3FFC01FFF000
3FFF03FFF000
1FFFFFFFF000
1FFFFFFFF000
0FFFFFFFF000
07FFFFFFF000
07FFFFBFF000
03FFFF3FF000
00FFFE3FF000
007FFC3FF000
000FE0000000
ENDCHAR
STARTCHAR Emacron
ENCODING 274
SWIDTH 562 0
DWIDTH 42 0
BBX 36 64 5 0
BITMAP
03FFFFFE00
03FFFFFE00
03FFFFFE00
03FFFFFE00
03FFFFFE00
03FFFFFE00
0000000000
0000000000
0000000000
0000000000
0000000000
FFFFFFFFE0
FFFFFFFFE0
FFFFFFFFE0
FFFFFFFFE0
FFFFFFFFE0
FFFFFFFFE0
FFFFFFFFE0
FFFFFFFFE0
FFFFFFFFE0
FFE0000000
FFE0000000
FFE0000000
FFE0000000
FFE0000000
FFE0000000
FFE0000000
FFE0000000
FFE0000000
FFE0000000
FFE0000000
FFE0000000
FFFFFFFF00
FFFFFFFF00
FFFFFFFF00
FFFFFFFF00
FFFFFFFF00
FFFFFFFF00
FFFFFFFF00
FFFFFFFF00
FFFFFFFF00
FFE0000000
FFE0000000
FFE0000000
FFE0000000
FFE0000000
FFE0000000
FFE0000000
FFE0000000
FFE0000000
FFE0000000
FFE0000000
FFE0000000
FFE0000000
FFE0000000
FFFFFFFFF0
FFFFFFFFF0
FFFFFFFFF0
FFFFFFFFF0
FFFFFFFFF0
FFFFFFFFF0
FFFFFFFFF0
FFFFFFFFF0
FFFFFFFFF0
ENDCHAR
STARTCHAR emacron
ENCODING 275
SWIDTH 540 0
DWIDTH 41 0
BBX 36 54 3 -1
BITMAP
07FFFFFC00
07FFFFFC00
07FFFFFC00
07FFFFFC00
07FFFFFC00
07FFFFFC00
0000000000
0000000000
0000000000
0000000000
0000000000
0000000000
0000000000
0003FE0000
001FFFC000
007FFFF000
01FFFFF800
03FFFFFE00
07FFFFFE00
0FFFFFFF00
1FFFFFFF80
1FFFFFFF80
3FFF07FFC0
3FFC01FFC0
7FF800FFE0
7FF0007FE0
7FF0007FE0
FFE0007FE0
FFE0007FF0
FFE0007FF0
FFFFFFFFF0
FFFFFFFFF0
FFFFFFFFF0
FFFFFFFFF0
FFFFFFFFF0
FFFFFFFFF0
FFFFFFFFF0
FFE0000000
FFE0000000
FFE0000000
7FF0000000
7FF0000400
7FF8000E00
3FFE001F00
3FFF80FF80
1FFFFFFFC0
1FFFFFFFE0
0FFFFFFFE0
07FFFFFFC0
03FFFFFF80
01FFFFFE00
007FFFFC00
001FFFF000
0001FF0000
ENDCHAR
STARTCHAR Ebreve
ENCODING 276
SWIDTH 562 0
DWIDTH 42 0
BBX 36 67 5 0
BITMAP
07F801FE00
03F801FE00
03F801FE00
03FC03FC00
03FF07FC00
01FFFFF800
00FFFFF800
00FFFFF000
003FFFE000
001FFF8000
0003FC0000
0000000000
0000000000
0000000000
FFFFFFFFE0
FFFFFFFFE0
FFFFFFFFE0
FFFFFFFFE0
FFFFFFFFE0
FFFFFFFFE0
FFFFFFFFE0
FFFFFFFFE0
FFFFFFFFE0
FFE0000000
FFE0000000
FFE0000000
FFE0000000
FFE0000000
FFE0000000
FFE0000000
FFE0000000
FFE0000000
FFE0000000
FFE0000000
FFE0000000
FFFFFFFF00
FFFFFFFF00
FFFFFFFF00
FFFFFFFF00
FFFFFFFF00
FFFFFFFF00
FFFFFFFF00
FFFFFFFF00
FFFFFFFF00
FFE0000000
FFE0000000
FFE0000000
FFE0000000
FFE0000000
FFE0000000
FFE0000000
FFE0000000
FFE0000000
FFE0000000
FFE0000000
FFE0000000
FFE0000000
FFE0000000
FFFFFFFFF0
FFFFFFFFF0
FFFFFFFFF0
FFFFFFFFF0
FFFFFFFFF0
FFFFFFFFF0
FFFFFFFFF0
FFFFFFFFF0
FFFFFFFFF0
ENDCHAR
STARTCHAR ebreve
ENCODING 277
SWIDTH 540 0
DWIDTH 41 0
BBX 36 57 3 -1
BITMAP
0FF003F800
0FF003F800
0FF007F800
07F807F800
07FC1FF800
03FFFFF000
03FFFFE000
01FFFFC000
00FFFF8000
003FFF0000
0007F80000
0000000000
0000000000
0000000000
0000000000
0000000000
0003FE0000
001FFFC000
007FFFF000
01FFFFF800
03FFFFFE00
07FFFFFE00
0FFFFFFF00
1FFFFFFF80
1FFFFFFF80
3FFF07FFC0
3FFC01FFC0
7FF800FFE0
7FF0007FE0
7FF0007FE0
FFE0007FE0
FFE0007FF0
FFE0007FF0
FFFFFFFFF0
FFFFFFFFF0
FFFFFFFFF0
FFFFFFFFF0
FFFFFFFFF0
FFFFFFFFF0
FFFFFFFFF0
FFE0000000
FFE0000000
FFE0000000
7FF0000000
7FF0000400
7FF8000E00
3FFE001F00
3FFF80FF80
1FFFFFFFC0
1FFFFFFFE0
0FFFFFFFE0
07FFFFFFC0
03FFFFFF80
01FFFFFE00
007FFFFC00
001FFFF000
0001FF0000
ENDCHAR
STARTCHAR Edotaccent
ENCODING 278
SWIDTH 562 0
DWIDTH 42 0
BBX 36 66 5 0
BITMAP
0000F80000
0003FC0000
0007FE0000
0007FF0000
0007FF0000
0007FF0000
0007FE0000
0003FC0000
0000F80000
0000000000
0000000000
0000000000
0000000000
FFFFFFFFE0
FFFFFFFFE0
FFFFFFFFE0
FFFFFFFFE0
FFFFFFFFE0
FFFFFFFFE0
FFFFFFFFE0
FFFFFFFFE0
FFFFFFFFE0
FFE0000000
FFE0000000
FFE0000000
FFE0000000
FFE0000000
FFE0000000
FFE0000000
FFE0000000
FFE0000000
FFE0000000
FFE0000000
FFE0000000
FFFFFFFF00
FFFFFFFF00
FFFFFFFF00
FFFFFFFF00
FFFFFFFF00
FFFFFFFF00
FFFFFFFF00
FFFFFFFF00
FFFFFFFF00
FFE0000000
FFE0000000
FFE0000000
FFE0000000
FFE0000000
FFE0000000
FFE0000000
FFE0000000
FFE0000000
FFE0000000
FFE0000000
FFE0000000
FFE0000000
FFE0000000
FFFFFFFFF0
FFFFFFFFF0
FFFFFFFFF0
FFFFFFFFF0
FFFFFFFFF0
FFFFFFFFF0
FFFFFFFFF0
FFFFFFFFF0
FFFFFFFFF0
ENDCHAR
STARTCHAR edotaccent
ENCODING 279
SWIDTH 540 0
DWIDTH 41 0
BBX 36 56 3 -1
BITMAP
0003F00000
0007F80000
000FFC0000
000FFC0000
001FFC0000
000FFC0000
000FFC0000
0007F80000
0003F00000
0000000000
0000000000
0000000000
0000000000
0000000000
0000000000
0003FE0000
001FFFC000
007FFFF000
01FFFFF800
03FFFFFE00
07FFFFFE00
0FFFFFFF00
1FFFFFFF80
1FFFFFFF80
3FFF07FFC0
3FFC01FFC0
7FF800FFE0
7FF0007FE0
7FF0007FE0
FFE0007FE0
FFE0007FF0
FFE0007FF0
FFFFFFFFF0
FFFFFFFFF0
FFFFFFFFF0
FFFFFFFFF0
FFFFFFFFF0
FFFFFFFFF0
FFFFFFFFF0
FFE0000000
FFE0000000
FFE0000000
7FF0000000
7FF0000400
7FF8000E00
3FFE001F00
3FFF80FF80
1FFFFFFFC0
1FFFFFFFE0
0FFFFFFFE0
07FFFFFFC0
03FFFFFF80
01FFFFFE00
007FFFFC00
001FFFF000
0001FF0000
ENDCHAR
STARTCHAR Eogonek
ENCODING 280
SWIDTH 562 0
DWIDTH 42 0
BBX 35 68 5 -15
BITMAP
FFFFFFFFE0
FFFFFFFFE0
FFFFFFFFE0
FFFFFFFFE0
FFFFFFFFE0
FFFFFFFFE0
FFFFFFFFE0
FFFFFFFFE0
FFFFFFFFE0
FFE0000000
FFE0000000
FFE0000000
FFE0000000
FFE0000000
FFE0000000
FFE0000000
FFE0000000
FFE0000000
FFE0000000
FFE0000000
FFE0000000
FFFFFFFF00
FFFFFFFF00
FFFFFFFF00
FFFFFFFF00
FFFFFFFF00
FFFFFFFF00
FFFFFFFF00
FFFFFFFF00
FFFFFFFF00
FFE0000000
FFE0000000
FFE0000000
FFE0000000
FFE0000000
FFE0000000
FFE0000000
FFE0000000
FFE0000000
FFE0000000
FFE0000000
FFE0000000
FFE0000000
FFE0000000
FFFFFFFFE0
FFFFFFFFE0
FFFFFFFFE0
FFFFFFFFE0
FFFFFFFFE0
FFFFFFFFE0
FFFFFFFFE0
FFFFFFFFE0
FFFFFFFFE0
00000FF800
00001FE000
00003FC000
00007F8000
00007F0000
0000FF0000
0000FF0000
0000FF8400
0000FFFC00
0000FFFC00
00007FFC00
00007FFC00
00003FFC00
00001FFE00
000007F000
ENDCHAR
STARTCHAR eogonek
ENCODING 281
SWIDTH 540 0
DWIDTH 41 0
BBX 36 54 3 -14
BITMAP
0003FE0000
001FFFC000
007FFFF000
01FFFFF800
03FFFFFE00
07FFFFFE00
0FFFFFFF00
1FFFFFFF80
1FFFFFFF80
3FFF07FFC0
3FFC01FFC0
7FF800FFE0
7FF0007FE0
7FF0007FE0
FFE0007FE0
FFE0007FF0
FFE0007FF0
FFFFFFFFF0
FFFFFFFFF0
FFFFFFFFF0
FFFFFFFFF0
FFFFFFFFF0
FFFFFFFFF0
FFFFFFFFF0
FFE0000000
FFE0000000
FFE0000000
7FF0000000
7FF0000400
7FF8000E00
3FFE001F00
3FFF80FF80
1FFFFFFFC0
1FFFFFFFE0
0FFFFFFFE0
07FFFFFFC0
03FFFFFF80
01FFFFFE00
007FFFFC00
001FFFF000
0003FFC000
00007F8000
0000FF0000
0000FE0000
0001FE0000
0001FE0000
0001FF1000
0001FFF000
0001FFF800
0001FFF800
0000FFF800
00007FF800
00003FF800
00000FE000
ENDCHAR
STARTCHAR Ecaron
ENCODING 282
SWIDTH 562 0
DWIDTH 42 0
BBX 36 68 5 0
BITMAP
0FF801FF80
07FC03FF00
03FE07FE00
01FF0FF800
00FF9FF000
007FFFE000
003FFFC000
001FFF8000
000FFF0000
0007FE0000
0003FC0000
0000000000
0000000000
0000000000
0000000000
FFFFFFFFE0
FFFFFFFFE0
FFFFFFFFE0
FFFFFFFFE0
FFFFFFFFE0
FFFFFFFFE0
FFFFFFFFE0
FFFFFFFFE0
FFFFFFFFE0
FFE0000000
FFE0000000
FFE0000000
FFE0000000
FFE0000000
FFE0000000
FFE0000000
FFE0000000
FFE0000000
FFE0000000
FFE0000000
FFE0000000
FFFFFFFF00
FFFFFFFF00
FFFFFFFF00
FFFFFFFF00
FFFFFFFF00
FFFFFFFF00
FFFFFFFF00
FFFFFFFF00
FFFFFFFF00
FFE0000000
FFE0000000
FFE0000000
FFE0000000
FFE0000000
FFE0000000
FFE0000000
FFE0000000
FFE0000000
FFE0000000
FFE0000000
FFE0000000
FFE0000000
FFE0000000
FFFFFFFFF0
FFFFFFFFF0
FFFFFFFFF0
FFFFFFFFF0
FFFFFFFFF0
FFFFFFFFF0
FFFFFFFFF0
FFFFFFFFF0
FFFFFFFFF0
ENDCHAR
STARTCHAR ecaron
ENCODING 283
SWIDTH 540 0
DWIDTH 41 0
BBX 36 58 3 -1
BITMAP
3FF003FE00
0FF807FC00
07FC0FF800
03FE1FF000
01FF3FE000
00FFFFC000
007FFF8000
003FFF0000
001FFE0000
000FFC0000
0007F80000
0000000000
0000000000
0000000000
0000000000
0000000000
0000000000
0003FE0000
001FFFC000
007FFFF000
01FFFFF800
03FFFFFE00
07FFFFFE00
0FFFFFFF00
1FFFFFFF80
1FFFFFFF80
3FFF07FFC0
3FFC01FFC0
7FF800FFE0
7FF0007FE0
7FF0007FE0
FFE0007FE0
FFE0007FF0
FFE0007FF0
FFFFFFFFF0
FFFFFFFFF0
FFFFFFFFF0
FFFFFFFFF0
FFFFFFFFF0
FFFFFFFFF0
FFFFFFFFF0
FFE0000000
FFE0000000
FFE0000000
7FF0000000
7FF0000400
7FF8000E00
3FFE001F00
3FFF80FF80
1FFFFFFFC0
1FFFFFFFE0
0FFFFFFFE0
07FFFFFFC0
03FFFFFF80
01FFFFFE00
007FFFFC00
001FFFF000
0001FF0000
ENDCHAR
STARTCHAR Gcircumflex
ENCODING 284
SWIDTH 681 0
DWIDTH 51 0
BBX 44 70 3 -1
BITMAP
00001FC00000
00003FE00000
00007FF00000
0000FFF80000
0003FFFC0000
0007FFFF0000
000FF9FF8000
001FF0FFC000
003FE03FE000
007FC01FF000
007F800FF800
000000000000
000000000000
000000000000
000000000000
00003FF80000
0003FFFF0000
000FFFFFE000
003FFFFFF000
007FFFFFFC00
00FFFFFFFE00
01FFFFFFFF00
03FFFFFFFF00
07FFFFFFFF80
0FFFF01FFFC0
0FFF8007FFC0
1FFF0003FFC0
1FFE0001FFE0
3FFC0000FFE0
3FFC0000FFE0
3FF800007FF0
7FF800007FF0
7FF800007FF0
7FF000000000
7FF000000000
7FF000000000
7FF000000000
FFF000000000
FFF000000000
FFF000000000
FFF000000000
FFF001FFFFF0
FFF001FFFFF0
FFF001FFFFF0
FFF001FFFFF0
FFF001FFFFF0
FFF001FFFFF0
7FF001FFFFF0
7FF001FFFFF0
7FF001FFFFF0
7FF000007FF0
7FF000007FF0
7FF800007FF0
3FF800007FF0
3FF800007FF0
3FFC00007FF0
1FFE00007FF0
1FFE00007FF0
1FFF00007FF0
0FFFC000FFF0
07FFF007FFF0
07FFFFFFFFF0
03FFFFFFFFF0
01FFFFFFFFE0
00FFFFFFFFC0
007FFFFFFF80
001FFFFFFE00
000FFFFFF800
0001FFFFC000
00003FFC0000
ENDCHAR
STARTCHAR gcircumflex
ENCODING 285
SWIDTH 570 0
DWIDTH 43 0
BBX 36 73 3 -16
BITMAP
0003F80000
0007FC0000
001FFE0000
003FFF0000
007FFF8000
00FFFFC000
01FF3FE000
03FE1FF800
07FC0FFC00
0FF807FE00
1FF003FE00
0000000000
0000000000
0000000000
0000000000
0000000000
0000000000
000FF03FF0
007FFE3FF0
01FFFF3FF0
03FFFFFFF0
07FFFFFFF0
0FFFFFFFF0
1FFFFFFFF0
1FFFFFFFF0
3FFFFFFFF0
3FFF03FFF0
7FFC01FFF0
7FF800FFF0
7FF0007FF0
FFE0007FF0
FFE0007FF0
FFE0007FF0
FFE0007FF0
FFC0007FF0
FFC0007FF0
FFC0007FF0
FFC0007FF0
FFC0007FF0
FFC0007FF0
FFC0007FF0
FFE0007FF0
FFE0007FF0
FFE0007FF0
FFE0007FF0
7FF0007FF0
7FF800FFF0
7FFC01FFF0
3FFE03FFF0
3FFFFFFFF0
1FFFFFFFF0
1FFFFFFFF0
0FFFFFFFF0
07FFFFFFF0
03FFFFFFF0
01FFFE7FF0
007FFC7FF0
000FE07FF0
0000007FF0
0000007FF0
020000FFE0
030001FFE0
07C003FFE0
0FF80FFFC0
0FFFFFFFC0
1FFFFFFF80
3FFFFFFF00
1FFFFFFF00
0FFFFFFE00
07FFFFF800
01FFFFF000
007FFFC000
000FFC0000
ENDCHAR
STARTCHAR Gbreve
ENCODING 286
SWIDTH 681 0
DWIDTH 51 0
BBX 44 69 3 -1
BITMAP
003F801FE000
003F801FE000
003FC01FE000
003FC03FE000
001FF07FC000
001FFFFFC000
000FFFFF8000
0007FFFF0000
0003FFFE0000
0001FFF80000
00003FE00000
000000000000
000000000000
000000000000
00003FF80000
0003FFFF0000
000FFFFFE000
003FFFFFF000
007FFFFFFC00
00FFFFFFFE00
01FFFFFFFF00
03FFFFFFFF00
07FFFFFFFF80
0FFFF01FFFC0
0FFF8007FFC0
1FFF0003FFC0
1FFE0001FFE0
3FFC0000FFE0
3FFC0000FFE0
3FF800007FF0
7FF800007FF0
7FF800007FF0
7FF000000000
7FF000000000
7FF000000000
7FF000000000
FFF000000000
FFF000000000
FFF000000000
FFF000000000
FFF001FFFFF0
FFF001FFFFF0
FFF001FFFFF0
FFF001FFFFF0
FFF001FFFFF0
FFF001FFFFF0
7FF001FFFFF0
7FF001FFFFF0
7FF001FFFFF0
7FF000007FF0
7FF000007FF0
7FF800007FF0
3FF800007FF0
3FF800007FF0
3FFC00007FF0
1FFE00007FF0
1FFE00007FF0
1FFF00007FF0
0FFFC000FFF0
07FFF007FFF0
07FFFFFFFFF0
03FFFFFFFFF0
01FFFFFFFFE0
00FFFFFFFFC0
007FFFFFFF80
001FFFFFFE00
000FFFFFF800
0001FFFFC000
00003FFC0000
ENDCHAR
STARTCHAR gbreve
ENCODING 287
SWIDTH 570 0
DWIDTH 43 0
BBX 36 72 3 -16
BITMAP
0FF003FC00
07F003FC00
07F803FC00
07F807F800
07FE0FF800
03FFFFF000
01FFFFF000
01FFFFE000
007FFFC000
003FFF0000
0007F80000
0000000000
0000000000
0000000000
0000000000
0000000000
000FF03FF0
007FFE3FF0
01FFFF3FF0
03FFFFFFF0
07FFFFFFF0
0FFFFFFFF0
1FFFFFFFF0
1FFFFFFFF0
3FFFFFFFF0
3FFF03FFF0
7FFC01FFF0
7FF800FFF0
7FF0007FF0
FFE0007FF0
FFE0007FF0
FFE0007FF0
FFE0007FF0
FFC0007FF0
FFC0007FF0
FFC0007FF0
FFC0007FF0
FFC0007FF0
FFC0007FF0
FFC0007FF0
FFE0007FF0
FFE0007FF0
FFE0007FF0
FFE0007FF0
7FF0007FF0
7FF800FFF0
7FFC01FFF0
3FFE03FFF0
3FFFFFFFF0
1FFFFFFFF0
1FFFFFFFF0
0FFFFFFFF0
07FFFFFFF0
03FFFFFFF0
01FFFE7FF0
007FFC7FF0
000FE07FF0
0000007FF0
0000007FF0
020000FFE0
030001FFE0
07C003FFE0
0FF80FFFC0
0FFFFFFFC0
1FFFFFFF80
3FFFFFFF00
1FFFFFFF00
0FFFFFFE00
07FFFFF800
01FFFFF000
007FFFC000
000FFC0000
ENDCHAR
STARTCHAR Gdotaccent
ENCODING 288
SWIDTH 681 0
DWIDTH 51 0
BBX 44 67 3 -1
BITMAP
00000F800000
00003FE00000
00007FE00000
00007FF00000
00007FF00000
00007FF00000
00007FE00000
00003FE00000
00000F800000
000000000000
000000000000
000000000000
00003FF80000
0003FFFF0000
000FFFFFE000
003FFFFFF000
007FFFFFFC00
00FFFFFFFE00
01FFFFFFFF00
03FFFFFFFF00
07FFFFFFFF80
0FFFF01FFFC0
0FFF8007FFC0
1FFF0003FFC0
1FFE0001FFE0
3FFC0000FFE0
3FFC0000FFE0
3FF800007FF0
7FF800007FF0
7FF800007FF0
7FF000000000
7FF000000000
7FF000000000
7FF000000000
FFF000000000
FFF000000000
FFF000000000
FFF000000000
FFF001FFFFF0
FFF001FFFFF0
FFF001FFFFF0
FFF001FFFFF0
FFF001FFFFF0
FFF001FFFFF0
7FF001FFFFF0
7FF001FFFFF0
7FF001FFFFF0
7FF000007FF0
7FF000007FF0
7FF800007FF0
3FF800007FF0
3FF800007FF0
3FFC00007FF0
1FFE00007FF0
1FFE00007FF0
1FFF00007FF0
0FFFC000FFF0
07FFF007FFF0
07FFFFFFFFF0
03FFFFFFFFF0
01FFFFFFFFE0
00FFFFFFFFC0
007FFFFFFF80
001FFFFFFE00
000FFFFFF800
0001FFFFC000
00003FFC0000
ENDCHAR
STARTCHAR gdotaccent
ENCODING 289
SWIDTH 570 0
DWIDTH 43 0
BBX 36 71 3 -16
BITMAP
0001F00000
0007F80000
000FFC0000
000FFE0000
000FFE0000
000FFE0000
000FFC0000
0007F80000
0001F00000
0000000000
0000000000
0000000000
0000000000
0000000000
0000000000
000FF03FF0
007FFE3FF0
01FFFF3FF0
03FFFFFFF0
07FFFFFFF0
0FFFFFFFF0
1FFFFFFFF0
1FFFFFFFF0
3FFFFFFFF0
3FFF03FFF0
7FFC01FFF0
7FF800FFF0
7FF0007FF0
FFE0007FF0
FFE0007FF0
FFE0007FF0
FFE0007FF0
FFC0007FF0
FFC0007FF0
FFC0007FF0
FFC0007FF0
FFC0007FF0
FFC0007FF0
FFC0007FF0
FFE0007FF0
FFE0007FF0
FFE0007FF0
FFE0007FF0
7FF0007FF0
7FF800FFF0
7FFC01FFF0
3FFE03FFF0
3FFFFFFFF0
1FFFFFFFF0
1FFFFFFFF0
0FFFFFFFF0
07FFFFFFF0
03FFFFFFF0
01FFFE7FF0
007FFC7FF0
000FE07FF0
0000007FF0
0000007FF0
020000FFE0
030001FFE0
07C003FFE0
0FF80FFFC0
0FFFFFFFC0
1FFFFFFF80
3FFFFFFF00
1FFFFFFF00
0FFFFFFE00
07FFFFF800
01FFFFF000
007FFFC000
000FFC0000
ENDCHAR
STARTCHAR uni0122
ENCODING 290
SWIDTH 681 0
DWIDTH 51 0
BBX 44 74 3 -20
BITMAP
00003FF80000
0003FFFF0000
000FFFFFE000
003FFFFFF000
007FFFFFFC00
00FFFFFFFE00
01FFFFFFFF00
03FFFFFFFF00
07FFFFFFFF80
0FFFF01FFFC0
0FFF8007FFC0
1FFF0003FFC0
1FFE0001FFE0
3FFC0000FFE0
3FFC0000FFE0
3FF800007FF0
7FF800007FF0
7FF800007FF0
7FF000000000
7FF000000000
7FF000000000
7FF000000000
FFF000000000
FFF000000000
FFF000000000
FFF000000000
FFF001FFFFF0
FFF001FFFFF0
FFF001FFFFF0
FFF001FFFFF0
FFF001FFFFF0
FFF001FFFFF0
7FF001FFFFF0
7FF001FFFFF0
7FF001FFFFF0
7FF000007FF0
7FF000007FF0
7FF800007FF0
3FF800007FF0
3FF800007FF0
3FFC00007FF0
1FFE00007FF0
1FFE00007FF0
1FFF00007FF0
0FFFC000FFF0
07FFF007FFF0
07FFFFFFFFF0
03FFFFFFFFF0
01FFFFFFFFE0
00FFFFFFFFC0
007FFFFFFF80
001FFFFFFE00
000FFFFFF800
0001FFFFC000
00003FFC0000
000000000000
000000000000
000000000000
00000FF00000
00000FF00000
00000FF00000
00000FF00000
00000FE00000
00000FE00000
00000FE00000
00001FE00000
00001FE00000
00001FC00000
00003FC00000
00003F800000
00007F800000
00003F000000
00000F000000
000006000000
ENDCHAR
STARTCHAR uni0123
ENCODING 291
SWIDTH 570 0
DWIDTH 43 0
BBX 36 79 3 -16
BITMAP
0000200000
0000780000
0000FE0000
0001FF0000
0001FE0000
0003FE0000
0003FC0000
0003FC0000
0007FC0000
0007F80000
0007F80000
0007F80000
0007F80000
0007F80000
0007F80000
0007F80000
0007F80000
0000000000
0000000000
0000000000
0000000000
0000000000
0000000000
000FF03FF0
007FFE3FF0
01FFFF3FF0
03FFFFFFF0
07FFFFFFF0
0FFFFFFFF0
1FFFFFFFF0
1FFFFFFFF0
3FFFFFFFF0
3FFF03FFF0
7FFC01FFF0
7FF800FFF0
7FF0007FF0
FFE0007FF0
FFE0007FF0
FFE0007FF0
FFE0007FF0
FFC0007FF0
FFC0007FF0
FFC0007FF0
FFC0007FF0
FFC0007FF0
FFC0007FF0
FFC0007FF0
FFE0007FF0
FFE0007FF0
FFE0007FF0
FFE0007FF0
7FF0007FF0
7FF800FFF0
7FFC01FFF0
3FFE03FFF0
3FFFFFFFF0
1FFFFFFFF0
1FFFFFFFF0
0FFFFFFFF0
07FFFFFFF0
03FFFFFFF0
01FFFE7FF0
007FFC7FF0
000FE07FF0
0000007FF0
0000007FF0
020000FFE0
030001FFE0
07C003FFE0
0FF80FFFC0
0FFFFFFFC0
1FFFFFFF80
3FFFFFFF00
1FFFFFFF00
0FFFFFFE00
07FFFFF800
01FFFFF000
007FFFC000
000FFC0000
ENDCHAR
STARTCHAR Hcircumflex
ENCODING 292
SWIDTH 706 0
DWIDTH 53 0
BBX 43 68 5 0
BITMAP
00003F800000
00007FC00000
0000FFE00000
0001FFF00000
0007FFF80000
000FFFFE0000
001FF3FF0000
003FE1FF8000
007FC0FFC000
00FF803FE000
00FF001FF000
000000000000
000000000000
000000000000
000000000000
FFE00000FFE0
FFE00000FFE0
FFE00000FFE0
FFE00000FFE0
FFE00000FFE0
FFE00000FFE0
FFE00000FFE0
FFE00000FFE0
FFE00000FFE0
FFE00000FFE0
FFE00000FFE0
FFE00000FFE0
FFE00000FFE0
FFE00000FFE0
FFE00000FFE0
FFE00000FFE0
FFE00000FFE0
FFE00000FFE0
FFE00000FFE0
FFE00000FFE0
FFE00000FFE0
FFFFFFFFFFE0
FFFFFFFFFFE0
FFFFFFFFFFE0
FFFFFFFFFFE0
FFFFFFFFFFE0
FFFFFFFFFFE0
FFFFFFFFFFE0
FFFFFFFFFFE0
FFFFFFFFFFE0
FFE00000FFE0
FFE00000FFE0
FFE00000FFE0
FFE00000FFE0
FFE00000FFE0
FFE00000FFE0
FFE00000FFE0
FFE00000FFE0
FFE00000FFE0
FFE00000FFE0
FFE00000FFE0
FFE00000FFE0
FFE00000FFE0
FFE00000FFE0
FFE00000FFE0
FFE00000FFE0
FFE00000FFE0
FFE00000FFE0
FFE00000FFE0
FFE00000FFE0
FFE00000FFE0
FFE00000FFE0
FFE00000FFE0
ENDCHAR
STARTCHAR hcircumflex
ENCODING 293
SWIDTH 559 0
DWIDTH 42 0
BBX 34 71 4 0
BITMAP
000FE00000
003FF00000
007FF80000
00FFFC0000
01FFFE0000
03FFFF0000
07FCFF8000
0FF87FC000
1FF03FF000
3FE01FF800
7FC00FF800
0000000000
0000000000
0000000000
0000000000
FFC0000000
FFC0000000
FFC0000000
FFC0000000
FFC0000000
FFC0000000
FFC0000000
FFC0000000
FFC0000000
FFC0000000
FFC0000000
FFC0000000
FFC0000000
FFC0000000
FFC0000000
FFC0000000
FFC07F8000
FFC1FFF000
FFC7FFF800
FFCFFFFC00
FFDFFFFE00
FFFFFFFF00
FFFFFFFF00
FFFFFFFF80
FFFFFFFF80
FFFC0FFF80
FFF003FFC0
FFE001FFC0
FFC001FFC0
FFC001FFC0
FFC001FFC0
FFC001FFC0
FFC001FFC0
FFC001FFC0
FFC001FFC0
FFC001FFC0
FFC001FFC0
FFC001FFC0
FFC001FFC0
FFC001FFC0
FFC001FFC0
FFC001FFC0
FFC001FFC0
FFC001FFC0
FFC001FFC0
FFC001FFC0
FFC001FFC0
FFC001FFC0
FFC001FFC0
FFC001FFC0
FFC001FFC0
FFC001FFC0
FFC001FFC0
FFC001FFC0
FFC001FFC0
FFC001FFC0
ENDCHAR
STARTCHAR Hbar
ENCODING 294
SWIDTH 719 0
DWIDTH 54 0
BBX 52 53 1 0
BITMAP
0FFE000007FF00
0FFE000007FF00
0FFE000007FF00
0FFE000007FF00
0FFE000007FF00
0FFE000007FF00
0FFE000007FF00
0FFE000007FF00
FFFFFFFFFFFFF0
FFFFFFFFFFFFF0
FFFFFFFFFFFFF0
FFFFFFFFFFFFF0
FFFFFFFFFFFFF0
FFFFFFFFFFFFF0
0FFE000007FF00
0FFE000007FF00
0FFE000007FF00
0FFE000007FF00
0FFE000007FF00
0FFE000007FF00
0FFE000007FF00
0FFFFFFFFFFF00
0FFFFFFFFFFF00
0FFFFFFFFFFF00
0FFFFFFFFFFF00
0FFFFFFFFFFF00
0FFFFFFFFFFF00
0FFFFFFFFFFF00
0FFFFFFFFFFF00
0FFFFFFFFFFF00
0FFE000007FF00
0FFE000007FF00
0FFE000007FF00
0FFE000007FF00
0FFE000007FF00
0FFE000007FF00
0FFE000007FF00
0FFE000007FF00
0FFE000007FF00
0FFE000007FF00
0FFE000007FF00
0FFE000007FF00
0FFE000007FF00
0FFE000007FF00
0FFE000007FF00
0FFE000007FF00
0FFE000007FF00
0FFE000007FF00
0FFE000007FF00
0FFE000007FF00
0FFE000007FF00
0FFE000007FF00
0FFE000007FF00
ENDCHAR
STARTCHAR hbar
ENCODING 295
SWIDTH 574 0
DWIDTH 43 0
BBX 41 56 -2 0
BITMAP
01FF80000000
01FF80000000
01FF80000000
01FF80000000
01FF80000000
FFFFFFC00000
FFFFFFC00000
FFFFFFC00000
FFFFFFC00000
FFFFFFC00000
FFFFFFC00000
01FF80000000
01FF80000000
01FF80000000
01FF80000000
01FF80000000
01FF80FF0000
01FF83FFE000
01FF8FFFF000
01FF9FFFFC00
01FFBFFFFC00
01FFFFFFFE00
01FFFFFFFF00
01FFFFFFFF00
01FFFFFFFF00
01FFF81FFF00
01FFE007FF80
01FFC003FF80
01FF8003FF80
01FF8003FF80
01FF8003FF80
01FF8001FF80
01FF8001FF80
01FF8001FF80
01FF8001FF80
01FF8001FF80
01FF8001FF80
01FF8001FF80
01FF8001FF80
01FF8001FF80
01FF8001FF80
01FF8001FF80
01FF8001FF80
01FF8001FF80
01FF8001FF80
01FF8001FF80
01FF8001FF80
01FF8001FF80
01FF8001FF80
01FF8001FF80
01FF8001FF80
01FF8001FF80
01FF8001FF80
01FF8001FF80
01FF8001FF80
01FF8001FF80
ENDCHAR
STARTCHAR Itilde
ENCODING 296
SWIDTH 291 0
DWIDTH 22 0
BBX 28 66 -3 0
BITMAP
03E003F0
0FFC07F0
1FFF0FE0
3FFFFFE0
7FFFFFE0
7FFFFFC0
FF0FFF80
FE03FF00
FC00FC00
00000000
00000000
00000000
00000000
00FFE000
00FFE000
00FFE000
00FFE000
00FFE000
00FFE000
00FFE000
00FFE000
00FFE000
00FFE000
00FFE000
00FFE000
00FFE000
00FFE000
00FFE000
00FFE000
00FFE000
00FFE000
00FFE000
00FFE000
00FFE000
00FFE000
00FFE000
00FFE000
00FFE000
00FFE000
00FFE000
00FFE000
00FFE000
00FFE000
00FFE000
00FFE000
00FFE000
00FFE000
00FFE000
00FFE000
00FFE000
00FFE000
00FFE000
00FFE000
00FFE000
00FFE000
00FFE000
00FFE000
00FFE000
00FFE000
00FFE000
00FFE000
00FFE000
00FFE000
00FFE000
00FFE000
00FFE000
ENDCHAR
STARTCHAR itilde
ENCODING 297
SWIDTH 273 0
DWIDTH 21 0
BBX 28 54 -4 0
BITMAP
03E003F0
0FFC07F0
1FFF07F0
3FFFFFE0
7FFFFFE0
7FFFFFC0
7F0FFFC0
7E03FF00
FE007C00
00000000
00000000
00000000
00000000
00000000
007FE000
007FE000
007FE000
007FE000
007FE000
007FE000
007FE000
007FE000
007FE000
007FE000
007FE000
007FE000
007FE000
007FE000
007FE000
007FE000
007FE000
007FE000
007FE000
007FE000
007FE000
007FE000
007FE000
007FE000
007FE000
007FE000
007FE000
007FE000
007FE000
007FE000
007FE000
007FE000
007FE000
007FE000
007FE000
007FE000
007FE000
007FE000
007FE000
007FE000
ENDCHAR
STARTCHAR Imacron
ENCODING 298
SWIDTH 291 0
DWIDTH 22 0
BBX 25 64 -1 0
BITMAP
FFFFFF80
FFFFFF80
FFFFFF80
FFFFFF80
FFFFFF80
FFFFFF80
00000000
00000000
00000000
00000000
00000000
03FF8000
03FF8000
03FF8000
03FF8000
03FF8000
03FF8000
03FF8000
03FF8000
03FF8000
03FF8000
03FF8000
03FF8000
03FF8000
03FF8000
03FF8000
03FF8000
03FF8000
03FF8000
03FF8000
03FF8000
03FF8000
03FF8000
03FF8000
03FF8000
03FF8000
03FF8000
03FF8000
03FF8000
03FF8000
03FF8000
03FF8000
03FF8000
03FF8000
03FF8000
03FF8000
03FF8000
03FF8000
03FF8000
03FF8000
03FF8000
03FF8000
03FF8000
03FF8000
03FF8000
03FF8000
03FF8000
03FF8000
03FF8000
03FF8000
03FF8000
03FF8000
03FF8000
03FF8000
ENDCHAR
STARTCHAR imacron
ENCODING 299
SWIDTH 273 0
DWIDTH 21 0
BBX 25 52 -2 0
BITMAP
FFFFFF80
FFFFFF80
FFFFFF80
FFFFFF80
FFFFFF80
FFFFFF80
00000000
00000000
00000000
00000000
00000000
00000000
01FF8000
01FF8000
01FF8000
01FF8000
01FF8000
01FF8000
01FF8000
01FF8000
01FF8000
01FF8000
01FF8000
01FF8000
01FF8000
01FF8000
01FF8000
01FF8000
01FF8000
01FF8000
01FF8000
01FF8000
01FF8000
01FF8000
01FF8000
01FF8000
01FF8000
01FF8000
01FF8000
01FF8000
01FF8000
01FF8000
01FF8000
01FF8000
01FF8000
01FF8000
01FF8000
01FF8000
01FF8000
01FF8000
01FF8000
01FF8000
ENDCHAR
STARTCHAR Ibreve
ENCODING 300
SWIDTH 291 0
DWIDTH 22 0
BBX 26 67 -2 0
BITMAP
FF003FC0
FF003F80
FF007F80
7F807F80
7FC1FF80
3FFFFF00
3FFFFE00
1FFFFE00
0FFFF800
03FFF000
007F8000
00000000
00000000
00000000
01FFC000
01FFC000
01FFC000
01FFC000
01FFC000
01FFC000
01FFC000
01FFC000
01FFC000
01FFC000
01FFC000
01FFC000
01FFC000
01FFC000
01FFC000
01FFC000
01FFC000
01FFC000
01FFC000
01FFC000
01FFC000
01FFC000
01FFC000
01FFC000
01FFC000
01FFC000
01FFC000
01FFC000
01FFC000
01FFC000
01FFC000
01FFC000
01FFC000
01FFC000
01FFC000
01FFC000
01FFC000
01FFC000
01FFC000
01FFC000
01FFC000
01FFC000
01FFC000
01FFC000
01FFC000
01FFC000
01FFC000
01FFC000
01FFC000
01FFC000
01FFC000
01FFC000
01FFC000
ENDCHAR
STARTCHAR ibreve
ENCODING 301
SWIDTH 273 0
DWIDTH 21 0
BBX 25 55 -2 0
BITMAP
FE007F80
FE007F80
FF007F80
FF00FF00
FFC1FF00
7FFFFE00
3FFFFE00
3FFFFC00
0FFFF800
07FFE000
00FF0000
00000000
00000000
00000000
00000000
01FF8000
01FF8000
01FF8000
01FF8000
01FF8000
01FF8000
01FF8000
01FF8000
01FF8000
01FF8000
01FF8000
01FF8000
01FF8000
01FF8000
01FF8000
01FF8000
01FF8000
01FF8000
01FF8000
01FF8000
01FF8000
01FF8000
01FF8000
01FF8000
01FF8000
01FF8000
01FF8000
01FF8000
01FF8000
01FF8000
01FF8000
01FF8000
01FF8000
01FF8000
01FF8000
01FF8000
01FF8000
01FF8000
01FF8000
01FF8000
ENDCHAR
STARTCHAR Iogonek
ENCODING 302
SWIDTH 291 0
DWIDTH 22 0
BBX 15 68 1 -15
BITMAP
0FFE
0FFE
0FFE
0FFE
0FFE
0FFE
0FFE
0FFE
0FFE
0FFE
0FFE
0FFE
0FFE
0FFE
0FFE
0FFE
0FFE
0FFE
0FFE
0FFE
0FFE
0FFE
0FFE
0FFE
0FFE
0FFE
0FFE
0FFE
0FFE
0FFE
0FFE
0FFE
0FFE
0FFE
0FFE
0FFE
0FFE
0FFE
0FFE
0FFE
0FFE
0FFE
0FFE
0FFE
0FFE
0FFE
0FFE
0FFE
0FFE
0FFE
0FFE
0FFE
0FFE
1FE0
3FC0
7F80
7F00
FF00
FF00
FF00
FF88
FFF8
FFFC
FFFC
7FFC
3FFC
1FFC
07F0
ENDCHAR
STARTCHAR iogonek
ENCODING 303
SWIDTH 265 0
DWIDTH 20 0
BBX 16 71 0 -15
BITMAP
01F8
03FC
07FE
0FFF
0FFF
0FFF
0FFF
0FFF
07FE
03FC
01F8
0000
0000
0000
0000
0000
07FE
07FE
07FE
07FE
07FE
07FE
07FE
07FE
07FE
07FE
07FE
07FE
07FE
07FE
07FE
07FE
07FE
07FE
07FE
07FE
07FE
07FE
07FE
07FE
07FE
07FE
07FE
07FE
07FE
07FE
07FE
07FE
07FE
07FE
07FE
07FE
07FE
07FE
07FE
0FFE
1FF0
3FC0
7F80
7F80
FF00
FF00
FF00
FF88
FFFC
FFFC
7FFC
7FFC
3FFC
1FFC
07F0
ENDCHAR
STARTCHAR Idotaccent
ENCODING 304
SWIDTH 291 0
DWIDTH 22 0
BBX 11 66 5 0
BITMAP
1F80
3FC0
7FE0
7FE0
FFE0
7FE0
7FE0
3FC0
1F80
0000
0000
0000
0000
FFE0
FFE0
FFE0
FFE0
FFE0
FFE0
FFE0
FFE0
FFE0
FFE0
FFE0
FFE0
FFE0
FFE0
FFE0
FFE0
FFE0
FFE0
FFE0
FFE0
FFE0
FFE0
FFE0
FFE0
FFE0
FFE0
FFE0
FFE0
FFE0
FFE0
FFE0
FFE0
FFE0
FFE0
FFE0
FFE0
FFE0
FFE0
FFE0
FFE0
FFE0
FFE0
FFE0
FFE0
FFE0
FFE0
FFE0
FFE0
FFE0
FFE0
FFE0
FFE0
FFE0
ENDCHAR
STARTCHAR dotlessi
ENCODING 305
SWIDTH 273 0
DWIDTH 21 0
BBX 10 40 5 0
BITMAP
FFC0
FFC0
FFC0
FFC0
FFC0
FFC0
FFC0
FFC0
FFC0
FFC0
FFC0
FFC0
FFC0
FFC0
FFC0
FFC0
FFC0
FFC0
FFC0
FFC0
FFC0
FFC0
FFC0
FFC0
FFC0
FFC0
FFC0
FFC0
FFC0
FFC0
FFC0
FFC0
FFC0
FFC0
FFC0
FFC0
FFC0
FFC0
FFC0
FFC0
ENDCHAR
STARTCHAR IJ
ENCODING 306
SWIDTH 850 0
DWIDTH 64 0
BBX 54 54 5 -1
BITMAP
FFE00000001FFC
FFE00000001FFC
FFE00000001FFC
FFE00000001FFC
FFE00000001FFC
FFE00000001FFC
FFE00000001FFC
FFE00000001FFC
FFE00000001FFC
FFE00000001FFC
FFE00000001FFC
FFE00000001FFC
FFE00000001FFC
FFE00000001FFC
FFE00000001FFC
FFE00000001FFC
FFE00000001FFC
FFE00000001FFC
FFE00000001FFC
FFE00000001FFC
FFE00000001FFC
FFE00000001FFC
FFE00000001FFC
FFE00000001FFC
FFE00000001FFC
FFE00000001FFC
FFE00000001FFC
FFE00000001FFC
FFE00000001FFC
FFE00000001FFC
FFE00000001FFC
FFE00000001FFC
FFE00000001FFC
FFE00000001FFC
FFE00000001FFC
FFE00000001FFC
FFE00000001FFC
FFE03FF8001FFC
FFE03FF8001FFC
FFE03FFC001FFC
FFE01FFC001FFC
FFE01FFC003FFC
FFE01FFE003FF8
FFE01FFE007FF8
FFE00FFF81FFF8
FFE00FFFFFFFF0
FFE007FFFFFFF0
FFE007FFFFFFE0
FFE003FFFFFFC0
FFE001FFFFFF80
FFE000FFFFFF00
FFE0003FFFFC00
FFE0000FFFF000
00000001FF8000
ENDCHAR
STARTCHAR ij
ENCODING 307
SWIDTH 524 0
DWIDTH 39 0
BBX 31 72 4 -16
BITMAP
1F8001F0
3FC007FC
7FE00FFE
FFF00FFE
FFF00FFE
FFF01FFE
FFF00FFE
FFF00FFE
7FE00FFE
3FC007FC
1F8001F0
00000000
00000000
00000000
00000000
00000000
7FE00FFE
7FE00FFE
7FE00FFE
7FE00FFE
7FE00FFE
7FE00FFE
7FE00FFE
7FE00FFE
7FE00FFE
7FE00FFE
7FE00FFE
7FE00FFE
7FE00FFE
7FE00FFE
7FE00FFE
7FE00FFE
7FE00FFE
7FE00FFE
7FE00FFE
7FE00FFE
7FE00FFE
7FE00FFE
7FE00FFE
7FE00FFE
7FE00FFE
7FE00FFE
7FE00FFE
7FE00FFE
7FE00FFE
7FE00FFE
7FE00FFE
7FE00FFE
7FE00FFE
7FE00FFE
7FE00FFE
7FE00FFE
7FE00FFE
7FE00FFE
7FE00FFE
7FE00FFE
00000FFE
00000FFE
00000FFE
00000FFE
00000FFE
00001FFE
00003FFC
000FFFFC
000FFFFC
000FFFF8
000FFFF8
000FFFF0
000FFFE0
000FFFC0
000FFF80
0007FC00
ENDCHAR
STARTCHAR Jcircumflex
ENCODING 308
SWIDTH 558 0
DWIDTH 42 0
BBX 43 69 2 -1
BITMAP
0000003F8000
0000007FC000
000001FFE000
000003FFF000
000007FFF800
00000FFFFC00
00001FF3FE00
00003FE1FF80
00007FC0FFC0
0000FF807FE0
0001FF003FE0
000000000000
000000000000
000000000000
000000000000
000000FFE000
000000FFE000
000000FFE000
000000FFE000
000000FFE000
000000FFE000
000000FFE000
000000FFE000
000000FFE000
000000FFE000
000000FFE000
000000FFE000
000000FFE000
000000FFE000
000000FFE000
000000FFE000
000000FFE000
000000FFE000
000000FFE000
000000FFE000
000000FFE000
000000FFE000
000000FFE000
000000FFE000
000000FFE000
000000FFE000
000000FFE000
000000FFE000
000000FFE000
000000FFE000
000000FFE000
000000FFE000
000000FFE000
000000FFE000
000000FFE000
000000FFE000
000000FFE000
FFE000FFE000
FFE000FFE000
FFE000FFE000
FFE000FFE000
FFE001FFE000
FFF001FFC000
FFF803FFC000
7FFC0FFFC000
7FFFFFFF8000
3FFFFFFF8000
3FFFFFFF0000
1FFFFFFE0000
0FFFFFFC0000
07FFFFF80000
01FFFFE00000
007FFF800000
000FFC000000
ENDCHAR
STARTCHAR jcircumflex
ENCODING 309
SWIDTH 281 0
DWIDTH 21 0
BBX 28 72 -4 -16
BITMAP
003FC000
007FE000
00FFF000
01FFF800
03FFFC00
07FFFE00
0FF9FF00
1FF0FF80
3FE07FC0
7FC03FF0
FF801FF0
00000000
00000000
00000000
00000000
00000000
007FF000
007FF000
007FF000
007FF000
007FF000
007FF000
007FF000
007FF000
007FF000
007FF000
007FF000
007FF000
007FF000
007FF000
007FF000
007FF000
007FF000
007FF000
007FF000
007FF000
007FF000
007FF000
007FF000
007FF000
007FF000
007FF000
007FF000
007FF000
007FF000
007FF000
007FF000
007FF000
007FF000
007FF000
007FF000
007FF000
007FF000
007FF000
007FF000
007FF000
007FF000
007FF000
007FF000
007FF000
007FF000
00FFF000
01FFE000
7FFFE000
7FFFE000
7FFFC000
7FFFC000
7FFF8000
7FFF0000
7FFE0000
7FF80000
3FC00000
ENDCHAR
STARTCHAR uni0136
ENCODING 310
SWIDTH 634 0
DWIDTH 48 0
BBX 43 70 5 -17
BITMAP
FFE00007FFE0
FFE0000FFFC0
FFE0001FFF80
FFE0001FFF00
FFE0003FFE00
FFE0007FFC00
FFE000FFFC00
FFE000FFF800
FFE001FFF000
FFE003FFE000
FFE007FFC000
FFE00FFFC000
FFE00FFF8000
FFE01FFF0000
FFE03FFE0000
FFE07FFC0000
FFE0FFFC0000
FFE0FFF80000
FFE1FFF00000
FFE3FFE00000
FFE3FFC00000
FFE7FFC00000
FFEFFF800000
FFFFFF000000
FFFFFF800000
FFFFFF800000
FFFFFFC00000
FFFFFFE00000
FFFFFFE00000
FFFFFFF00000
FFFFFFF80000
FFFFFFF80000
FFFF7FFC0000
FFFE3FFE0000
FFFC3FFE0000
FFF81FFF0000
FFF00FFF8000
FFE00FFF8000
FFE007FFC000
FFE003FFC000
FFE003FFE000
FFE001FFF000
FFE000FFF000
FFE000FFF800
FFE0007FFC00
FFE0003FFC00
FFE0003FFE00
FFE0001FFF00
FFE0001FFF00
FFE0000FFF80
FFE00007FFC0
FFE00007FFC0
FFE00003FFE0
000000000000
0001FE000000
0001FE000000
0001FE000000
0001FE000000
0001FE000000
0001FE000000
0001FC000000
0001FC000000
0003FC000000
0003F8000000
0003F8000000
0007F8000000
0007F0000000
000FE0000000
0001E0000000
000040000000
ENDCHAR
STARTCHAR uni0137
ENCODING 311
SWIDTH 534 0
DWIDTH 40 0
BBX 37 74 4 -18
BITMAP
FFE0000000
FFE0000000
FFE0000000
FFE0000000
FFE0000000
FFE0000000
FFE0000000
FFE0000000
FFE0000000
FFE0000000
FFE0000000
FFE0000000
FFE0000000
FFE0000000
FFE0000000
FFE0000000
FFE003FFF0
FFE003FFC0
FFE007FF80
FFE00FFF80
FFE01FFF00
FFE03FFE00
FFE07FFC00
FFE07FF800
FFE0FFF000
FFE1FFE000
FFE3FFE000
FFE7FFC000
FFEFFF8000
FFEFFF0000
FFFFFE0000
FFFFFC0000
FFFFF80000
FFFFFC0000
FFFFFC0000
FFFFFE0000
FFFFFF0000
FFFFFF0000
FFFFFF8000
FFFFFFC000
FFFDFFC000
FFF9FFE000
FFF0FFF000
FFE07FF000
FFE07FF800
FFE03FFC00
FFE01FFC00
FFE01FFE00
FFE00FFF00
FFE007FF00
FFE007FF80
FFE003FFC0
FFE003FFC0
FFE001FFE0
FFE000FFF0
FFE000FFF0
0000000008
0000000000
0007F80000
0007F80000
0007F80000
0007F80000
0007F00000
0007F00000
0007F00000
000FF00000
000FF00000
000FE00000
001FE00000
001FC00000
003FC00000
001F800000
0007800000
0003000000
ENDCHAR
STARTCHAR kgreenlandic
ENCODING 312
SWIDTH 589 0
DWIDTH 44 0
BBX 38 40 5 0
BITMAP
FFC001FFF8
FFC001FFF0
FFC003FFE0
FFC007FFE0
FFC007FFC0
FFC00FFF80
FFC01FFF80
FFC01FFF00
FFC03FFE00
FFC07FFC00
FFC07FFC00
FFC0FFF800
FFC1FFF000
FFC1FFE000
FFC3FFE000
FFFFFFC000
FFFFFF8000
FFFFFF8000
FFFFFF0000
FFFFFF0000
FFFFFF0000
FFFFFF8000
FFFFFFC000
FFFFFFC000
FFFFFFE000
FFC1FFF000
FFC0FFF000
FFC0FFF800
FFC07FFC00
FFC03FFE00
FFC03FFE00
FFC01FFF00
FFC01FFF80
FFC00FFF80
FFC007FFC0
FFC007FFE0
FFC003FFE0
FFC001FFF0
FFC001FFF8
FFC000FFFC
ENDCHAR
STARTCHAR Lacute
ENCODING 313
SWIDTH 541 0
DWIDTH 41 0
BBX 34 67 5 0
BITMAP
01FFE00000
01FFC00000
03FF800000
07FF000000
07FE000000
0FFC000000
1FF8000000
1FF0000000
3FE0000000
7FC0000000
7F80000000
8000000000
0000000000
0000000000
FFE0000000
FFE0000000
FFE0000000
FFE0000000
FFE0000000
FFE0000000
FFE0000000
FFE0000000
FFE0000000
FFE0000000
FFE0000000
FFE0000000
FFE0000000
FFE0000000
FFE0000000
FFE0000000
FFE0000000
FFE0000000
FFE0000000
FFE0000000
FFE0000000
FFE0000000
FFE0000000
FFE0000000
FFE0000000
FFE0000000
FFE0000000
FFE0000000
FFE0000000
FFE0000000
FFE0000000
FFE0000000
FFE0000000
FFE0000000
FFE0000000
FFE0000000
FFE0000000
FFE0000000
FFE0000000
FFE0000000
FFE0000000
FFE0000000
FFE0000000
FFE0000000
FFFFFFFFC0
FFFFFFFFC0
FFFFFFFFC0
FFFFFFFFC0
FFFFFFFFC0
FFFFFFFFC0
FFFFFFFFC0
FFFFFFFFC0
FFFFFFFFC0
ENDCHAR
STARTCHAR lacute
ENCODING 314
SWIDTH 265 0
DWIDTH 20 0
BBX 19 70 5 0
BITMAP
01FFE0
03FF80
07FF00
07FE00
0FFC00
1FFC00
1FF800
3FF000
7FE000
7FC000
FF8000
000000
000000
000000
FFC000
FFC000
FFC000
FFC000
FFC000
FFC000
FFC000
FFC000
FFC000
FFC000
FFC000
FFC000
FFC000
FFC000
FFC000
FFC000
FFC000
FFC000
FFC000
FFC000
FFC000
FFC000
FFC000
FFC000
FFC000
FFC000
FFC000
FFC000
FFC000
FFC000
FFC000
FFC000
FFC000
FFC000
FFC000
FFC000
FFC000
FFC000
FFC000
FFC000
FFC000
FFC000
FFC000
FFC000
FFC000
FFC000
FFC000
FFC000
FFC000
FFC000
FFC000
FFC000
FFC000
FFC000
FFC000
FFC000
ENDCHAR
STARTCHAR uni013B
ENCODING 315
SWIDTH 541 0
DWIDTH 41 0
BBX 34 72 5 -19
BITMAP
FFE0000000
FFE0000000
FFE0000000
FFE0000000
FFE0000000
FFE0000000
FFE0000000
FFE0000000
FFE0000000
FFE0000000
FFE0000000
FFE0000000
FFE0000000
FFE0000000
FFE0000000
FFE0000000
FFE0000000
FFE0000000
FFE0000000
FFE0000000
FFE0000000
FFE0000000
FFE0000000
FFE0000000
FFE0000000
FFE0000000
FFE0000000
FFE0000000
FFE0000000
FFE0000000
FFE0000000
FFE0000000
FFE0000000
FFE0000000
FFE0000000
FFE0000000
FFE0000000
FFE0000000
FFE0000000
FFE0000000
FFE0000000
FFE0000000
FFE0000000
FFE0000000
FFFFFFFFC0
FFFFFFFFC0
FFFFFFFFC0
FFFFFFFFC0
FFFFFFFFC0
FFFFFFFFC0
FFFFFFFFC0
FFFFFFFFC0
FFFFFFFFC0
0000000000
0000000000
0000000000
0007F80000
0007F80000
0007F80000
0007F80000
0007F80000
0007F80000
0007F80000
0007F00000
000FF00000
000FF00000
000FE00000
001FE00000
001FC00000
003FC00000
0007800000
0001000000
ENDCHAR
STARTCHAR uni013C
ENCODING 316
SWIDTH 265 0
DWIDTH 20 0
BBX 12 75 3 -19
BITMAP
3FF0
3FF0
3FF0
3FF0
3FF0
3FF0
3FF0
3FF0
3FF0
3FF0
3FF0
3FF0
3FF0
3FF0
3FF0
3FF0
3FF0
3FF0
3FF0
3FF0
3FF0
3FF0
3FF0
3FF0
3FF0
3FF0
3FF0
3FF0
3FF0
3FF0
3FF0
3FF0
3FF0
3FF0
3FF0
3FF0
3FF0
3FF0
3FF0
3FF0
3FF0
3FF0
3FF0
3FF0
3FF0
3FF0
3FF0
3FF0
3FF0
3FF0
3FF0
3FF0
3FF0
3FF0
3FF0
3FF0
0000
0000
0000
1FE0
1FE0
1FE0
1FE0
1FE0
1FE0
1FC0
1FC0
3FC0
3FC0
3F80
7F80
7F00
FF00
1E00
0400
ENDCHAR
STARTCHAR Lcaron
ENCODING 317
SWIDTH 541 0
DWIDTH 41 0
BBX 34 53 5 0
BITMAP
FFE00FF000
FFE00FF000
FFE00FF000
FFE00FF000
FFE00FF000
FFE00FF000
FFE00FF000
FFE00FF000
FFE00FE000
FFE01FE000
FFE01FC000
FFE01FC000
FFE03F8000
FFE01F8000
FFE00F0000
FFE0020000
FFE0000000
FFE0000000
FFE0000000
FFE0000000
FFE0000000
FFE0000000
FFE0000000
FFE0000000
FFE0000000
FFE0000000
FFE0000000
FFE0000000
FFE0000000
FFE0000000
FFE0000000
FFE0000000
FFE0000000
FFE0000000
FFE0000000
FFE0000000
FFE0000000
FFE0000000
FFE0000000
FFE0000000
FFE0000000
FFE0000000
FFE0000000
FFE0000000
FFFFFFFFC0
FFFFFFFFC0
FFFFFFFFC0
FFFFFFFFC0
FFFFFFFFC0
FFFFFFFFC0
FFFFFFFFC0
FFFFFFFFC0
FFFFFFFFC0
ENDCHAR
STARTCHAR lcaron
ENCODING 318
SWIDTH 338 0
DWIDTH 25 0
BBX 24 56 5 0
BITMAP
FFC0FF
FFC0FF
FFC0FF
FFC0FF
FFC0FF
FFC0FE
FFC0FE
FFC1FE
FFC1FE
FFC1FC
FFC3FC
FFC3F8
FFC7F8
FFC3F0
FFC0F0
FFC060
FFC000
FFC000
FFC000
FFC000
FFC000
FFC000
FFC000
FFC000
FFC000
FFC000
FFC000
FFC000
FFC000
FFC000
FFC000
FFC000
FFC000
FFC000
FFC000
FFC000
FFC000
FFC000
FFC000
FFC000
FFC000
FFC000
FFC000
FFC000
FFC000
FFC000
FFC000
FFC000
FFC000
FFC000
FFC000
FFC000
FFC000
FFC000
FFC000
FFC000
ENDCHAR
STARTCHAR Ldot
ENCODING 319
SWIDTH 541 0
DWIDTH 41 0
BBX 34 53 5 0
BITMAP
FFE0000000
FFE0000000
FFE0000000
FFE0000000
FFE0000000
FFE0000000
FFE0000000
FFE0000000
FFE0000000
FFE0000000
FFE0000000
FFE0000000
FFE0000000
FFE0000000
FFE0000000
FFE0000000
FFE0000000
FFE0000000
FFE0000000
FFE01F8000
FFE03FC000
FFE07FE000
FFE07FE000
FFE07FF000
FFE07FE000
FFE07FE000
FFE03FC000
FFE01F8000
FFE0000000
FFE0000000
FFE0000000
FFE0000000
FFE0000000
FFE0000000
FFE0000000
FFE0000000
FFE0000000
FFE0000000
FFE0000000
FFE0000000
FFE0000000
FFE0000000
FFE0000000
FFE0000000
FFFFFFFFC0
FFFFFFFFC0
FFFFFFFFC0
FFFFFFFFC0
FFFFFFFFC0
FFFFFFFFC0
FFFFFFFFC0
FFFFFFFFC0
FFFFFFFFC0
ENDCHAR
STARTCHAR ldot
ENCODING 320
SWIDTH 372 0
DWIDTH 28 0
BBX 25 56 5 0
BITMAP
FFC00000
FFC00000
FFC00000
FFC00000
FFC00000
FFC00000
FFC00000
FFC00000
FFC00000
FFC00000
FFC00000
FFC00000
FFC00000
FFC00000
FFC00000
FFC00000
FFC00000
FFC00000
FFC00000
FFC00000
FFC00000
FFC00000
FFC00000
FFC00000
FFC07C00
FFC1FE00
FFC3FF00
FFC3FF80
FFC3FF80
FFC3FF80
FFC3FF00
FFC1FE00
FFC07C00
FFC00000
FFC00000
FFC00000
FFC00000
FFC00000
FFC00000
FFC00000
FFC00000
FFC00000
FFC00000
FFC00000
FFC00000
FFC00000
FFC00000
FFC00000
FFC00000
FFC00000
FFC00000
FFC00000
FFC00000
FFC00000
FFC00000
FFC00000
ENDCHAR
STARTCHAR Lslash
ENCODING 321
SWIDTH 557 0
DWIDTH 42 0
BBX 39 53 1 0
BITMAP
07FF000000
07FF000000
07FF000000
07FF000000
07FF000000
07FF000000
07FF000000
07FF000000
07FF000000
07FF000000
07FF000000
07FF000000
07FF000000
07FF000000
07FF000000
07FF000000
07FF000000
07FF000000
07FF030000
07FF1F0000
07FFFF0000
07FFFF0000
07FFFF0000
07FFFF0000
7FFFFC0000
FFFFE00000
FFFF000000
FFFF000000
FFFF000000
FFFF000000
87FF000000
07FF000000
07FF000000
07FF000000
07FF000000
07FF000000
07FF000000
07FF000000
07FF000000
07FF000000
07FF000000
07FF000000
07FF000000
07FF000000
07FFFFFFFE
07FFFFFFFE
07FFFFFFFE
07FFFFFFFE
07FFFFFFFE
07FFFFFFFE
07FFFFFFFE
07FFFFFFFE
07FFFFFFFE
ENDCHAR
STARTCHAR lslash
ENCODING 322
SWIDTH 305 0
DWIDTH 23 0
BBX 21 56 1 0
BITMAP
07FF00
07FF00
07FF00
07FF00
07FF00
07FF00
07FF00
07FF00
07FF00
07FF00
07FF00
07FF00
07FF00
07FF00
07FF00
07FF00
07FF00
07FF00
07FF00
07FF00
07FF00
07FF18
07FFF8
07FFF8
07FFF8
07FFF8
0FFFF8
7FFFE0
FFFF00
FFFF00
FFFF00
FFFF00
F7FF00
87FF00
07FF00
07FF00
07FF00
07FF00
07FF00
07FF00
07FF00
07FF00
07FF00
07FF00
07FF00
07FF00
07FF00
07FF00
07FF00
07FF00
07FF00
07FF00
07FF00
07FF00
07FF00
07FF00
ENDCHAR
STARTCHAR Nacute
ENCODING 323
SWIDTH 706 0
DWIDTH 53 0
BBX 43 67 5 0
BITMAP
000001FFE000
000001FFC000
000003FF8000
000007FF0000
000007FE0000
00000FFC0000
00001FF80000
00001FF00000
00003FE00000
00007FC00000
00007FC00000
000080000000
000000000000
000000000000
FFE00000FFE0
FFF00000FFE0
FFF00000FFE0
FFF80000FFE0
FFFC0000FFE0
FFFC0000FFE0
FFFE0000FFE0
FFFE0000FFE0
FFFF0000FFE0
FFFF8000FFE0
FFFF8000FFE0
FFFFC000FFE0
FFFFC000FFE0
FFFFE000FFE0
FFFFF000FFE0
FFFFF000FFE0
FFFFF800FFE0
FFFFFC00FFE0
FFFFFC00FFE0
FFEFFE00FFE0
FFEFFE00FFE0
FFE7FF00FFE0
FFE7FF80FFE0
FFE3FF80FFE0
FFE1FFC0FFE0
FFE1FFC0FFE0
FFE0FFE0FFE0
FFE07FF0FFE0
FFE07FF0FFE0
FFE03FF8FFE0
FFE03FF8FFE0
FFE01FFCFFE0
FFE00FFEFFE0
FFE00FFEFFE0
FFE007FFFFE0
FFE007FFFFE0
FFE003FFFFE0
FFE001FFFFE0
FFE001FFFFE0
FFE000FFFFE0
FFE000FFFFE0
FFE0007FFFE0
FFE0003FFFE0
FFE0003FFFE0
FFE0001FFFE0
FFE0000FFFE0
FFE0000FFFE0
FFE00007FFE0
FFE00007FFE0
FFE00003FFE0
FFE00001FFE0
FFE00001FFE0
FFE00000FFE0
ENDCHAR
STARTCHAR nacute
ENCODING 324
SWIDTH 560 0
DWIDTH 42 0
BBX 34 56 4 0
BITMAP
00001FFE00
00003FF800
00003FF000
00007FE000
0000FFE000
0000FFC000
0001FF8000
0003FF0000
0003FE0000
0007FC0000
000FF80000
0000000000
0000000000
0000000000
0000000000
0000000000
FFC07FC000
FFC3FFF000
FFC7FFFC00
FFDFFFFE00
FFFFFFFF00
FFFFFFFF00
FFFFFFFF80
FFFFFFFF80
FFFFFFFF80
FFFC0FFFC0
FFF003FFC0
FFE001FFC0
FFE001FFC0
FFC001FFC0
FFC001FFC0
FFC001FFC0
FFC001FFC0
FFC001FFC0
FFC001FFC0
FFC001FFC0
FFC001FFC0
FFC001FFC0
FFC001FFC0
FFC001FFC0
FFC001FFC0
FFC001FFC0
FFC001FFC0
FFC001FFC0
FFC001FFC0
FFC001FFC0
FFC001FFC0
FFC001FFC0
FFC001FFC0
FFC001FFC0
FFC001FFC0
FFC001FFC0
FFC001FFC0
FFC001FFC0
FFC001FFC0
FFC001FFC0
ENDCHAR
STARTCHAR uni0145
ENCODING 325
SWIDTH 706 0
DWIDTH 53 0
BBX 43 72 5 -19
BITMAP
FFE00000FFE0
FFF00000FFE0
FFF00000FFE0
FFF80000FFE0
FFFC0000FFE0
FFFC0000FFE0
FFFE0000FFE0
FFFE0000FFE0
FFFF0000FFE0
FFFF8000FFE0
FFFF8000FFE0
FFFFC000FFE0
FFFFC000FFE0
FFFFE000FFE0
FFFFF000FFE0
FFFFF000FFE0
FFFFF800FFE0
FFFFFC00FFE0
FFFFFC00FFE0
FFEFFE00FFE0
FFEFFE00FFE0
FFE7FF00FFE0
FFE7FF80FFE0
FFE3FF80FFE0
FFE1FFC0FFE0
FFE1FFC0FFE0
FFE0FFE0FFE0
FFE07FF0FFE0
FFE07FF0FFE0
FFE03FF8FFE0
FFE03FF8FFE0
FFE01FFCFFE0
FFE00FFEFFE0
FFE00FFEFFE0
FFE007FFFFE0
FFE007FFFFE0
FFE003FFFFE0
FFE001FFFFE0
FFE001FFFFE0
FFE000FFFFE0
FFE000FFFFE0
FFE0007FFFE0
FFE0003FFFE0
FFE0003FFFE0
FFE0001FFFE0
FFE0000FFFE0
FFE0000FFFE0
FFE00007FFE0
FFE00007FFE0
FFE00003FFE0
FFE00001FFE0
FFE00001FFE0
FFE00000FFE0
000000000000
000000000000
000000000000
00003F800000
00003F800000
00003F800000
00003F800000
00003F800000
00003F800000
00007F800000
00007F800000
00007F000000
00007F000000
0000FF000000
0000FE000000
0001FE000000
0000FC000000
000038000000
000018000000
ENDCHAR
STARTCHAR uni0146
ENCODING 326
SWIDTH 560 0
DWIDTH 42 0
BBX 34 59 4 -19
BITMAP
FFC07FC000
FFC3FFF000
FFC7FFFC00
FFDFFFFE00
FFFFFFFF00
FFFFFFFF00
FFFFFFFF80
FFFFFFFF80
FFFFFFFF80
FFFC0FFFC0
FFF003FFC0
FFE001FFC0
FFE001FFC0
FFC001FFC0
FFC001FFC0
FFC001FFC0
FFC001FFC0
FFC001FFC0
FFC001FFC0
FFC001FFC0
FFC001FFC0
FFC001FFC0
FFC001FFC0
FFC001FFC0
FFC001FFC0
FFC001FFC0
FFC001FFC0
FFC001FFC0
FFC001FFC0
FFC001FFC0
FFC001FFC0
FFC001FFC0
FFC001FFC0
FFC001FFC0
FFC001FFC0
FFC001FFC0
FFC001FFC0
FFC001FFC0
FFC001FFC0
FFC001FFC0
0000000000
0000000000
0000000000
0007F80000
0007F80000
0007F80000
0007F80000
0007F80000
0007F80000
0007F00000
0007F00000
000FF00000
000FF00000
000FE00000
001FE00000
001FC00000
003FC00000
0007800000
0001000000
ENDCHAR
STARTCHAR Ncaron
ENCODING 327
SWIDTH 706 0
DWIDTH 53 0
BBX 43 68 5 0
BITMAP
01FF803FF000
00FFC07FE000
007FE0FFC000
003FF1FF8000
001FFBFF0000
0007FFFE0000
0003FFFC0000
0001FFF80000
0000FFF00000
00007FE00000
00003F800000
000000000000
000000000000
000000000000
000000000000
FFE00000FFE0
FFF00000FFE0
FFF00000FFE0
FFF80000FFE0
FFFC0000FFE0
FFFC0000FFE0
FFFE0000FFE0
FFFE0000FFE0
FFFF0000FFE0
FFFF8000FFE0
FFFF8000FFE0
FFFFC000FFE0
FFFFC000FFE0
FFFFE000FFE0
FFFFF000FFE0
FFFFF000FFE0
FFFFF800FFE0
FFFFFC00FFE0
FFFFFC00FFE0
FFEFFE00FFE0
FFEFFE00FFE0
FFE7FF00FFE0
FFE7FF80FFE0
FFE3FF80FFE0
FFE1FFC0FFE0
FFE1FFC0FFE0
FFE0FFE0FFE0
FFE07FF0FFE0
FFE07FF0FFE0
FFE03FF8FFE0
FFE03FF8FFE0
FFE01FFCFFE0
FFE00FFEFFE0
FFE00FFEFFE0
FFE007FFFFE0
FFE007FFFFE0
FFE003FFFFE0
FFE001FFFFE0
FFE001FFFFE0
FFE000FFFFE0
FFE000FFFFE0
FFE0007FFFE0
FFE0003FFFE0
FFE0003FFFE0
FFE0001FFFE0
FFE0000FFFE0
FFE0000FFFE0
FFE00007FFE0
FFE00007FFE0
FFE00003FFE0
FFE00001FFE0
FFE00001FFE0
FFE00000FFE0
ENDCHAR
STARTCHAR ncaron
ENCODING 328
SWIDTH 560 0
DWIDTH 42 0
BBX 34 57 4 0
BITMAP
1FF003FE00
0FF807FC00
07FC0FF800
03FE1FF000
01FF3FE000
00FFFFC000
007FFF8000
003FFF0000
001FFE0000
000FFC0000
0007F80000
0000000000
0000000000
0000000000
0000000000
0000000000
0000000000
FFC07FC000
FFC3FFF000
FFC7FFFC00
FFDFFFFE00
FFFFFFFF00
FFFFFFFF00
FFFFFFFF80
FFFFFFFF80
FFFFFFFF80
FFFC0FFFC0
FFF003FFC0
FFE001FFC0
FFE001FFC0
FFC001FFC0
FFC001FFC0
FFC001FFC0
FFC001FFC0
FFC001FFC0
FFC001FFC0
FFC001FFC0
FFC001FFC0
FFC001FFC0
FFC001FFC0
FFC001FFC0
FFC001FFC0
FFC001FFC0
FFC001FFC0
FFC001FFC0
FFC001FFC0
FFC001FFC0
FFC001FFC0
FFC001FFC0
FFC001FFC0
FFC001FFC0
FFC001FFC0
FFC001FFC0
FFC001FFC0
FFC001FFC0
FFC001FFC0
FFC001FFC0
ENDCHAR
STARTCHAR napostrophe
ENCODING 329
SWIDTH 560 0
DWIDTH 42 0
BBX 42 57 -4 0
BITMAP
1FE000000000
1FE000000000
1FE000000000
1FE000000000
1FC000000000
1FC000000000
3FC000000000
3FC000000000
3FC000000000
3F8000000000
7F8000000000
7F0000000000
FF0000000000
7E0000000000
1C0000000000
0C0000000000
000000000000
00FFC07FC000
00FFC3FFF000
00FFC7FFFC00
00FFDFFFFE00
00FFFFFFFF00
00FFFFFFFF00
00FFFFFFFF80
00FFFFFFFF80
00FFFFFFFF80
00FFFC0FFFC0
00FFF003FFC0
00FFE001FFC0
00FFE001FFC0
00FFC001FFC0
00FFC001FFC0
00FFC001FFC0
00FFC001FFC0
00FFC001FFC0
00FFC001FFC0
00FFC001FFC0
00FFC001FFC0
00FFC001FFC0
00FFC001FFC0
00FFC001FFC0
00FFC001FFC0
00FFC001FFC0
00FFC001FFC0
00FFC001FFC0
00FFC001FFC0
00FFC001FFC0
00FFC001FFC0
00FFC001FFC0
00FFC001FFC0
00FFC001FFC0
00FFC001FFC0
00FFC001FFC0
00FFC001FFC0
00FFC001FFC0
00FFC001FFC0
00FFC001FFC0
ENDCHAR
STARTCHAR Eng
ENCODING 330
SWIDTH 703 0
DWIDTH 53 0
BBX 43 69 5 -16
BITMAP
FFE00000FFE0
FFF00000FFE0
FFF00000FFE0
FFF80000FFE0
FFFC0000FFE0
FFFC0000FFE0
FFFE0000FFE0
FFFE0000FFE0
FFFF0000FFE0
FFFF8000FFE0
FFFF8000FFE0
FFFFC000FFE0
FFFFC000FFE0
FFFFE000FFE0
FFFFF000FFE0
FFFFF000FFE0
FFFFF800FFE0
FFFFF800FFE0
FFEFFC00FFE0
FFEFFE00FFE0
FFE7FE00FFE0
FFE7FF00FFE0
FFE3FF00FFE0
FFE1FF80FFE0
FFE1FFC0FFE0
FFE0FFC0FFE0
FFE0FFE0FFE0
FFE07FE0FFE0
FFE03FF0FFE0
FFE03FF8FFE0
FFE01FF8FFE0
FFE01FFCFFE0
FFE00FFCFFE0
FFE007FEFFE0
FFE007FFFFE0
FFE003FFFFE0
FFE003FFFFE0
FFE001FFFFE0
FFE000FFFFE0
FFE000FFFFE0
FFE0007FFFE0
FFE0007FFFE0
FFE0003FFFE0
FFE0001FFFE0
FFE0001FFFE0
FFE0000FFFE0
FFE0000FFFE0
FFE00007FFE0
FFE00003FFE0
FFE00003FFE0
FFE00001FFE0
FFE00001FFE0
FFE00000FFE0
00000000FFE0
00000000FFE0
00000000FFE0
00000000FFE0
00000000FFE0
00000001FFE0
00000003FFE0
000000FFFFC0
000000FFFFC0
000000FFFF80
000000FFFF80
000000FFFF00
000000FFFE00
000000FFFC00
000000FFF000
000000FF8000
ENDCHAR
STARTCHAR eng
ENCODING 331
SWIDTH 564 0
DWIDTH 42 0
BBX 34 56 4 -16
BITMAP
FFC03F8000
FFC1FFF000
FFC3FFF800
FFCFFFFE00
FFDFFFFE00
FFDFFFFF00
FFFFFFFF00
FFFFFFFF80
FFFFFFFF80
FFFC0FFF80
FFF003FFC0
FFE001FFC0
FFC001FFC0
FFC001FFC0
FFC001FFC0
FFC000FFC0
FFC000FFC0
FFC000FFC0
FFC000FFC0
FFC000FFC0
FFC000FFC0
FFC000FFC0
FFC000FFC0
FFC000FFC0
FFC000FFC0
FFC000FFC0
FFC000FFC0
FFC000FFC0
FFC000FFC0
FFC000FFC0
FFC000FFC0
FFC000FFC0
FFC000FFC0
FFC000FFC0
FFC000FFC0
FFC000FFC0
FFC000FFC0
FFC000FFC0
FFC000FFC0
FFC000FFC0
000000FFC0
000000FFC0
000001FFC0
000001FFC0
000001FFC0
000003FFC0
000007FFC0
0001FFFF80
0001FFFF80
0001FFFF00
0001FFFF00
0001FFFE00
0001FFFC00
0001FFF800
0001FFE000
0000FF8000
ENDCHAR
STARTCHAR Omacron
ENCODING 332
SWIDTH 690 0
DWIDTH 52 0
BBX 46 65 3 -1
BITMAP
001FFFFFF000
001FFFFFF000
001FFFFFF000
001FFFFFF000
001FFFFFF000
001FFFFFF000
000000000000
000000000000
000000000000
000000000000
00003FF00000
0001FFFE0000
000FFFFFC000
001FFFFFE000
007FFFFFF800
00FFFFFFFC00
01FFFFFFFE00
03FFFFFFFF00
07FFFFFFFF00
07FFE03FFF80
0FFF8007FFC0
0FFF0003FFC0
1FFE0001FFE0
1FFC0000FFE0
3FFC0000FFF0
3FF800007FF0
3FF800007FF0
7FF000007FF8
7FF000003FF8
7FF000003FF8
7FF000003FF8
7FF000003FF8
FFF000003FF8
FFE000003FFC
FFE000003FFC
FFE000003FFC
FFE000001FFC
FFE000001FFC
FFE000001FFC
FFE000003FFC
FFE000003FFC
FFE000003FFC
FFF000003FFC
7FF000003FF8
7FF000003FF8
7FF000003FF8
7FF000003FF8
7FF800007FF8
3FF800007FF0
3FF800007FF0
3FFC0000FFF0
1FFC0000FFE0
1FFE0001FFE0
0FFF0003FFC0
0FFF8007FFC0
07FFF03FFF80
07FFFFFFFF80
03FFFFFFFF00
01FFFFFFFE00
00FFFFFFFC00
007FFFFFF800
001FFFFFE000
000FFFFFC000
0001FFFE0000
00003FF00000
ENDCHAR
STARTCHAR omacron
ENCODING 333
SWIDTH 565 0
DWIDTH 42 0
BBX 38 54 2 -1
BITMAP
01FFFFFF00
01FFFFFF00
01FFFFFF00
01FFFFFF00
01FFFFFF00
01FFFFFF00
0000000000
0000000000
0000000000
0000000000
0000000000
0000000000
0000000000
0003FF0000
001FFFE000
007FFFF800
00FFFFFC00
03FFFFFF00
07FFFFFF80
0FFFFFFF80
0FFFFFFFC0
1FFFFFFFE0
1FFF03FFE0
3FFC00FFF0
3FF8007FF0
7FF8007FF8
7FF0003FF8
7FF0003FF8
7FE0001FF8
FFE0001FF8
FFE0001FFC
FFE0001FFC
FFE0001FFC
FFE0001FFC
FFE0001FFC
FFE0001FFC
FFE0001FFC
FFE0001FFC
7FE0001FF8
7FF0003FF8
7FF0003FF8
7FF0007FF8
3FF8007FF0
3FFC00FFF0
3FFF03FFE0
1FFFFFFFE0
0FFFFFFFC0
0FFFFFFFC0
07FFFFFF80
03FFFFFF00
01FFFFFC00
007FFFF800
001FFFE000
0003FF0000
ENDCHAR
STARTCHAR Obreve
ENCODING 334
SWIDTH 690 0
DWIDTH 52 0
BBX 46 68 3 -1
BITMAP
003FC00FE000
003FC00FE000
003FC01FE000
001FE01FE000
001FF07FE000
001FFFFFC000
000FFFFF8000
0007FFFF0000
0003FFFE0000
0000FFFC0000
00001FE00000
000000000000
000000000000
00003FF00000
0001FFFE0000
000FFFFFC000
001FFFFFE000
007FFFFFF800
00FFFFFFFC00
01FFFFFFFE00
03FFFFFFFF00
07FFFFFFFF00
07FFE03FFF80
0FFF8007FFC0
0FFF0003FFC0
1FFE0001FFE0
1FFC0000FFE0
3FFC0000FFF0
3FF800007FF0
3FF800007FF0
7FF000007FF8
7FF000003FF8
7FF000003FF8
7FF000003FF8
7FF000003FF8
FFF000003FF8
FFE000003FFC
FFE000003FFC
FFE000003FFC
FFE000001FFC
FFE000001FFC
FFE000001FFC
FFE000003FFC
FFE000003FFC
FFE000003FFC
FFF000003FFC
7FF000003FF8
7FF000003FF8
7FF000003FF8
7FF000003FF8
7FF800007FF8
3FF800007FF0
3FF800007FF0
3FFC0000FFF0
1FFC0000FFE0
1FFE0001FFE0
0FFF0003FFC0
0FFF8007FFC0
07FFF03FFF80
07FFFFFFFF80
03FFFFFFFF00
01FFFFFFFE00
00FFFFFFFC00
007FFFFFF800
001FFFFFE000
000FFFFFC000
0001FFFE0000
00003FF00000
ENDCHAR
STARTCHAR obreve
ENCODING 335
SWIDTH 565 0
DWIDTH 42 0
BBX 38 57 2 -1
BITMAP
03FC00FF00
03FC00FF00
01FC00FE00
01FE01FE00
01FF07FE00
00FFFFFC00
00FFFFFC00
007FFFF800
003FFFE000
000FFFC000
0001FE0000
0000000000
0000000000
0000000000
0000000000
0000000000
0003FF0000
001FFFE000
007FFFF800
00FFFFFC00
03FFFFFF00
07FFFFFF80
0FFFFFFF80
0FFFFFFFC0
1FFFFFFFE0
1FFF03FFE0
3FFC00FFF0
3FF8007FF0
7FF8007FF8
7FF0003FF8
7FF0003FF8
7FE0001FF8
FFE0001FF8
FFE0001FFC
FFE0001FFC
FFE0001FFC
FFE0001FFC
FFE0001FFC
FFE0001FFC
FFE0001FFC
FFE0001FFC
7FE0001FF8
7FF0003FF8
7FF0003FF8
7FF0007FF8
3FF8007FF0
3FFC00FFF0
3FFF03FFE0
1FFFFFFFE0
0FFFFFFFC0
0FFFFFFFC0
07FFFFFF80
03FFFFFF00
01FFFFFC00
007FFFF800
001FFFE000
0003FF0000
ENDCHAR
STARTCHAR Ohungarumlaut
ENCODING 336
SWIDTH 690 0
DWIDTH 52 0
BBX 46 68 3 -1
BITMAP
00003FF0FFC0
00003FE0FF80
00007FC1FF00
0000FF83FE00
0000FF07FC00
0001FF0FF800
0003FE0FF800
0003FC1FF000
0007F83FE000
000FF87FC000
000FF07F8000
000000000000
000000000000
00003FF00000
0001FFFE0000
000FFFFFC000
001FFFFFE000
007FFFFFF800
00FFFFFFFC00
01FFFFFFFE00
03FFFFFFFF00
07FFFFFFFF00
07FFE03FFF80
0FFF8007FFC0
0FFF0003FFC0
1FFE0001FFE0
1FFC0000FFE0
3FFC0000FFF0
3FF800007FF0
3FF800007FF0
7FF000007FF8
7FF000003FF8
7FF000003FF8
7FF000003FF8
7FF000003FF8
FFF000003FF8
FFE000003FFC
FFE000003FFC
FFE000003FFC
FFE000001FFC
FFE000001FFC
FFE000001FFC
FFE000003FFC
FFE000003FFC
FFE000003FFC
FFF000003FFC
7FF000003FF8
7FF000003FF8
7FF000003FF8
7FF000003FF8
7FF800007FF8
3FF800007FF0
3FF800007FF0
3FFC0000FFF0
1FFC0000FFE0
1FFE0001FFE0
0FFF0003FFC0
0FFF8007FFC0
07FFF03FFF80
07FFFFFFFF80
03FFFFFFFF00
01FFFFFFFE00
00FFFFFFFC00
007FFFFFF800
001FFFFFE000
000FFFFFC000
0001FFFE0000
00003FF00000
ENDCHAR
STARTCHAR ohungarumlaut
ENCODING 337
SWIDTH 565 0
DWIDTH 42 0
BBX 39 57 2 -1
BITMAP
0003FF07FE
0003FE0FF8
0007FC1FF0
000FF83FE0
000FF83FE0
001FF07FC0
001FE0FF80
003FC1FF00
007FC3FE00
007F83FC00
00FF07F800
0000000000
0000000000
0000000000
0000000000
0000000000
0003FF0000
001FFFE000
007FFFF800
00FFFFFC00
03FFFFFF00
07FFFFFF80
0FFFFFFF80
0FFFFFFFC0
1FFFFFFFE0
1FFF03FFE0
3FFC00FFF0
3FF8007FF0
7FF8007FF8
7FF0003FF8
7FF0003FF8
7FE0001FF8
FFE0001FF8
FFE0001FFC
FFE0001FFC
FFE0001FFC
FFE0001FFC
FFE0001FFC
FFE0001FFC
FFE0001FFC
FFE0001FFC
7FE0001FF8
7FF0003FF8
7FF0003FF8
7FF0007FF8
3FF8007FF0
3FFC00FFF0
3FFF03FFE0
1FFFFFFFE0
0FFFFFFFC0
0FFFFFFFC0
07FFFFFF80
03FFFFFF00
01FFFFFC00
007FFFF800
001FFFE000
0003FF0000
ENDCHAR
STARTCHAR OE
ENCODING 338
SWIDTH 968 0
DWIDTH 73 0
BBX 65 55 4 -1
BITMAP
00007FF80000000000
0007FFFFFFFFFFFF80
001FFFFFFFFFFFFF80
007FFFFFFFFFFFFF80
00FFFFFFFFFFFFFF80
03FFFFFFFFFFFFFF80
07FFFFFFFFFFFFFF80
0FFFFFFFFFFFFFFF80
0FFFFFFFFFFFFFFF80
1FFFC007FFFFFFFF80
3FFF0007FF00000000
3FFC0007FF00000000
7FF80007FF00000000
7FF00007FF00000000
7FF00007FF00000000
FFE00007FF00000000
FFE00007FF00000000
FFE00007FF00000000
FFE00007FF00000000
FFC00007FF00000000
FFC00007FF00000000
FFC00007FF00000000
FFC00007FFFFFFF800
FFC00007FFFFFFF800
FFC00007FFFFFFF800
FFC00007FFFFFFF800
FFC00007FFFFFFF800
FFC00007FFFFFFF800
FFC00007FFFFFFF800
FFC00007FFFFFFF800
FFC00007FFFFFFF800
FFC00007FF00000000
FFC00007FF00000000
FFC00007FF00000000
FFC00007FF00000000
FFC00007FF00000000
FFE00007FF00000000
FFE00007FF00000000
FFE00007FF00000000
FFE00007FF00000000
7FF00007FF00000000
7FF00007FF00000000
3FF80007FF00000000
3FFC0007FF00000000
3FFF0007FF00000000
1FFFC007FFFFFFFF80
0FFFFFFFFFFFFFFF80
07FFFFFFFFFFFFFF80
07FFFFFFFFFFFFFF80
03FFFFFFFFFFFFFF80
00FFFFFFFFFFFFFF80
007FFFFFFFFFFFFF80
001FFFFFFFFFFFFF80
0007FFFFFFFFFFFF80
00007FF80000000000
ENDCHAR
STARTCHAR oe
ENCODING 339
SWIDTH 901 0
DWIDTH 68 0
BBX 62 41 3 -1
BITMAP
0003FF00007FC000
001FFFE003FFF800
007FFFF80FFFFE00
00FFFFFC3FFFFF00
03FFFFFE7FFFFF80
07FFFFFFFFFFFFC0
0FFFFFFFFFFFFFE0
0FFFFFFFFFFFFFF0
1FFFFFFFFFFFFFF0
1FFF03FFFFE0FFF8
3FFC01FFFF803FF8
3FF8007FFF003FF8
7FF8007FFF001FF8
7FF0003FFE001FFC
7FF0003FFE000FFC
7FE0003FFC000FFC
FFE0001FFC000FFC
FFE0001FFFFFFFFC
FFE0001FFFFFFFFC
FFE0001FFFFFFFFC
FFE0001FFFFFFFFC
FFE0001FFFFFFFFC
FFE0001FFFFFFFFC
FFE0001FFFFFFFFC
FFE0001FFC000000
7FE0003FFC000000
7FF0003FFE000000
7FF0003FFE000000
7FF0007FFF000000
3FF8007FFF800040
3FFC00FFFFC001E0
3FFF03FFFFF00FE0
1FFFFFFFFFFFFFF0
0FFFFFFFFFFFFFF0
0FFFFFFFFFFFFFF0
07FFFFFFFFFFFFF8
03FFFFFF7FFFFFF8
01FFFFFC1FFFFFE0
007FFFF80FFFFFC0
001FFFE003FFFE00
0003FF00007FE000
ENDCHAR
STARTCHAR Racute
ENCODING 340
SWIDTH 638 0
DWIDTH 48 0
BBX 41 67 5 0
BITMAP
00001FFE0000
00003FF80000
00007FF00000
00007FE00000
0000FFC00000
0001FF800000
0001FF800000
0003FF000000
0007FE000000
0007FC000000
000FF8000000
000000000000
000000000000
000000000000
FFFFFFC00000
FFFFFFF80000
FFFFFFFF0000
FFFFFFFF8000
FFFFFFFFE000
FFFFFFFFF000
FFFFFFFFF000
FFFFFFFFF800
FFFFFFFFFC00
FFE001FFFC00
FFE0007FFC00
FFE0003FFE00
FFE0001FFE00
FFE0000FFE00
FFE0000FFE00
FFE0000FFE00
FFE0000FFE00
FFE0000FFE00
FFE0000FFE00
FFE0000FFE00
FFE0000FFE00
FFE0001FFE00
FFE0003FFC00
FFE0007FFC00
FFE001FFF800
FFFFFFFFF800
FFFFFFFFF000
FFFFFFFFE000
FFFFFFFFC000
FFFFFFFF8000
FFFFFFFE0000
FFFFFFFC0000
FFFFFFFE0000
FFFFFFFE0000
FFE00FFF0000
FFE00FFF0000
FFE007FF8000
FFE007FF8000
FFE003FFC000
FFE003FFC000
FFE001FFE000
FFE000FFE000
FFE000FFF000
FFE0007FF000
FFE0007FF800
FFE0003FFC00
FFE0003FFC00
FFE0001FFE00
FFE0001FFE00
FFE0000FFF00
FFE0000FFF00
FFE00007FF80
FFE00007FF80
ENDCHAR
STARTCHAR racute
ENCODING 341
SWIDTH 364 0
DWIDTH 27 0
BBX 25 56 4 0
BITMAP
0007FF80
000FFE00
001FFC00
001FF800
003FF800
003FF000
007FE000
00FFC000
00FF8000
01FF0000
03FE0000
00000000
00000000
00000000
00000000
00000000
FFC0FC00
FFC3FC00
FFCFFC00
FFDFFC00
FFDFFC00
FFFFFC00
FFFFFC00
FFFFFC00
FFFFFC00
FFFFFC00
FFFE0000
FFF80000
FFE00000
FFE00000
FFC00000
FFC00000
FFC00000
FFC00000
FFC00000
FFC00000
FFC00000
FFC00000
FFC00000
FFC00000
FFC00000
FFC00000
FFC00000
FFC00000
FFC00000
FFC00000
FFC00000
FFC00000
FFC00000
FFC00000
FFC00000
FFC00000
FFC00000
FFC00000
FFC00000
FFC00000
ENDCHAR
STARTCHAR uni0156
ENCODING 342
SWIDTH 638 0
DWIDTH 48 0
BBX 41 72 5 -19
BITMAP
FFFFFFC00000
FFFFFFF80000
FFFFFFFF0000
FFFFFFFF8000
FFFFFFFFE000
FFFFFFFFF000
FFFFFFFFF000
FFFFFFFFF800
FFFFFFFFFC00
FFE001FFFC00
FFE0007FFC00
FFE0003FFE00
FFE0001FFE00
FFE0000FFE00
FFE0000FFE00
FFE0000FFE00
FFE0000FFE00
FFE0000FFE00
FFE0000FFE00
FFE0000FFE00
FFE0000FFE00
FFE0001FFE00
FFE0003FFC00
FFE0007FFC00
FFE001FFF800
FFFFFFFFF800
FFFFFFFFF000
FFFFFFFFE000
FFFFFFFFC000
FFFFFFFF8000
FFFFFFFE0000
FFFFFFFC0000
FFFFFFFE0000
FFFFFFFE0000
FFE00FFF0000
FFE00FFF0000
FFE007FF8000
FFE007FF8000
FFE003FFC000
FFE003FFC000
FFE001FFE000
FFE000FFE000
FFE000FFF000
FFE0007FF000
FFE0007FF800
FFE0003FFC00
FFE0003FFC00
FFE0001FFE00
FFE0001FFE00
FFE0000FFF00
FFE0000FFF00
FFE00007FF80
FFE00007FF80
000000000000
000000000000
000000000000
0003F8000000
0003F8000000
0003F8000000
0003F8000000
0003F8000000
0007F8000000
0007F8000000
0007F8000000
0007F0000000
0007F0000000
000FF0000000
000FE0000000
001FE0000000
000FC0000000
000780000000
000180000000
ENDCHAR
STARTCHAR uni0157
ENCODING 343
SWIDTH 364 0
DWIDTH 27 0
BBX 23 59 3 -19
BITMAP
7FE07E
7FE1FE
7FE7FE
7FEFFE
7FEFFE
7FFFFE
7FFFFE
7FFFFE
7FFFFE
7FFFFE
7FFF00
7FFC00
7FF000
7FF000
7FE000
7FE000
7FE000
7FE000
7FE000
7FE000
7FE000
7FE000
7FE000
7FE000
7FE000
7FE000
7FE000
7FE000
7FE000
7FE000
7FE000
7FE000
7FE000
7FE000
7FE000
7FE000
7FE000
7FE000
7FE000
7FE000
000000
000000
000000
1FC000
1FC000
1FC000
1FC000
1FC000
1FC000
3FC000
3FC000
3F8000
3F8000
7F8000
7F0000
FF0000
7E0000
1C0000
0C0000
ENDCHAR
STARTCHAR Rcaron
ENCODING 344
SWIDTH 638 0
DWIDTH 48 0
BBX 41 68 5 0
BITMAP
3FF003FE0000
0FF807FC0000
07FC0FF80000
03FE1FF00000
01FF3FE00000
00FFFFC00000
007FFF800000
003FFF000000
001FFE000000
000FFC000000
0007F8000000
000000000000
000000000000
000000000000
000000000000
FFFFFFC00000
FFFFFFF80000
FFFFFFFF0000
FFFFFFFF8000
FFFFFFFFE000
FFFFFFFFF000
FFFFFFFFF000
FFFFFFFFF800
FFFFFFFFFC00
FFE001FFFC00
FFE0007FFC00
FFE0003FFE00
FFE0001FFE00
FFE0000FFE00
FFE0000FFE00
FFE0000FFE00
FFE0000FFE00
FFE0000FFE00
FFE0000FFE00
FFE0000FFE00
FFE0000FFE00
FFE0001FFE00
FFE0003FFC00
FFE0007FFC00
FFE001FFF800
FFFFFFFFF800
FFFFFFFFF000
FFFFFFFFE000
FFFFFFFFC000
FFFFFFFF8000
FFFFFFFE0000
FFFFFFFC0000
FFFFFFFE0000
FFFFFFFE0000
FFE00FFF0000
FFE00FFF0000
FFE007FF8000
FFE007FF8000
FFE003FFC000
FFE003FFC000
FFE001FFE000
FFE000FFE000
FFE000FFF000
FFE0007FF000
FFE0007FF800
FFE0003FFC00
FFE0003FFC00
FFE0001FFE00
FFE0001FFE00
FFE0000FFF00
FFE0000FFF00
FFE00007FF80
FFE00007FF80
ENDCHAR
STARTCHAR rcaron
ENCODING 345
SWIDTH 364 0
DWIDTH 27 0
BBX 28 57 1 0
BITMAP
FF801FF0
7FC03FE0
3FE07FC0
1FF0FF80
0FF9FF00
07FFFE00
03FFFC00
01FFF800
00FFF000
007FE000
003FC000
00000000
00000000
00000000
00000000
00000000
00000000
1FF81F80
1FF87F80
1FF9FF80
1FFBFF80
1FFBFF80
1FFFFF80
1FFFFF80
1FFFFF80
1FFFFF80
1FFFFF80
1FFFC000
1FFF0000
1FFC0000
1FFC0000
1FF80000
1FF80000
1FF80000
1FF80000
1FF80000
1FF80000
1FF80000
1FF80000
1FF80000
1FF80000
1FF80000
1FF80000
1FF80000
1FF80000
1FF80000
1FF80000
1FF80000
1FF80000
1FF80000
1FF80000
1FF80000
1FF80000
1FF80000
1FF80000
1FF80000
1FF80000
ENDCHAR
STARTCHAR Sacute
ENCODING 346
SWIDTH 614 0
DWIDTH 46 0
BBX 41 68 2 -1
BITMAP
000000FFE000
000001FFC000
000003FF8000
000003FF0000
000007FE0000
00000FFC0000
00000FF80000
00001FF00000
00003FF00000
00003FE00000
00007FC00000
000000000000
000000000000
0000FFE00000
0007FFFE0000
003FFFFF8000
007FFFFFE000
01FFFFFFF000
03FFFFFFF800
07FFFFFFFC00
0FFFFFFFFE00
0FFFFFFFFE00
1FFFC07FFF00
1FFF001FFF00
1FFC0007FF80
3FFC0007FF80
3FF80003FF80
3FF80003FF80
3FF80003FF80
3FF80003FF80
3FFC00000000
1FFE00000000
1FFF00000000
1FFFC0000000
0FFFF0000000
0FFFFE000000
07FFFFC00000
03FFFFF80000
01FFFFFE0000
00FFFFFF8000
003FFFFFC000
000FFFFFF000
0003FFFFF800
0000FFFFFC00
00001FFFFE00
000003FFFE00
0000007FFF00
0000001FFF00
0000000FFF80
00000007FF80
FFF00003FF80
7FF00003FF80
7FF00003FF80
7FF00003FF80
7FF00003FF80
7FF80003FF80
3FFC0007FF80
3FFE000FFF80
3FFFC03FFF00
1FFFFFFFFF00
0FFFFFFFFE00
07FFFFFFFE00
03FFFFFFFC00
01FFFFFFF800
00FFFFFFE000
003FFFFFC000
0007FFFF0000
00007FF00000
ENDCHAR
STARTCHAR sacute
ENCODING 347
SWIDTH 514 0
DWIDTH 39 0
BBX 34 57 2 -1
BITMAP
00001FFE00
00003FFC00
00003FF800
00007FF000
00007FE000
0000FFC000
0001FF8000
0001FF0000
0003FE0000
0007FC0000
0007F80000
0008000000
0000000000
0000000000
0000000000
0000000000
000FFE0000
007FFFC000
01FFFFF000
03FFFFF800
07FFFFFC00
0FFFFFFE00
1FFFFFFF00
1FFFFFFF80
3FFC0FFF80
3FF803FF80
3FF001FFC0
3FF001FFC0
3FF001FFC0
3FF0000000
3FF8000000
3FFE000000
3FFFE00000
1FFFFE0000
0FFFFFC000
07FFFFF000
03FFFFFC00
01FFFFFE00
003FFFFF00
000FFFFF80
00007FFF80
00000FFFC0
000003FFC0
000001FFC0
FFC000FFC0
FFE000FFC0
7FE001FFC0
7FF001FFC0
7FFC07FF80
3FFFFFFF80
1FFFFFFF00
1FFFFFFF00
0FFFFFFE00
03FFFFFC00
01FFFFF000
007FFFC000
000FFE0000
ENDCHAR
STARTCHAR Scircumflex
ENCODING 348
SWIDTH 614 0
DWIDTH 46 0
BBX 41 69 2 -1
BITMAP
00003F800000
00007FC00000
0000FFF00000
0001FFF80000
0003FFFC0000
0007FFFE0000
000FF9FF0000
003FF0FF8000
007FE07FC000
00FFC03FE000
00FF801FF000
000000000000
000000000000
000000000000
0000FFE00000
0007FFFE0000
003FFFFF8000
007FFFFFE000
01FFFFFFF000
03FFFFFFF800
07FFFFFFFC00
0FFFFFFFFE00
0FFFFFFFFE00
1FFFC07FFF00
1FFF001FFF00
1FFC0007FF80
3FFC0007FF80
3FF80003FF80
3FF80003FF80
3FF80003FF80
3FF80003FF80
3FFC00000000
1FFE00000000
1FFF00000000
1FFFC0000000
0FFFF0000000
0FFFFE000000
07FFFFC00000
03FFFFF80000
01FFFFFE0000
00FFFFFF8000
003FFFFFC000
000FFFFFF000
0003FFFFF800
0000FFFFFC00
00001FFFFE00
000003FFFE00
0000007FFF00
0000001FFF00
0000000FFF80
00000007FF80
FFF00003FF80
7FF00003FF80
7FF00003FF80
7FF00003FF80
7FF00003FF80
7FF80003FF80
3FFC0007FF80
3FFE000FFF80
3FFFC03FFF00
1FFFFFFFFF00
0FFFFFFFFE00
07FFFFFFFE00
03FFFFFFFC00
01FFFFFFF800
00FFFFFFE000
003FFFFFC000
0007FFFF0000
00007FF00000
ENDCHAR
STARTCHAR scircumflex
ENCODING 349
SWIDTH 514 0
DWIDTH 39 0
BBX 34 58 2 -1
BITMAP
0003F80000
0007FC0000
000FFE0000
003FFF0000
007FFF8000
00FFFFC000
01FF3FF000
03FE1FF800
07FC0FFC00
0FF807FE00
1FF003FE00
0000000000
0000000000
0000000000
0000000000
0000000000
0000000000
000FFE0000
007FFFC000
01FFFFF000
03FFFFF800
07FFFFFC00
0FFFFFFE00
1FFFFFFF00
1FFFFFFF80
3FFC0FFF80
3FF803FF80
3FF001FFC0
3FF001FFC0
3FF001FFC0
3FF0000000
3FF8000000
3FFE000000
3FFFE00000
1FFFFE0000
0FFFFFC000
07FFFFF000
03FFFFFC00
01FFFFFE00
003FFFFF00
000FFFFF80
00007FFF80
00000FFFC0
000003FFC0
000001FFC0
FFC000FFC0
FFE000FFC0
7FE001FFC0
7FF001FFC0
7FFC07FF80
3FFFFFFF80
1FFFFFFF00
1FFFFFFF00
0FFFFFFE00
03FFFFFC00
01FFFFF000
007FFFC000
000FFE0000
ENDCHAR
STARTCHAR Scedilla
ENCODING 350
SWIDTH 614 0
DWIDTH 46 0
BBX 41 71 2 -17
BITMAP
0000FFE00000
0007FFFE0000
003FFFFF8000
007FFFFFE000
01FFFFFFF000
03FFFFFFF800
07FFFFFFFC00
0FFFFFFFFE00
0FFFFFFFFE00
1FFFC07FFF00
1FFF001FFF00
1FFC0007FF80
3FFC0007FF80
3FF80003FF80
3FF80003FF80
3FF80003FF80
3FF80003FF80
3FFC00000000
1FFE00000000
1FFF00000000
1FFFC0000000
0FFFF0000000
0FFFFE000000
07FFFFC00000
03FFFFF80000
01FFFFFE0000
00FFFFFF8000
003FFFFFC000
000FFFFFF000
0003FFFFF800
0000FFFFFC00
00001FFFFE00
000003FFFE00
0000007FFF00
0000001FFF00
0000000FFF80
00000007FF80
FFF00003FF80
7FF00003FF80
7FF00003FF80
7FF00003FF80
7FF00003FF80
7FF80003FF80
3FFC0007FF80
3FFE000FFF80
3FFFC03FFF00
1FFFFFFFFF00
0FFFFFFFFE00
07FFFFFFFE00
03FFFFFFFC00
01FFFFFFF800
00FFFFFFE000
003FFFFFC000
0007FFFF0000
00007FF00000
00003FC00000
00007FE00000
00007FF80000
00007FFC0000
00001FFC0000
000007FE0000
000003FE0000
000003FE0000
000003FE0000
000007FE0000
00003FFC0000
00003FFC0000
00003FF80000
00003FF00000
00003FC00000
00003E000000
ENDCHAR
STARTCHAR scedilla
ENCODING 351
SWIDTH 514 0
DWIDTH 39 0
BBX 34 57 2 -17
BITMAP
000FFE0000
007FFFC000
01FFFFF000
03FFFFF800
07FFFFFC00
0FFFFFFE00
1FFFFFFF00
1FFFFFFF80
3FFC0FFF80
3FF803FF80
3FF001FFC0
3FF001FFC0
3FF001FFC0
3FF0000000
3FF8000000
3FFE000000
3FFFE00000
1FFFFE0000
0FFFFFC000
07FFFFF000
03FFFFFC00
01FFFFFE00
003FFFFF00
000FFFFF80
00007FFF80
00000FFFC0
000003FFC0
000001FFC0
FFC000FFC0
FFE000FFC0
7FE001FFC0
7FF001FFC0
7FFC07FF80
3FFFFFFF80
1FFFFFFF00
1FFFFFFF00
0FFFFFFE00
03FFFFFC00
01FFFFF000
007FFFC000
000FFE0000
0007F80000
0007FE0000
0007FF0000
0007FF8000
0009FFC000
00007FC000
00003FC000
00003FE000
00007FC000
0000FFC000
0007FFC000
0003FF8000
0003FF8000
0003FE0000
0003FC0000
0003E00000
ENDCHAR
ENDFONT
